<?xml version="1.0" encoding="UTF-8" standalone="no"?>
<!-- Created with Inkscape (http://www.inkscape.org/) -->

<svg
   xmlns:dc="http://purl.org/dc/elements/1.1/"
   xmlns:cc="http://creativecommons.org/ns#"
   xmlns:rdf="http://www.w3.org/1999/02/22-rdf-syntax-ns#"
   xmlns:svg="http://www.w3.org/2000/svg"
   xmlns="http://www.w3.org/2000/svg"
   xmlns:sodipodi="http://sodipodi.sourceforge.net/DTD/sodipodi-0.dtd"
   xmlns:inkscape="http://www.inkscape.org/namespaces/inkscape"
   id="svg3371"
   version="1.1"
   inkscape:version="0.91 r13725"
   width="1034.7655"
   height="735.75452"
   viewBox="0 0 1034.7655 735.75449"
   sodipodi:docname="talk-cloud-14.svg">
  <metadata
     id="metadata3377">
    <rdf:RDF>
      <cc:Work
         rdf:about="">
        <dc:format>image/svg+xml</dc:format>
        <dc:type
           rdf:resource="http://purl.org/dc/dcmitype/StillImage" />
        <dc:title />
      </cc:Work>
    </rdf:RDF>
  </metadata>
  <defs
     id="defs3375" />
  <sodipodi:namedview
     pagecolor="#ffffff"
     bordercolor="#666666"
     borderopacity="1"
     objecttolerance="10"
     gridtolerance="10"
     guidetolerance="10"
     inkscape:pageopacity="0"
     inkscape:pageshadow="2"
     inkscape:window-width="1440"
     inkscape:window-height="856"
     id="namedview3373"
     showgrid="false"
     inkscape:zoom="0.24544081"
     inkscape:cx="-11.963889"
     inkscape:cy="272.24862"
     inkscape:window-x="0"
     inkscape:window-y="0"
     inkscape:window-maximized="0"
     inkscape:current-layer="layer16"
     fit-margin-top="0"
     fit-margin-left="0"
     fit-margin-right="0"
     fit-margin-bottom="0" />
  <g
     inkscape:groupmode="layer"
     id="layer16"
     inkscape:label="cloud 14"
     transform="translate(908.81276,-290.6536)">
    <path
       transform="translate(-3695.2402,-1995.5964)"
       id="path3593"
       style="display:inline;fill:#B2E9B5"
       d="m 3550.25,2433.5 c -2.4325,-2.4325 -1.725,-7.1386 1.5681,-10.4319 5.1314,-5.1312 11.9319,-3.4991 11.9319,2.8638 0,6.2051 -9.5239,11.5442 -13.5,7.5681 z m -39.3125,6.01 c -5.3168,-4.036 -0.3276,-14.51 6.9116,-14.51 6.3988,0 7.5674,8.4355 1.9,13.7154 -3.1331,2.919 -5.7072,3.1511 -8.8116,0.7946 z m 22.3812,9.4541 c -4.5375,-5.0139 -0.1633,-13.9641 6.8244,-13.9641 6.8701,0 8.2034,6.8458 2.453,12.5961 -4.2336,4.2338 -6.3955,4.5525 -9.2774,1.368 z M 3051.5,2473.5 c -2.5088,-2.5087 -1.69,-6.9979 2.0371,-11.1692 2.8948,-3.2398 4.1431,-3.8065 6.875,-3.1209 2.8278,0.7097 3.3379,1.5114 3.3379,5.2457 0,7.3543 -8.0194,13.275 -12.25,9.0444 z m -16.7537,26.9234 c -4.744,-1.3015 -3.685,-9.6484 1.703,-13.4223 5.6548,-3.9607 11.0507,-1.8317 11.0507,4.3604 0,6.1393 -6.5202,10.772 -12.7537,9.0619 z m -26.1789,10.6671 c -4.0916,-1.4995 -5.2427,-5.3922 -2.9217,-9.8805 2.7404,-5.2995 8.9232,-6.6234 14.0762,-3.0141 3.7862,2.652 3.4874,6.2872 -0.8758,10.6502 -3.8937,3.8938 -5.0745,4.1517 -10.2787,2.2444 z m 40.626,24.512 c -0.9902,-2.5805 1.8856,-9.173 4.6459,-10.6502 3.4071,-1.8234 8.6484,-1.4385 9.4673,0.6952 0.9901,2.5805 -1.8856,9.173 -4.6459,10.6503 -3.4071,1.8233 -8.6485,1.4385 -9.4673,-0.6953 z m 604.4926,15.5835 c -3.092,-3.092 -2.3729,-6.7984 2.1098,-10.8735 3.6383,-3.3077 6.36,-3.5395 10.1761,-0.8666 3.6746,2.5737 3.5501,7.3957 -0.29,11.236 -3.7396,3.7396 -8.5579,3.9421 -11.9959,0.5041 z m 14.4589,23.8765 c -1.8162,-5.7219 4.9911,-12.3245 11.4437,-11.1 3.0469,0.5783 3.6734,6.5632 1.0984,10.4933 -2.6317,4.0166 -11.3265,4.4371 -12.5421,0.6067 z m -8.5615,49.1041 c -0.4584,-0.4582 -0.8334,-2.9487 -0.8334,-5.5342 0,-3.6146 0.7774,-5.3124 3.3642,-7.3473 5.2548,-4.1333 8.4337,-2.9672 8.8883,3.2606 0.3184,4.3615 -0.1483,5.5841 -2.9811,7.8125 -3.3503,2.6353 -6.8592,3.3873 -8.438,1.8084 z m -96.3254,110.9804 c -5.2751,-5.829 4.4915,-16.5274 11.6101,-12.7176 3.5087,1.8777 4.3113,5.6143 2.1175,9.8566 -2.9487,5.7024 -9.8537,7.1415 -13.7276,2.861 z m -559.1955,10.2751 c -0.8594,-0.3467 -1.5625,-2.5023 -1.5625,-4.7901 0,-8.9891 15.0475,-15.0517 16.0312,-6.459 0.4513,3.9425 -2.1931,7.5709 -7.5287,10.33 -3.5476,1.8345 -4.3938,1.9466 -6.94,0.9191 z m -47.8745,0.1283 c -3.7724,-4.5455 4.3046,-14.139 10.5781,-12.5644 2.6873,0.6744 3.2339,1.5319 3.2339,5.0721 0,7.2115 -9.6849,12.465 -13.812,7.4923 z m 540.8954,4.8662 c -3.7919,-3.7917 3.5618,-14.7771 9.3442,-13.9587 2.3918,0.3385 3.0189,1.2737 3.3268,4.9612 0.3083,3.6927 -0.2503,5.0395 -2.981,7.1875 -3.2867,2.5853 -8.029,3.4712 -9.69,1.81 z M 3367.75,2769.75 c -2.5565,-2.5565 -1.6615,-7.2807 2.0899,-11.0321 5.1777,-5.1779 9.561,-5.9665 13.3543,-2.4029 6.6598,6.2566 1.8152,14.935 -8.3373,14.935 -3.0838,0 -6.2819,-0.675 -7.1069,-1.5 z m 251.2854,2.4623 c -3.2318,-1.5576 -4.6702,-5.763 -3.5278,-10.3145 0.8578,-3.4178 7.4623,-7.5275 9.7874,-6.0904 5.6192,3.4728 7.1554,7.11 5.1785,12.2616 -0.6369,1.6596 -6.871,5.902 -8.2239,5.5964 -0.2061,-0.046 -1.6525,-0.7004 -3.2142,-1.4531 z m -587.4729,6.9598 c -1.9401,-0.7828 -2.045,-8.3931 -0.1662,-12.0667 3.159,-6.177 9.3851,-8.8073 12.3607,-5.2219 2.254,2.7158 -0.6965,12.4941 -4.7264,15.664 -3.1381,2.4685 -4.5926,2.7849 -7.4681,1.6246 z M 3580,2793.75 c -3.3012,-3.3012 -3.1541,-5.2809 0.7361,-9.9041 2.7092,-3.2195 4.1303,-3.8459 8.7262,-3.8459 4.8178,0 5.5863,0.3838 6.2767,3.1341 1.0476,4.1743 -2.2771,9.0915 -7.6711,11.3453 -5.3315,2.2277 -5.0889,2.2496 -8.0679,-0.7294 z m -76.0937,1.3636 c -5.5478,-3.4837 3.1151,-16.8286 10.4565,-16.1078 5.6546,0.555 5.8367,5.7533 0.4015,11.4573 -4.5279,4.7515 -8.1955,6.3224 -10.858,4.6505 z m -508.2824,-0.9183 c -4.3868,-4.3868 2.4472,-14.7355 9.2131,-13.9514 2.8118,0.3259 3.344,1.0575 3.6749,5.051 0.6712,8.101 -7.822,13.9664 -12.888,8.9004 z M 3456.5,2807.25 c -2.4781,-2.4781 -1.712,-5.9804 2.1539,-9.8461 5.523,-5.523 11.3461,-4.3539 11.3461,2.278 0,6.2051 -9.5239,11.5442 -13.5,7.5681 z m 183.9693,5.6995 c -1.7142,-6.8296 4.9849,-15.414 10.6304,-13.6221 2.1519,0.6829 2.6503,1.8386 2.6503,6.1461 0,6.529 -3.4585,10.7765 -8.7749,10.7765 -2.9323,0 -3.8454,-0.6687 -4.5058,-3.3005 z M 3527.75,2823.5 c -2.52,-2.52 -1.6849,-6.7876 2.1265,-10.8677 5.6254,-6.022 11.3735,-4.6703 11.3735,2.6746 0,6.7714 -9.286,12.4071 -13.5,8.1931 z m -143.1812,5.4641 c -2.956,-3.2664 -2.5574,-7.3391 1.0738,-10.9703 2.4485,-2.4485 4.1739,-3.0572 7.8125,-2.7557 4.3787,0.3628 4.6935,0.6689 5.0479,4.9082 0.3153,3.77 -0.2719,5.0681 -3.5334,7.8125 -4.5988,3.8696 -7.5505,4.155 -10.4008,1.0053 z m 60.7437,17.708 c -4.0464,-1.6327 0.4754,-11.8135 6.0301,-13.5765 3.013,-0.9563 6.1574,1.322 6.1574,4.4615 0,1.2382 -1.4563,3.9818 -3.2361,6.097 -3.0693,3.6475 -5.4239,4.4414 -8.9514,3.018 z m -330.7291,11.2445 c -1.6117,-1.6115 -0.8095,-7.6678 1.3541,-10.2248 4.9891,-5.8962 14.007,-3.8714 12.34,2.7705 -1.1905,4.7433 -5.176,8.2877 -9.3191,8.2877 -1.948,0 -3.9168,-0.375 -4.375,-0.8334 z m 316.6026,9.5194 c -3.1198,-3.1198 -2.3669,-6.8066 2.244,-10.989 5.1731,-4.6924 14.07,-1.9179 14.07,4.3879 0,7.4984 -10.9756,11.9395 -16.314,6.6011 z m -356.6026,12.9806 c -2.1267,-2.1266 -0.6478,-8.2946 2.8205,-11.7627 5.7451,-5.7451 13.8461,-4.8071 13.8461,1.6034 0,5.1171 -6.3065,10.9927 -11.7989,10.9927 -2.219,0 -4.4095,-0.375 -4.8677,-0.8334 z m 130,61.25 c -0.4584,-0.4582 -0.8334,-2.7338 -0.8334,-5.0567 0,-7.8401 9.3015,-13.4351 12.8689,-7.7409 1.6291,2.6005 0.2135,8.0486 -2.9007,11.1628 -2.4045,2.4045 -7.4603,3.3093 -9.1348,1.6348 z m -27.5,18.75 c -1.712,-1.7118 -0.7457,-7.691 1.7573,-10.873 4.5887,-5.8336 12.4093,-3.5925 12.4093,3.556 0,3.3088 -5.7829,8.1504 -9.7349,8.1504 -1.9791,0 -3.9735,-0.375 -4.4317,-0.8334 z M 3154,2987.25 c -3.814,-3.814 0.9897,-14.75 6.4789,-14.75 2.9311,0 5.7711,3.6275 5.7711,7.3714 0,6.274 -8.3345,11.2941 -12.25,7.3786 z m -20.25,13.4029 c 48.1386,-10.7559 79.7104,-36.7171 91.0456,-74.8661 1.4035,-4.7235 3.8385,-9.9579 5.4113,-11.6319 1.8757,-1.9968 2.1746,-2.781 0.8689,-2.2799 -2.8267,1.0846 -16.0758,-13.705 -16.0758,-17.945 0,-4.2041 4.6366,-8.9482 8.6554,-8.8562 2.3818,0.055 4.9272,2.1261 9.7821,7.9616 3.6094,4.3383 6.5625,8.7293 6.5625,9.7577 0,1.0284 -1.1629,3.3482 -2.5841,5.155 l -2.5843,3.2851 5.7695,-2.473 c 12.4868,-5.3525 23.8817,-15.6971 28.3046,-25.6961 1.3058,-2.9519 4.0981,-6.8175 6.205,-8.5905 5.5629,-4.6807 9.2543,-4.216 12.2911,1.5478 3.03,5.7511 16.5938,12.2672 32.7868,15.7511 3.2344,0.6959 3.3644,0.4812 5.4323,-8.9673 3.7494,-17.1322 9.7631,-27.9531 18.1564,-32.6703 2.746,-1.5434 6.2538,-2.627 7.7952,-2.408 5.6926,0.8087 3.437,12.1615 -2.8101,14.1442 -1.4049,0.4459 -3.6758,3.009 -5.0465,5.6959 -2.545,4.9886 -7.8308,24.9849 -6.8608,25.9547 2.1889,2.1889 50.5288,0.761 52.8509,-1.5611 0.3302,-0.3302 -1.4373,-5.6916 -3.9278,-11.9141 -2.4905,-6.2226 -4.5282,-12.359 -4.5282,-13.6365 0,-5.0154 7.5562,-11.1929 11.0499,-9.0338 1.0518,0.6502 8.6541,18.3472 13.0436,30.364 0.7117,1.9488 1.658,1.8784 12.0167,-0.8938 30.3495,-8.1222 50.1083,-19.9589 55.7014,-33.3688 2.6196,-6.2806 2.4379,-13.369 -0.5616,-21.903 -1.375,-3.9121 -2.5,-8.4544 -2.5,-10.0937 0,-3.4889 7.4456,-11.4809 10.6959,-11.4809 1.2077,0 8.1546,3.3165 15.4375,7.37 23.04,12.8236 46.5565,21.6631 67.1926,25.2568 9.729,1.6942 38.4152,0.7936 46.44,-1.4582 l 5.391,-1.5126 -4.141,-4.3094 c -5.1443,-5.3535 -13.251,-10.2072 -21.5486,-12.9017 -7.4992,-2.4353 -8.8176,-6.0056 -4.3262,-11.7155 2.4878,-3.1626 3.3478,-3.4524 8.7158,-2.9366 9.1876,0.8828 19.4609,6.5973 29.0848,16.1785 4.7117,4.6907 8.983,8.5287 9.4914,8.5287 2.3465,0 18.943,-12.9126 24.7179,-19.2313 15.1625,-16.5901 23.2624,-34.6506 23.3298,-52.0187 0.056,-14.5222 -3.3549,-23.074 -13.0859,-32.805 -6.5683,-6.5683 -19.402,-14.217 -27.3356,-16.2916 -2.063,-0.5395 -2.5594,-1.6803 -2.5594,-5.8825 0,-7.6015 4.6336,-11.8748 14.1682,-13.066 17.6804,-2.209 37.271,-9.9577 50.4767,-19.9648 14.0207,-10.6249 24.8977,-27.2884 29.8567,-45.7401 2.2234,-8.2734 3.3139,-36.3403 1.4833,-38.1783 -0.4895,-0.4914 -7.5208,1.2068 -15.625,3.7739 -8.1042,2.5671 -16.7037,4.749 -19.1099,4.8485 -3.85,0.1591 -4.4207,-0.2137 -4.7561,-3.1071 -0.6953,-5.9984 3.9846,-9.3769 20.3811,-14.7139 8.8337,-2.8754 15.1474,-5.6054 15.3585,-6.641 0.1972,-0.9672 -2.0047,-6.5057 -4.8934,-12.3079 -6.7711,-13.6007 -20.3149,-27.6073 -32.4171,-33.525 -12.6314,-6.1763 -26.3748,-8.4456 -40.4079,-6.6717 -6.2646,0.7917 -14.7125,2.5832 -18.7734,3.9811 -12.0387,4.1439 -15.7417,3.0798 -15.7417,-4.5241 0,-3.2119 1.3122,-5.3776 6.25,-10.3155 5.4699,-5.4698 6.25,-6.8904 6.25,-11.381 0,-5.6985 -2.2838,-15.9569 -3.7549,-16.866 -0.5211,-0.322 -7.2445,1.4085 -14.9411,3.8456 -15.0859,4.777 -17.554,4.5588 -17.554,-1.5525 0,-4.6977 4.7674,-8.3657 15,-11.5407 5.1562,-1.5999 9.8599,-3.3579 10.4524,-3.9065 1.0402,-0.9633 -4.8604,-10.7308 -10.7269,-17.7568 l -2.8505,-3.4139 -10.0303,6.7507 c -9.5083,6.3996 -21.1086,16.8112 -30.4518,27.3317 -3.1965,3.5993 -5.0179,4.6624 -7.4953,4.375 -2.6525,-0.3077 -3.3447,-1.1215 -3.6534,-4.2952 -0.306,-3.1468 0.8202,-5.3585 5.7357,-11.2652 7.8346,-9.4142 17.2683,-17.9096 28.8073,-25.9416 l 9.1622,-6.3776 -7.2872,-6.557 c -23.5255,-21.1683 -50.4463,-33.1781 -74.1157,-33.0644 -18.6624,0.09 -30.8164,6.0176 -46.7414,22.7973 -7.4865,7.8883 -10.179,9.9491 -12.9987,9.9491 -6.7614,0 -8.1748,-4.6668 -4.543,-15 10.2441,-29.1469 -34.6209,-63.776 -96.3884,-74.3975 -13.4276,-2.3091 -43.125,-3.9543 -43.125,-2.389 0,0.6047 1.4957,4.9121 3.324,9.5717 3.7459,9.5477 3.202,12.8383 -2.7684,16.7502 -4.7971,3.1432 -6.4277,1.4776 -11.8156,-12.0693 -2.8623,-7.1966 -5.4929,-11.9982 -6.7068,-12.2419 -1.0985,-0.2203 -6.646,0.7949 -12.3277,2.2562 -27.7025,7.1243 -48.4626,23.671 -55.4584,44.2025 -2.1464,6.2992 -7.9095,12.0671 -12.0571,12.0671 -3.0074,0 -7.19,-3.3596 -7.19,-5.7753 0,-2.95 -7.4244,-10.173 -12.5748,-12.2337 -12.541,-5.018 -33.1408,-4.7529 -56.8002,0.7307 -49.0648,11.372 -107.8638,46.2734 -119.0231,70.6488 -2.9388,6.419 -3.1095,7.6051 -1.7994,12.5035 2.1715,8.1187 1.7909,10.9946 -1.99,15.0357 -2.8299,3.0248 -4.7955,3.8157 -11.1209,4.4745 -9.2109,0.9595 -18.5206,4.457 -27.2015,10.2192 -7.1239,4.7285 -21.9901,17.807 -21.9901,19.3456 0,0.5441 4.8157,3.3001 10.7017,6.1244 l 10.7017,5.135 -0.3892,4.5841 c -0.2786,3.2817 -1.3713,5.3144 -3.8462,7.1545 l -3.4571,2.5702 -8.4179,-4.1777 c -4.6299,-2.2978 -10.1858,-4.9278 -12.3463,-5.8444 l -3.9283,-1.6665 -4.3859,8.3981 c -4.6153,8.8377 -9.6325,23.5985 -9.6325,28.3394 0,2.7138 0.5065,2.8293 15.9375,3.6343 17.591,0.9177 35.6524,3.0278 40,4.6732 3.8382,1.4528 3.5591,5.2513 -0.7391,10.062 l -3.5518,3.975 -14.8857,-2.0956 c -8.1873,-1.1526 -19.5875,-2.0888 -25.3339,-2.0803 l -10.448,0.015 0.8416,3.3534 c 3.6161,14.4076 22.0866,29.9785 44.1288,37.2011 3.6435,1.194 7.1637,3.2555 7.8963,4.6245 1.9373,3.6198 -2.252,11.1472 -7.6745,13.7898 -3.9312,1.9159 -5.0928,1.9346 -13.6712,0.2209 -11.2983,-2.2573 -31.397,-1.624 -40.6815,1.2816 -13.2541,4.1477 -23.2628,13.5672 -28.4861,26.8091 -2.7279,6.9154 -3.9783,21.33 -2.4537,28.2843 1.0542,4.8077 1.3429,5.0307 10.8039,8.3481 5.3464,1.8746 10.53,4.08 11.5191,4.9009 2.401,1.9927 2.2793,7.4433 -0.2468,11.05 -1.7165,2.4506 -2.8217,2.8157 -6.8755,2.272 l -4.8303,-0.6479 2.4555,3.4485 c 5.2626,7.3907 21.082,16.2157 29.19,16.2841 7.9041,0.066 10.1686,4.455 6.9958,13.5569 -1.0802,3.0985 -0.9518,4.718 0.625,7.8785 1.0915,2.1881 1.9846,5.211 1.9846,6.7175 0,2.9067 8.1442,16.3329 11.655,19.2136 1.8249,1.4975 2.7037,1.154 7.016,-2.7417 5.3347,-4.8197 10.106,-7.5835 17.7431,-10.278 6.124,-2.1608 8.5859,-1.258 8.5859,3.148 0,4.5698 -4.1466,9.6487 -8.6929,10.6473 -2.0142,0.4424 -6.0492,2.5334 -8.9665,4.6468 l -5.3042,3.8422 3.0442,2.5049 c 10.632,8.7479 33.2258,15.331 48.7326,14.1993 10.2112,-0.7454 26.8333,-5.4904 33.4045,-9.536 4.9345,-3.0379 10.9617,-3.3098 12.0235,-0.5424 1.9745,5.1455 0.6422,9.207 -5.3076,16.1794 -16.9624,19.8778 -21.2876,37.5261 -13.9821,57.0518 4.5979,12.2888 19.2022,23.4518 30.7634,23.514 12.1183,0.065 25.2598,-8.6412 34.8497,-23.089 5.2841,-7.9608 8.6748,-10.6335 13.4903,-10.6335 5.3528,0 6.9281,4.5654 4.1158,11.929 -2.5992,6.8062 -1.9237,11.8173 2.348,17.4178 3.0797,4.0376 13.984,10.4449 22.2943,13.0997 6.3186,2.0187 7.2021,5.817 3.6327,15.6177 -6.7806,18.6178 -23.7032,40.4321 -40.7433,52.5206 -9.2333,6.5502 -25.0573,14.5672 -34.7762,17.6186 -4.8496,1.5228 -6.6851,2.6124 -5.625,3.3393 2.7284,1.8707 50.5067,0.1933 60.9488,-2.1398 z m -74.375,20.4751 c -23.8107,-2.8874 -55.966,-11.2066 -70.2157,-18.1662 -3.9037,-1.9067 -4.8569,-3.0924 -5.1792,-6.4419 -0.3176,-3.302 0.4527,-4.9526 3.9375,-8.4375 4.9669,-4.9669 5.4798,-5.0298 18.9574,-2.3253 14.603,2.9304 40.6074,2.7202 55.625,-0.4496 32.1704,-6.7903 57.2846,-23.4874 69.7298,-46.3594 l 4.1046,-7.5437 -5.694,-2.5188 c -8.874,-3.9253 -16.845,-10.238 -20.2376,-16.0271 l -3.1004,-5.2902 -6.5206,4.9231 c -10.4759,7.9092 -17.3369,10.4092 -30.1568,10.9879 -9.276,0.4187 -12.4885,0.041 -18.3089,-2.1524 -13.2351,-4.9879 -24.0325,-17.3686 -28.7807,-33.0013 -2.1438,-7.0578 -2.4946,-10.7268 -1.9738,-20.642 0.5889,-11.2095 2.0984,-17.1132 7.849,-30.697 0.8799,-2.0787 0.619,-2.2735 -2.0122,-1.502 -6.2463,1.8317 -28.2679,2.3383 -36.8292,0.8474 -10.7398,-1.8702 -24.6637,-7.2001 -32.3352,-12.3775 l -5.831,-3.9354 -2.4978,5.8269 c -1.3737,3.2049 -3.6633,10.3725 -5.0881,15.928 -3.0701,11.9715 -5.0911,14.7415 -10.3782,14.2241 -3.0753,-0.3008 -3.8879,-1.0122 -4.1962,-3.6733 -0.5437,-4.6944 2.9574,-17.4982 8.0487,-29.4337 l 4.3654,-10.234 -5.6172,-6.8963 c -3.0895,-3.793 -7.1623,-9.5939 -9.0508,-12.891 -1.8885,-3.2972 -3.5605,-6.1748 -3.7154,-6.3948 -0.155,-0.22 -4.0821,0.7738 -8.727,2.2084 -10.0411,3.1014 -13.0464,2.5534 -13.0464,-2.3791 0,-5.145 3.466,-8.5343 11.25,-11.0008 6.547,-2.0746 6.8933,-2.397 7.2565,-6.7572 0.3791,-4.5515 0.341,-4.5905 -6.4029,-6.551 -9.256,-2.6908 -21.2582,-10.9815 -27.0886,-18.7118 -4.7881,-6.3484 -12.5121,-21.2634 -12.514,-24.1644 -5e-4,-0.8282 -2.0399,-1.8883 -4.5319,-2.3558 -8.1134,-1.522 -45.3564,0.4242 -61.0941,3.1927 -18.918,3.328 -22.3636,3.103 -22.8933,-1.4946 -0.6213,-5.3949 4.0995,-9.1206 13.6683,-10.7869 22.5111,-3.9202 34.6917,-5.3145 52.6625,-6.0282 l 19.6875,-0.782 0,-8.2945 c 0,-28.3425 21.1572,-57.834 47.0492,-65.583 4.0292,-1.2059 8.0733,-2.4268 8.9869,-2.7133 1.1458,-0.3591 0.3381,-2.0662 -2.6032,-5.5026 -6.3599,-7.4301 -10.8389,-16.4474 -12.7815,-25.7325 -0.9538,-4.5583 -2.0348,-8.5885 -2.4024,-8.956 -0.3675,-0.3676 -14.0459,0.26 -30.3961,1.3947 -16.3504,1.1348 -37.1431,2.0542 -46.2062,2.043 -15.2301,-0.019 -16.5368,-0.2047 -17.2518,-2.4576 -1.076,-3.39 2.5784,-9.9091 5.9404,-10.5972 1.5343,-0.3142 13.4772,-0.9508 26.5397,-1.4148 13.0625,-0.4641 32.4187,-1.4809 43.0139,-2.2596 l 19.264,-1.4159 2.3897,-10.2845 c 1.4158,-6.0929 5.0938,-15.6789 9.0242,-23.5194 l 6.6342,-13.2348 -7.038,-3.118 c -25.2645,-11.1928 -47.2519,-18.5773 -52.3896,-17.5952 -4.8931,0.9354 -6.5234,-0.2301 -6.5234,-4.664 0,-2.6946 1.0509,-5.0106 3.182,-7.0126 6.4164,-6.0279 19.9751,-3.1815 54.8856,11.5219 l 17.4428,7.3465 11.2689,-10.9699 c 6.1978,-6.0335 11.4601,-11.0501 11.6937,-11.1481 0.2338,-0.097 -0.5429,-3.473 -1.7257,-7.5 -3,-10.2128 -3.0814,-28.8495 -0.1458,-33.3299 2.4623,-3.758 7.8559,-5.6596 9.9924,-3.5231 0.8077,0.8077 1.472,6.085 1.5541,12.346 0.1408,10.7519 2.4425,21.5601 4.5914,21.5601 0.6016,0 3.7469,-1.3295 6.9896,-2.9544 3.2429,-1.6248 8.0054,-3.6372 10.5835,-4.4718 4.3246,-1.4002 4.6875,-1.8842 4.6875,-6.2528 0,-2.9279 1.7404,-8.2581 4.5598,-13.9655 5.8358,-11.8137 24.4801,-30.6877 42.0358,-42.5537 l 12.2205,-8.26 -9.7205,-2.5667 c -12.4417,-3.2851 -24.203,-4.9426 -45.712,-6.4421 -9.4827,-0.6611 -17.7796,-1.5347 -18.4375,-1.9412 -1.8902,-1.1684 -1.3967,-4.6224 1.2902,-9.0293 2.3353,-3.8302 2.8888,-4.0617 9.6828,-4.0496 11.0892,0.02 36.0197,2.3381 47.8309,4.4476 11.9845,2.1405 16.539,3.3741 25.912,7.0179 l 6.5371,2.5414 14.0879,-6.2328 c 7.7484,-3.428 17.7443,-7.5171 22.213,-9.0871 4.4688,-1.5699 8.6141,-3.2806 9.2119,-3.8015 2.2322,-1.9453 -17.9199,-33.3901 -26.8984,-41.9713 -2.9911,-2.8588 -7.681,-6.2347 -10.4217,-7.502 -5.6745,-2.6236 -6.7489,-5.4242 -3.8049,-9.9173 3.5525,-5.4218 7.6372,-6.0584 15.1832,-2.3665 10.3788,5.0778 23.0798,20.9588 36.976,46.2337 6.384,11.6114 3.758,10.9525 29.7345,7.46 22.1642,-2.9799 35.1144,-1.633 48.086,5.001 6.8728,3.515 8.8909,4.089 9.6439,2.7434 2.3446,-4.1894 11.6031,-14.4213 17.491,-19.3296 12.049,-10.0448 33.9108,-21.0629 46.465,-23.4182 2.5209,-0.4728 4.5835,-1.429 4.5835,-2.1245 0,-2.4677 -11.2722,-17.0147 -16.2229,-20.9356 -3.2348,-2.5621 -5.0271,-4.9975 -5.0271,-6.8311 0,-3.5629 5.7219,-9.4404 9.1905,-9.4404 3.9686,0 19.5613,16.7351 24.4579,26.25 l 4.1814,8.125 25.2496,0 25.2495,0 3.0231,-4.8025 c 3.9111,-6.2132 11.389,-11.62 26.292,-19.0096 13.4245,-6.6566 16.106,-6.685 16.106,-0.1709 0,5.2253 -1.6517,6.7225 -14.4904,13.1353 -9.6267,4.8083 -18.0096,10.6651 -18.0096,12.5825 0,0.4881 5.7656,2.18 12.8125,3.7598 47.058,10.5502 86.093,39.0868 90.412,66.0957 l 0.8065,5.0436 7.672,-4.8596 c 4.2196,-2.6728 11.824,-6.377 16.8988,-8.2318 l 9.2266,-3.3721 -0.818,-9.4603 c -0.45,-5.203 -1.1668,-15.4101 -1.5929,-22.6825 -0.7459,-12.7283 -0.666,-13.3237 2.1395,-15.9375 3.076,-2.8656 7.9945,-3.6066 9.3528,-1.409 0.4438,0.7184 1.6072,10.4215 2.5852,21.5625 2.4494,27.9044 1.3055,25.3964 12.0504,26.4197 27.9934,2.6658 55.5364,16.153 78.9227,38.6462 l 9.8365,9.4609 4.7615,-2.4291 c 16.1912,-8.2602 59.8329,-23.8765 83.8928,-30.0197 8.971,-2.2905 10.3939,-2.3796 12.0204,-0.7531 1.9982,1.9983 1.4671,6.2249 -1.2375,9.8465 -0.9737,1.3038 -8.5785,4.1324 -19.1168,7.1104 -22.0167,6.2219 -44.057,13.794 -59.375,20.3991 -6.5312,2.8164 -12.1009,5.2989 -12.377,5.5168 -0.2761,0.2177 1.4935,3.4015 3.9324,7.0747 2.439,3.6733 5.9197,9.6096 7.735,13.192 3.292,6.4965 3.3125,6.5108 7.9426,5.5399 2.5531,-0.5354 7.4545,-0.9789 10.892,-0.9856 5.8818,-0.012 6.2731,0.1888 6.6433,3.4013 0.5711,4.9579 -4.1487,9.1472 -11.557,10.2582 l -6.0064,0.9006 0.7589,4.5889 c 0.4172,2.5237 0.7647,8.245 0.7721,12.7137 l 0.014,8.125 17.8128,0 c 14.9329,0 19.2276,0.4483 26.5629,2.7724 21.2601,6.7362 38.8142,21.999 49.2293,42.8034 3.4553,6.9021 6.6602,14.563 7.1219,17.0241 0.4616,2.4611 1.5363,4.7421 2.388,5.069 0.8516,0.3267 9.0775,-0.8216 18.2796,-2.5521 27.485,-5.1685 48.3545,-8.2599 50.4174,-7.4683 2.6185,1.0048 2.4734,7.0486 -0.2487,10.3626 -1.8357,2.2348 -6.309,3.3627 -27.8125,7.0125 -14.0938,2.3923 -28.508,4.9378 -32.0318,5.6568 l -6.4067,1.3072 -0.6473,17.7562 c -0.6631,18.1943 -2.2371,26.3683 -7.6656,39.8078 l -2.9104,7.2054 2.9389,2.761 c 7.2439,6.8051 25.4729,38.0298 25.4729,43.6326 0,3.4807 -5.4395,8.7244 -9.0499,8.7244 -2.3549,0 -3.7071,-1.6179 -7.0523,-8.4375 -4.2321,-8.6277 -18.8213,-31.563 -20.0767,-31.5619 -0.3829,4e-4 -4.81,4.4988 -9.8381,9.9964 -10.0325,10.9693 -26.218,22.484 -39.597,28.1703 l -8.0802,3.434 6.7304,7.2696 c 11.1688,12.0635 15.6291,23.9706 15.6833,41.8666 0.091,30.1195 -21.5897,67.659 -50.1369,86.8109 -4.3768,2.9362 -8.1351,5.4759 -8.352,5.6436 -0.2169,0.1678 1.2859,3.6334 3.3394,7.7014 2.0535,4.068 5.7748,13.2609 8.2698,20.4285 4.9545,14.2339 4.8225,16.7122 -1.0967,20.5906 -5.3453,3.5024 -7.263,1.6254 -11.8446,-11.5932 -2.3245,-6.7069 -6.1569,-16.0475 -8.5163,-20.757 -3.7506,-7.4865 -4.6334,-8.462 -7.0235,-7.7619 -1.5036,0.4404 -7.4117,2.0435 -13.1295,3.5626 -9.1235,2.424 -10.3251,3.0679 -9.8197,5.262 0.3167,1.375 1.7555,6.9304 3.1973,12.3451 1.4419,5.4149 3.3013,15.9584 4.132,23.43 1.445,12.995 1.3995,13.7343 -1.0502,17.0298 -1.6474,2.2162 -3.9505,3.5837 -6.4569,3.8336 -4.4902,0.4478 -4.3504,0.811 -6.4022,-16.6385 -1.5894,-13.5171 -4.4378,-25.2471 -8.2252,-33.8716 l -2.798,-6.3715 -11.6092,-0.8764 c -22.2458,-1.6794 -39.2634,-6.0234 -62.2703,-15.8952 -7.8321,-3.3607 -14.6557,-6.1103 -15.1636,-6.1103 -0.5079,0 -1.2694,2.524 -1.6922,5.6089 -1.6704,12.1866 -12.1774,27.3554 -25.1255,36.2731 -6.6135,4.5549 -6.9455,5.0411 -6.9455,10.1723 0,7.0162 3.7617,16.7805 15.4557,40.1176 5.2494,10.4757 9.5443,19.9409 9.5443,21.0336 0,2.7268 -6.7864,9.2945 -9.604,9.2945 -1.7144,0 -4.8894,-5.1474 -12.529,-20.3125 -10.8747,-21.5867 -14.6935,-31.5097 -16.0437,-41.6872 l -0.8358,-6.3015 -10.1813,4.1187 c -5.5997,2.2653 -13.1581,4.7904 -16.7966,5.6113 -3.7168,0.8387 -6.3981,2.085 -6.1195,2.8445 4.1364,11.2776 4.8231,14.8677 3.3651,17.5918 -0.8417,1.5729 -2.8077,3.5433 -4.3689,4.3788 -5.0708,2.7139 -7.2671,0.7181 -11.0678,-10.0573 -3.4022,-9.6451 -3.7008,-10.0525 -6.875,-9.381 -7.861,1.6629 -28.2832,3.1527 -43.4917,3.1728 l -16.423,0.021 -0.8066,16.5625 c -1.1932,24.5022 -1.8311,28.41 -5.1855,31.7644 -3.4611,3.4611 -7.5187,3.7916 -9.0319,0.7356 -0.9675,-1.9541 -0.3002,-20.895 1.4955,-42.453 l 0.6468,-7.7655 -4.636,-0.7592 c -9.563,-1.5659 -27.3233,-7.0833 -32.4426,-10.0784 l -5.3064,-3.1046 -8.5001,8.4866 c -5.1704,5.1621 -12.432,10.6838 -18.537,14.0954 l -10.0369,5.6086 -3.3464,9.4473 c -5.2397,14.793 -14.6714,29.0076 -28.234,42.5523 -21.6947,21.6664 -47.2265,34.1198 -83.2327,40.5979 -13.5328,2.4349 -53.1684,3.4261 -67.5,1.6881 z"
       inkscape:connector-curvature="0" />
  </g>
</svg>
