<?xml version="1.0" encoding="UTF-8" standalone="no"?>
<!-- Created with Inkscape (http://www.inkscape.org/) -->

<svg
   xmlns:dc="http://purl.org/dc/elements/1.1/"
   xmlns:cc="http://creativecommons.org/ns#"
   xmlns:rdf="http://www.w3.org/1999/02/22-rdf-syntax-ns#"
   xmlns:svg="http://www.w3.org/2000/svg"
   xmlns="http://www.w3.org/2000/svg"
   xmlns:sodipodi="http://sodipodi.sourceforge.net/DTD/sodipodi-0.dtd"
   xmlns:inkscape="http://www.inkscape.org/namespaces/inkscape"
   id="svg3371"
   version="1.1"
   inkscape:version="0.91 r13725"
   width="774.77271"
   height="1386.1635"
   viewBox="0 0 774.77271 1386.1634"
   sodipodi:docname="talk-cloud-08.svg">
  <metadata
     id="metadata3377">
    <rdf:RDF>
      <cc:Work
         rdf:about="">
        <dc:format>image/svg+xml</dc:format>
        <dc:type
           rdf:resource="http://purl.org/dc/dcmitype/StillImage" />
        <dc:title />
      </cc:Work>
    </rdf:RDF>
  </metadata>
  <defs
     id="defs3375" />
  <sodipodi:namedview
     pagecolor="#ffffff"
     bordercolor="#666666"
     borderopacity="1"
     objecttolerance="10"
     gridtolerance="10"
     guidetolerance="10"
     inkscape:pageopacity="0"
     inkscape:pageshadow="2"
     inkscape:window-width="1440"
     inkscape:window-height="856"
     id="namedview3373"
     showgrid="false"
     inkscape:zoom="0.24544081"
     inkscape:cx="-1355.7638"
     inkscape:cy="176.55864"
     inkscape:window-x="0"
     inkscape:window-y="0"
     inkscape:window-maximized="0"
     inkscape:current-layer="layer10"
     fit-margin-top="0"
     fit-margin-left="0"
     fit-margin-right="0"
     fit-margin-bottom="0" />
  <g
     inkscape:groupmode="layer"
     id="layer10"
     inkscape:label="cloud 08"
     transform="translate(-961.2595,97.449614)">
    <path
       transform="translate(-3168.9678,-216.25)"
       id="path3443"
       style="display:inline;fill:#B2E9B5"
       d="m 4619.5439,1404.2909 c -9.1664,-20.5788 -20.1261,-44.8818 -24.355,-54.0066 -4.2289,-9.125 -7.6889,-17.3954 -7.6889,-18.3788 0,-3.5936 3.0744,-8.3883 6.5216,-10.171 4.3681,-2.2587 36.2808,-6.4964 57.0903,-7.5809 18.0448,-0.9403 18.0388,-1.01 -0.8517,-9.9653 -6.3881,-3.0284 -11.9665,-6.4229 -12.3965,-7.5433 -1.0417,-2.7147 2.0649,-8.0332 5.9742,-10.2275 2.9263,-1.6425 4.0182,-1.3529 15.2832,4.0538 6.6725,3.2025 17.5693,9.5093 24.2151,14.0151 l 12.0833,8.1925 10.7277,-1.4238 c 15.878,-2.1072 22.7885,-5.9497 29.2335,-16.2551 l 1.9544,-3.125 -12.73,-9.0319 c -23.281,-16.5175 -30.8594,-23.0476 -30.8154,-26.5528 0.046,-3.719 1.9833,-6.5449 5.9237,-8.6439 3.3966,-1.8094 1.3053,-3.0424 24.4371,14.409 13.6919,10.3295 19.1111,13.773 19.7837,12.571 3.2332,-5.7773 6.2985,-21.686 6.913,-35.8764 l 0.6765,-15.625 -5.1875,-3.125 c -4.6758,-2.8168 -5.1516,-3.5549 -4.8243,-7.4835 0.2807,-3.3704 1.2858,-4.9289 4.4336,-6.875 3.9174,-2.4217 4.0437,-2.7518 3.3579,-8.7665 -4.2652,-37.404 -21.5477,-104.8184 -37.6524,-146.8717 -16.3559,-42.7091 -31.4984,-63.74421 -53.526,-74.35562 -22.5236,-10.85035 -50.0093,-10.82064 -104.3331,0.11275 -24.6875,4.96871 -27.5419,4.74628 -27.5419,-2.1462 0,-6.22323 32.6659,-63.03172 38.4434,-66.85585 2.9282,-1.93832 7.4651,-2.40833 30.9316,-3.20452 40.3092,-1.36763 101.875,-6.7369 101.875,-8.88471 0,-0.62032 -2.8125,-5.69802 -6.25,-11.28377 -7.1154,-11.56209 -7.7511,-15.74797 -3.0984,-20.40069 5.106,-5.10595 7.7969,-3.6675 14.2929,7.64026 3.1596,5.5 7.6289,12.735 9.9316,16.07778 l 4.187,6.07776 6.4059,-0.80598 c 13.645,-1.71676 47.031,-8.55838 47.031,-9.63781 0,-0.62519 -2.4576,-6.04734 -5.4614,-12.04922 -7.546,-15.07804 -11.258,-25.74727 -10.2941,-29.58784 0.9944,-3.96144 7.3639,-7.51484 10.4806,-5.84681 1.2114,0.64831 3.2526,4.18101 4.536,7.85043 2.6429,7.55612 13.6501,30.40908 16.434,34.1198 1.8073,2.4089 2.0361,2.38272 14.2914,-1.63425 6.85,-2.24531 12.7366,-4.53857 13.0812,-5.09616 0.3445,-0.55757 -1.8936,-5.43602 -4.9737,-10.84099 -6.2318,-10.93537 -12.1983,-24.61655 -14.5183,-33.29072 -1.3237,-4.94966 -1.2452,-6.14111 0.5893,-8.94098 2.5726,-3.92631 7.8889,-5.56507 10.12,-3.11957 0.8654,0.94851 2.8596,5.38081 4.4316,9.84956 3.3989,9.6623 9.995,23.08324 15.8494,32.24836 l 4.2308,6.62337 5.5027,-3.95175 c 3.0265,-2.17345 6.9393,-5.45122 8.6951,-7.28392 l 3.1925,-3.33217 -5.0898,-7.46445 c -6.9802,-10.23658 -13.5973,-23.61463 -13.5973,-27.49 0,-3.83763 5.1142,-9.34939 8.6752,-9.34939 1.8597,0 3.5914,2.08511 6.4735,7.7946 7.0214,13.90945 13.8295,23.84186 15.0757,21.99427 5.9671,-8.84676 12.4214,-27.25111 16.3542,-46.63433 2.5203,-12.4209 2.7959,-17.41535 2.7945,-50.65454 0,-37.42376 -0.5627,-45.73085 -6.3757,-94.375 -1.7253,-14.4375 -4.1677,-35.98406 -5.4275,-47.88125 -1.2599,-11.89717 -2.5238,-21.86433 -2.8087,-22.14921 -0.8596,-0.8596 -24.1971,-4.10177 -44.1362,-6.13164 -32.563,-3.31501 -58.7228,-4.45111 -102.6293,-4.45709 -55.4695,-0.008 -92.5737,1.7883 -157.2187,7.60946 -15.7289,1.41635 -29.7991,2.27372 -31.2673,1.90524 -2.9586,-0.74255 -13.8525,-14.82951 -40.6061,-52.50786 -19.3871,-27.30375 -20.1356,-29.19536 -14.1866,-35.85344 3.2381,-3.6241 4.3726,-3.99045 17.1875,-5.55025 22.1899,-2.70092 49.013,-4.35896 70.5172,-4.35896 11.043,0 20.0783,-0.29243 20.0783,-0.64984 0,-0.35741 -1.4063,-4.11063 -3.125,-8.34051 -4.9491,-12.17991 -3.828,-17.91881 3.9637,-20.2897 3.7345,-1.13633 4.784,0.37075 10.8148,15.53005 l 5.2215,13.125 19.1237,1.08456 c 10.5182,0.5965 19.3623,0.84613 19.6537,0.55471 0.2913,-0.29141 -0.1188,-2.74821 -0.9113,-5.45956 -0.7926,-2.71134 -1.4805,-10.57884 -1.5286,-17.48332 -0.07,-9.9894 0.3625,-13.24075 2.1157,-15.91765 2.4575,-3.75202 7.87,-5.70553 9.9753,-3.6003 0.7829,0.7829 1.4679,6.87961 1.5979,14.22098 0.1785,10.0874 0.874,14.59764 3.2343,20.97558 l 3.0069,8.125 8.7411,0.97842 c 4.8078,0.53813 11.8143,0.81938 15.57,0.625 6.6873,-0.3461 6.8493,-0.44411 7.8168,-4.72842 0.5435,-2.40625 0.6351,-10.1777 0.2039,-17.26989 -0.7801,-12.82811 -0.7665,-12.91345 2.6496,-16.47911 3.1087,-3.24485 3.7669,-5.69284 6.9505,-25.8551 1.9341,-12.249 6.3319,-37.17715 9.7728,-55.3959 10.7597,-56.97119 11.9946,-67.56597 11.9468,-102.5 -0.038,-27.61209 -0.3123,-31.60881 -2.792,-40.625 -4.7003,-17.09058 -10.5928,-27.46478 -22.0101,-38.75 -11.6222,-11.4878 -19.9779,-16.77251 -36.1469,-22.86182 -26.145,-9.84632 -40.8479,-11.29613 -130.8451,-12.90226 -157.6989,-2.81437 -254.7214,3.22064 -347.9968,21.64618 l -19.8717,3.92545 0.7605,41.34622 c 0.4183,22.74043 1.7041,57.65873 2.8576,77.59623 1.3169,22.7639 2.136,56.24664 2.2016,90 0.1238,63.8208 -1.4547,82.20427 -11.1915,130.3125 l -0.8222,4.0625 15.5926,0 c 8.576,0 19.8963,-0.36379 25.1563,-0.80843 l 9.5636,-0.80841 0.025,-6.37909 c 0.06,-15.42805 5.2649,-37.11626 9.9182,-41.32752 1.3655,-1.23575 3.8099,-1.9452 5.884,-1.70775 3.1788,0.36392 3.5326,0.86159 3.3987,4.7812 -0.083,2.40625 -1.0792,7.46875 -2.2154,11.25 -2.3768,7.90926 -3.9981,25.64012 -2.7861,30.46902 l 0.8235,3.28098 20.4126,0 c 11.2269,0 24.7161,-0.36379 29.9761,-0.80843 l 9.5637,-0.80841 0,-17.88276 c 0,-10.44541 0.5772,-19.14979 1.3881,-20.92925 1.7307,-3.79861 6.2799,-6.33304 9.5209,-5.30436 2.312,0.73378 2.4522,1.9571 2.3769,20.73451 -0.056,13.92864 0.3722,20.40686 1.4173,21.45195 1.163,1.163 5.7339,1.1418 20.4748,-0.095 10.4375,-0.87574 19.6638,-1.8557 20.503,-2.17768 1.093,-0.41946 0.1512,-4.55002 -3.3223,-14.57048 -2.6662,-7.69179 -4.8501,-15.174 -4.8532,-16.62713 -0.012,-3.18845 5.7295,-9.23295 8.7618,-9.23295 3.2373,0 4.117,1.67441 9.9142,18.87014 2.9195,8.65982 5.7937,16.53087 6.3873,17.49122 0.906,1.46599 3.8734,1.18163 18.4982,-1.77262 9.5803,-1.93529 20.9321,-4.61214 25.226,-5.94855 8.169,-2.54245 17.666,-2.37146 23.4071,0.42142 1.5537,0.75588 6.2959,7.04188 10.5381,13.96887 4.2421,6.92698 15.2636,23.99523 24.4923,37.92943 18.4906,27.9188 18.6242,28.33559 11.1835,34.86864 -4.0508,3.55658 -4.7817,3.69226 -52.1987,9.68888 -26.4497,3.34498 -48.7271,6.3192 -49.5055,6.60935 -1.8317,0.68291 -2.3567,4.2129 -6.0383,40.60503 -5.0275,49.69367 -6.048,71.67708 -5.2895,113.93567 0.8778,48.90457 4.2521,77.45767 12.9498,109.58252 1.7683,6.53125 3.5702,15.48208 4.0042,19.89073 l 0.789,8.01571 7.5,2.09651 c 15.5187,4.33803 13.91,4.84915 14.8286,-4.7112 0.8104,-8.43349 4.2217,-26.21042 6.9651,-36.29519 1.8408,-6.76666 5.2645,-10.24656 10.0813,-10.24656 3.4018,0 3.748,0.37719 3.7286,4.0625 -0.012,2.23438 -1.1083,8.24771 -2.4366,13.36296 -2.895,11.1486 -7.1303,39.65297 -6.0519,40.73134 1.0229,1.0229 32.5487,6.8122 33.5904,6.16843 0.4493,-0.27772 1.196,-3.75513 1.6591,-7.72758 1.1999,-10.29165 6.949,-35.34559 9.0394,-39.39204 1.8391,-3.55992 6.5157,-5.53153 9.9735,-4.20466 2.4342,0.93411 2.1238,4.13096 -2.3782,24.49905 -1.7475,7.90625 -3.5575,17.52693 -4.022,21.37929 l -0.8446,7.00429 4.8086,0.79293 c 2.6448,0.43612 12.6837,1.16229 22.3087,1.61372 9.6249,0.45142 18.7498,1.28215 20.2776,1.84606 6.0856,2.2464 5.084,6.15557 -6.9343,27.06405 -6.2201,10.82106 -15.789,28.39341 -21.2642,39.04966 -10.6433,20.71461 -12.5369,22.81714 -21.8674,24.27959 -2.8665,0.44929 -26.5867,5.531 -52.7117,11.2927 -71.8045,15.836 -95.7524,19.4314 -129.3674,19.4227 -22.6965,-0.01 -38.4194,-2.2347 -54.3675,-7.7069 l -11.2349,-3.855 -9.3901,2.1421 c -5.1645,1.1782 -11.4294,2.6586 -13.9218,3.2897 l -4.5316,1.1475 -1.9886,12.8063 c -9.5089,61.2357 -3.1524,164.4162 16.0363,260.3063 3.0268,15.125 7.3665,34.8125 9.644,43.75 l 4.1408,16.25 11.2404,-0.4271 c 6.1822,-0.2349 11.6508,-0.8141 12.1527,-1.2873 0.5018,-0.4732 0.3118,-4.4997 -0.4223,-8.948 -0.7342,-4.4481 -1.4259,-15.1188 -1.5374,-23.7126 -0.1781,-13.7375 0.1075,-16.1535 2.3675,-20 2.1474,-3.6556 3.2778,-4.375 6.875,-4.375 l 4.3049,0 0.065,16.875 c 0.06,15.6364 2.1836,35.4331 4.1116,38.3376 0.7852,1.183 63.555,-2.5278 64.8616,-3.8345 0.3029,-0.3028 -3.491,-9.1348 -8.4308,-19.6266 -8.9375,-18.9826 -8.9718,-19.096 -7.018,-23.1934 1.923,-4.0325 6.4896,-6.3963 9.845,-5.0962 0.8609,0.3335 6.2594,10.6599 11.9966,22.9472 5.7372,12.2875 10.8261,22.761 11.3087,23.2747 0.7203,0.7665 47.5761,-2.2998 48.395,-3.167 0.1386,-0.1468 -5.0211,-6.4543 -11.4659,-14.0168 -6.7756,-7.9507 -11.7338,-14.8894 -11.756,-16.4514 -0.04,-2.8508 6.4217,-9.1736 9.3754,-9.1736 0.9469,0 8.9194,8.419 17.7165,18.7089 l 15.995,18.7089 5.625,0.038 c 5.963,0.04 43.8654,-3.404 44.5049,-4.0435 0.2072,-0.2072 -3.2529,-5.2854 -7.689,-11.2848 -4.4363,-5.9995 -8.0659,-11.92 -8.0659,-13.1569 0,-2.783 4.0259,-7.2425 7.5473,-8.3601 3.6192,-1.1487 6.0047,1.2431 17.6911,17.7378 9.5121,13.4258 10.0559,13.9516 13.8931,13.4335 2.1964,-0.2965 9.6185,-1.1365 16.4935,-1.8667 6.875,-0.7302 15.4346,-1.649 19.0215,-2.0417 7.9429,-0.8699 5.8718,-2.151 37.5099,23.2021 26.6685,21.3705 55.6519,46.5223 83.4636,72.4295 9.6224,8.9634 17.629,16.1633 17.7925,15.9996 0.1636,-0.1636 -7.2022,-17.1345 -16.3686,-37.7132 z m 12.3311,65.977 C 4586.2627,1425.098 4551.7649,1394.4354 4510,1361.942 l -15.625,-12.1564 -11.25,0.8737 c -6.1875,0.4803 -11.6807,1.1297 -12.2071,1.443 -0.5264,0.3132 1.3886,3.9135 4.2555,8.0005 4.5752,6.5226 5.0431,7.8028 3.8265,10.473 -1.798,3.9462 -7.013,7.3295 -9.8762,6.4072 -1.2368,-0.3984 -5.8555,-5.839 -10.2636,-12.0902 l -8.0149,-11.3659 -5.1101,0.6994 c -2.8106,0.3846 -13.2664,1.3645 -23.2351,2.1775 -9.9688,0.8131 -18.3089,1.623 -18.5335,1.8 -0.2248,0.1768 2.1659,3.8597 5.3125,8.1841 3.1465,4.3242 5.721,9.1816 5.721,10.794 0,3.5829 -5.2213,9.0681 -8.6316,9.0681 -2.1209,0 -9.8458,-9.123 -21.5152,-25.4091 -0.6586,-0.9191 -53.4127,2.5931 -54.6748,3.6401 -0.2457,0.2038 1.3012,3.5976 3.4375,7.5418 2.1362,3.9441 3.8841,8.1205 3.8841,9.2806 0,3.754 -4.9127,8.6966 -8.6441,8.6966 -3.0789,0 -4.1918,-1.3161 -10.0412,-11.875 -6.4336,-11.6134 -6.6788,-11.8754 -11.1341,-11.8909 -6.0439,-0.021 -64.4259,4.0368 -65.016,4.5189 -0.2532,0.2069 1.5749,4.079 4.0625,8.6046 2.4875,4.5257 4.5229,9.5173 4.5229,11.0925 0,3.5558 -4.8644,8.2999 -8.5103,8.2999 -4.3995,0 -10.9235,-10.5232 -15.7297,-25.3722 -0.5707,-1.7634 -1.6055,-2.0988 -4.8061,-1.558 -2.2434,0.379 -11.9464,0.8277 -21.5621,0.9971 l -17.4832,0.3081 -2.1407,-6.6309 c -7.199,-22.2981 -19.8289,-84.9037 -25.3188,-125.5035 -11.6619,-86.2436 -13.02,-160.0013 -3.9001,-211.8186 2.9639,-16.8406 4.2168,-20.3163 8.1951,-22.7357 4.5343,-2.7574 44.2913,-11.91065 47.9359,-11.03627 1.4822,0.3556 6.443,2.07155 11.024,3.81321 16.001,6.08356 27.0637,7.66556 52.921,7.56746 33.7464,-0.128 57.5071,-3.7291 123.125,-18.66036 16.1562,-3.67634 34.4375,-7.75005 40.625,-9.05268 l 11.25,-2.36842 12.8225,-23.66211 c 15.8456,-29.24085 15.8229,-29.19628 15.193,-29.75509 -0.2835,-0.25158 -6.6205,-0.85321 -14.0821,-1.33698 l -13.5665,-0.87956 0.8992,14.39238 0.8993,14.39237 -3.4528,3.19988 c -4.3365,4.01897 -7.8079,4.09851 -9.2852,0.21277 -0.6247,-1.64291 -1.537,-9.8485 -2.0275,-18.23465 -0.5465,-9.3428 -1.4259,-15.39259 -2.2709,-15.62209 -3.8111,-1.03515 -30.9286,-4.6482 -31.394,-4.18283 -0.2961,0.29608 -0.084,5.57008 0.4704,11.72001 0.5635,6.24601 0.5212,12.61989 -0.096,14.43995 -1.2534,3.69775 -5.7662,6.58282 -9.2484,5.91225 -3.1071,-0.59839 -3.9085,-4.89095 -4.0885,-21.8988 -0.1286,-12.15451 -0.4332,-14.06321 -2.3353,-14.62938 -1.2032,-0.3581 -8.9375,-2.42751 -17.1875,-4.59868 -19.9985,-5.26304 -19.375,-4.83935 -19.375,-13.16753 0,-3.801 -1.9838,-15.01814 -4.4085,-24.92697 -9.7302,-39.76417 -13.5883,-76.55129 -13.4975,-128.69918 0.071,-40.98405 2.101,-72.91016 7.892,-124.13894 3.8608,-34.15305 4.6095,-36.68946 11.6737,-39.55122 3.1651,-1.28221 80.7403,-11.93484 86.9125,-11.93484 0.8861,0 1.4293,-0.72414 1.2069,-1.6092 -0.2223,-0.88506 -8.2791,-13.80765 -17.9041,-28.71685 -15.6025,-24.16831 -17.8645,-27.11125 -20.8618,-27.1408 -1.849,-0.0182 -10.108,1.6142 -18.3532,3.62763 -8.2454,2.01342 -17.5607,4.04603 -20.7008,4.51692 -3.4371,0.51544 -5.7092,1.5077 -5.7092,2.49333 0,0.90043 -1.4809,3.39715 -3.291,5.54826 -4.1627,4.94704 -7.9005,4.62971 -10.459,-0.8879 -1.0313,-2.22398 -2.5247,-3.80903 -3.3187,-3.52233 -0.7941,0.2867 -10.7407,1.49063 -22.1037,2.67538 l -20.6599,2.1541 3.102,8.24322 c 1.706,4.53379 5.3245,12.36455 8.0411,17.40172 5.55,10.29108 6.0722,14.08357 2.4392,17.71652 -3.6152,3.61515 -8.0937,3.18269 -11.1249,-1.07426 -4.1593,-5.84108 -12.525,-23.91944 -15.3463,-33.163 l -2.6285,-8.61228 -11.2672,0.79978 C 4262.1861,524.6401 4248.7541,525 4238.5341,525 l -18.5817,0 0.8092,3.4375 c 0.445,1.89062 2.7058,8.41583 5.0238,14.50044 2.318,6.08462 4.2146,11.80708 4.2146,12.7166 0,3.0175 -6.3616,9.34546 -9.3953,9.34546 -2.4927,0 -3.4762,-1.43464 -6.6811,-9.74513 -2.067,-5.35982 -5.0394,-14.10005 -6.6054,-19.42273 l -2.8471,-9.6776 -35.6111,0.15538 c -43.8999,0.19157 -40.9256,1.73472 -35.8178,-18.5834 6.8399,-27.20795 10.1165,-51.56297 12.0547,-89.60152 1.48,-29.04763 0.9212,-57.37375 -2.6384,-133.75 -3.4445,-73.90618 -4.3754,-120.00178 -2.5569,-126.61951 2.0321,-7.39532 5.5243,-9.17424 27.344,-13.92913 C 4263.681,122.8115 4380.86,115.70212 4560,119.99752 c 72.985,1.75002 94.8177,5.26758 123.125,19.83717 8.8439,4.55192 13.6914,8.19637 22.6649,17.04031 10.1545,10.00776 12.1097,12.69927 17.7076,24.375 17.386,36.26272 17.1619,75.55479 -0.9878,173.125 -3.325,17.875 -8.1036,45.71875 -10.6189,61.875 -2.5154,16.15625 -5.6788,35.14616 -7.0297,42.19979 l -2.4561,12.8248 4.4225,13.21638 c 2.4324,7.26903 4.4225,14.32032 4.4225,15.66953 0,3.41338 -5.5209,8.5895 -9.1616,8.5895 -2.5049,0 -3.4284,-1.10665 -5.3693,-6.43455 l -2.3441,-6.43455 -12.2889,-0.12795 -12.289,-0.12795 5.8335,5.0635 c 4.7986,4.1652 5.759,5.6956 5.4139,8.62639 -0.5726,4.86308 -5.967,8.78932 -10.5095,7.64923 -1.9437,-0.48787 -8.2166,-5.69594 -14.4629,-12.00798 l -11.0302,-11.14646 -18.771,-0.84704 c -10.324,-0.46586 -18.7709,-0.46525 -18.7709,10e-4 0,1.96273 9.5486,19.67712 15.7755,29.2665 3.6985,5.69553 6.7245,11.46116 6.7245,12.8125 0,3.99741 -4.5974,7.65864 -9.0638,7.21818 -3.2757,-0.32303 -4.8976,-1.81738 -9.9155,-9.1362 -3.2995,-4.8125 -9.7286,-16.20312 -14.2868,-25.3125 l -8.2878,-16.5625 -25.1606,-0.004 c -25.6038,-0.004 -64.4391,2.10338 -66.0459,3.58384 -0.7775,0.71644 29.461,43.59298 37.7604,53.54214 l 3.125,3.74618 23.125,-2.20428 c 87.1217,-8.30442 164.1157,-10.3363 230,-6.06971 34.7152,2.24811 85.3449,8.50058 87.6711,10.8269 0.5825,0.58238 1.8765,9.1915 2.8756,19.13135 0.9992,9.93985 3.7904,35.22871 6.2027,56.19746 6.3747,55.41172 7.5252,71.12971 7.503,102.5 -0.034,47.96854 -7.0143,80.06435 -23.2758,107.02615 l -5.148,8.53555 18.9608,18.26696 c 13.2032,12.72021 18.9606,19.10474 18.9606,21.02598 0,3.25787 -5.2298,8.89536 -8.252,8.89536 -2.7688,0 -10.5371,-6.41982 -27.0669,-22.36812 l -13.4667,-12.99313 -5.9198,4.98234 c -3.2557,2.74028 -7.1852,5.76937 -8.7321,6.73131 -1.5469,0.96192 -2.8125,2.09672 -2.8125,2.52176 0,0.42505 4.2025,5.49286 9.3389,11.26183 5.2468,5.89312 9.3546,11.64747 9.375,13.13293 0.051,3.79613 -4.6474,9.23108 -7.9815,9.23108 -2.7595,0 -12.4569,-9.1725 -21.4528,-20.29143 l -3.7754,-4.66642 -13.3562,5.44319 -13.3561,5.4432 8.8488,10.22331 c 7.3328,8.47167 8.7158,10.75349 8.0723,13.31754 -1.0019,3.99183 -5.0603,8.03061 -8.0696,8.03061 -2.5338,0 -14.6268,-12.26574 -21.4223,-21.72828 -2.8775,-4.00695 -4.8055,-5.59605 -6.2376,-5.1415 -4.8959,1.55392 -29.613,6.82555 -38.4673,8.20424 -5.3026,0.82569 -10.1265,1.93904 -10.7195,2.4741 -0.593,0.53508 0.9539,3.63418 3.4375,6.8869 6.124,8.02035 5.7382,12.83078 -1.3312,16.59588 -4.1579,2.2145 -6.0523,0.80492 -14.3323,-10.66458 -7.2676,-10.0673 -7.8413,-10.55894 -11.5467,-9.89479 -16.4544,2.94935 -78.5856,8.30105 -118.2958,10.18948 l -16.8968,0.80352 -9.6104,16.40117 c -5.2858,9.02065 -9.4156,16.59596 -9.1775,16.83402 0.2381,0.23808 6.26,-0.68717 13.3821,-2.0561 37.4039,-7.18931 69.7171,-8.6638 87.7,-4.00185 39.6748,10.28543 62.6658,41.32417 86.3498,116.57509 17.1688,54.5507 25.8557,94.8857 30.1668,140.0708 l 0.8037,8.423 10.8396,7.7202 c 14.4385,10.2833 16.4645,12.2163 16.4645,15.7084 0,3.4021 -5.1383,9.1003 -8.2061,9.1003 -1.1383,0 -5.9365,-2.8125 -10.6627,-6.25 -4.7261,-3.4375 -8.8828,-6.25 -9.2371,-6.25 -0.3542,0 -0.6441,1.9925 -0.6441,4.4277 0,6.1473 -3.0764,20.422 -7.3144,33.9397 l -3.5716,11.392 15.402,9.1828 c 12.054,7.1868 15.4107,9.7719 15.4429,11.893 0.069,4.5455 -1.405,6.8679 -5.4339,8.5619 -4.4429,1.8682 -4.939,1.6755 -21.9525,-8.5268 l -10.5525,-6.3281 -2.5636,3.6664 c -7.4873,10.7083 -24.2163,23.0414 -31.254,23.0414 -3.4704,0 -2.0329,1.7115 9.3561,11.1394 12.1327,10.0433 13.1806,12.2447 8.6007,18.067 -4.5062,5.7287 -7.2925,4.5236 -25.8908,-11.1983 l -17.1434,-14.492 -20,0.8236 c -19.5398,0.8045 -41.4324,2.4343 -53.5378,3.9853 -4.7856,0.6133 -5.9081,1.1911 -5.4132,2.7869 0.7012,2.2607 53.8476,120.8615 61.8957,138.1253 6.5018,13.9473 6.6694,18.2737 0.9303,24.0128 -2.3375,2.3375 -5.2906,4.2339 -6.5625,4.2142 -1.3246,-0.02 -17.2649,-14.8431 -37.3125,-34.6963 z"
       inkscape:connector-curvature="0" />
  </g>
</svg>
