<?xml version="1.0" encoding="UTF-8" standalone="no"?>
<!-- Created with Inkscape (http://www.inkscape.org/) -->

<svg
   xmlns:dc="http://purl.org/dc/elements/1.1/"
   xmlns:cc="http://creativecommons.org/ns#"
   xmlns:rdf="http://www.w3.org/1999/02/22-rdf-syntax-ns#"
   xmlns:svg="http://www.w3.org/2000/svg"
   xmlns="http://www.w3.org/2000/svg"
   xmlns:sodipodi="http://sodipodi.sourceforge.net/DTD/sodipodi-0.dtd"
   xmlns:inkscape="http://www.inkscape.org/namespaces/inkscape"
   id="svg3371"
   version="1.1"
   inkscape:version="0.91 r13725"
   width="962.53424"
   height="652.98767"
   viewBox="0 0 962.53424 652.98767"
   sodipodi:docname="talk-cloud-04.svg">
  <metadata
     id="metadata3377">
    <rdf:RDF>
      <cc:Work
         rdf:about="">
        <dc:format>image/svg+xml</dc:format>
        <dc:type
           rdf:resource="http://purl.org/dc/dcmitype/StillImage" />
        <dc:title />
      </cc:Work>
    </rdf:RDF>
  </metadata>
  <defs
     id="defs3375" />
  <sodipodi:namedview
     pagecolor="#ffffff"
     bordercolor="#666666"
     borderopacity="1"
     objecttolerance="10"
     gridtolerance="10"
     guidetolerance="10"
     inkscape:pageopacity="0"
     inkscape:pageshadow="2"
     inkscape:window-width="1440"
     inkscape:window-height="856"
     id="namedview3373"
     showgrid="false"
     inkscape:zoom="0.24544081"
     inkscape:cx="895.5762"
     inkscape:cy="-13.535885"
     inkscape:window-x="0"
     inkscape:window-y="0"
     inkscape:window-maximized="0"
     inkscape:current-layer="layer6"
     fit-margin-top="0"
     fit-margin-left="0"
     fit-margin-right="0"
     fit-margin-bottom="0" />
  <g
     inkscape:groupmode="layer"
     id="layer6"
     inkscape:label="cloud 04"
     transform="translate(-752.49644,149.45232)">
    <path
       transform="translate(-869.20203,-811.33394)"
       id="path3431"
       style="display:inline;fill:#B2E9B5"
       d="m 1830.1943,1255.4059 c -0.5917,-15.982 0.9111,-23.7388 7.2356,-37.3486 4.7444,-10.2094 17.0699,-29.5244 19.4141,-30.4236 0.7046,-0.2703 4.3229,-3.7859 8.0406,-7.8125 6.7617,-7.3232 9.5505,-8.6361 12.3654,-5.8212 2.3779,2.3779 1.7663,6.1064 -1.8599,11.3389 -2.0357,2.9375 -2.8643,5.1809 -2.1028,5.6922 0.6913,0.4641 5.2321,3.5158 10.0905,6.7814 4.8583,3.2656 9.3826,5.9375 10.0537,5.9375 1.3529,0 2.7909,-9.8268 2.8076,-19.1861 0,-3.3336 0.8638,-7.8583 1.9062,-10.0549 1.7711,-3.7324 7.4768,-8.259 10.4103,-8.259 0.7123,0 5.0595,2.8854 9.6607,6.4119 l 8.3656,6.412 13.6187,-14.4637 c 13.9389,-14.8037 17.3068,-17.1976 20.4844,-14.5604 3.9615,3.2878 1.9905,7.22 -10.3725,20.6928 -6.7031,7.3048 -12.1875,13.923 -12.1875,14.707 0,0.784 3.5525,3.304 7.8945,5.6 l 7.8945,4.1745 7.1055,-6.7269 c 3.908,-3.6999 9.184,-8.2935 11.7242,-10.208 7.3612,-5.5479 12.5228,-3.2516 10.5309,4.6849 -0.3832,1.5269 -4.4162,5.794 -8.962,9.4822 -9.1793,7.4477 -9.1307,7.6628 2.2603,9.999 l 7.1977,1.4762 7.1773,-6.464 c 9.2251,-8.3086 14.4471,-10.9832 17.1171,-8.7673 2.5431,2.1106 2.4551,6.2456 -0.2145,10.0842 l -2.1495,3.0906 3.0208,-1.9835 c 5.8468,-3.8391 10.0282,-16.4139 10.0282,-30.1583 0,-5.1589 0.6015,-6.777 3.6539,-9.8293 5.6947,-5.6948 9.057,-4.937 18.7767,4.2322 4.5979,4.3373 10.4887,9.5098 13.0905,11.4945 4.2872,3.2698 4.8432,3.4078 5.9274,1.4703 0.6581,-1.176 4.6715,-3.8923 8.9186,-6.0362 4.2472,-2.144 11.315,-6.1672 15.7063,-8.9405 8.943,-5.6481 11.7645,-5.3548 12.4324,1.2921 0.474,4.7182 -4.026,8.7153 -18.4853,16.4195 -5.5112,2.9365 -10.0106,5.7217 -9.9986,6.1892 0.029,1.1077 15.3609,10.2323 18.6305,11.0873 2.6451,0.6917 9.9625,-4.0079 22.2707,-14.3036 4.9045,-4.1026 7.4147,-5.3779 10,-5.0806 2.7613,0.3175 3.5344,1.1191 3.864,4.0064 0.3437,3.0095 -0.7643,4.722 -6.6663,10.3032 -3.8933,3.6816 -8.7194,7.663 -10.7247,8.8475 -2.0053,1.1846 -3.6461,2.5498 -3.6461,3.0339 0,0.484 2.8464,1.8254 6.3254,2.9809 5.5489,1.8431 6.5847,1.8779 8.4375,0.2835 15.7537,-13.5567 21.0027,-17.2707 23.9254,-16.9288 3.3991,0.3977 4.5148,3.0239 3.3152,7.8034 -0.3949,1.5733 -3.885,5.3039 -7.756,8.2903 l -7.038,5.4298 3.3573,1.119 c 4.6821,1.5608 15.6833,-0.039 20.5283,-2.9858 6.6753,-4.0594 8.1619,-9.7392 8.8474,-33.8034 0.08,-2.7903 5.7368,-8.1937 9.5916,-9.1612 2.7224,-0.6833 4.5513,0.4914 12.4572,8.0012 5.0965,4.8411 9.739,8.802 10.3168,8.802 2.5012,0 16.0322,-5.2673 22.4233,-8.7289 8.7034,-4.7139 12.4401,-4.8901 13.5076,-0.637 1.2341,4.917 -2.422,8.9821 -12.6137,14.0251 -6.2725,3.1037 -8.9029,5.0289 -8.135,5.9541 0.6241,0.752 4.5015,2.9765 8.6163,4.9432 l 7.4817,3.5759 7.415,-7.531 c 17.1958,-17.4649 26.6453,-22.0858 27.4925,-13.4442 0.3281,3.3467 -0.9325,4.9773 -10.9492,14.1631 -6.2258,5.7095 -11.0292,10.8511 -10.674,11.4259 0.3553,0.5747 4.7432,2.0109 9.7508,3.1914 l 9.105,2.1465 10.92,-8.7615 c 17.0651,-13.6919 24.4402,-16.7051 26.6692,-10.8962 1.4158,3.6893 -1.8541,7.7764 -11.6006,14.4999 l -9.7107,6.6987 4.9343,0.4101 c 6.1799,0.5135 18.3623,-1.7922 24.9344,-4.7192 12.4745,-5.5559 19.375,-18.8034 19.375,-37.1962 0,-10.9234 2.3698,-17.0917 7.6065,-19.7998 4.9633,-2.5666 5.3496,-2.4508 12.2361,3.6653 6.1062,5.4232 6.2444,5.4725 12.21,4.358 3.3187,-0.62 10.4465,-3.198 15.8398,-5.7288 10.5205,-4.937 13.569,-4.7729 14.3917,0.7746 0.5343,3.6023 -6.4675,10.2631 -14.0791,13.3935 -3.1326,1.2884 -5.6977,2.675 -5.7004,3.0813 0,0.4064 2.8172,2.2747 6.266,4.1518 l 6.2705,3.4129 4.667,-2.8374 c 2.5668,-1.5605 8.2664,-5.5382 12.6658,-8.8392 8.7589,-6.5721 14.3741,-7.8406 15.7344,-3.5546 1.2305,3.8768 -1.858,8.1156 -10.6083,14.5595 l -8.125,5.9834 5.625,1.6975 c 3.0938,0.9336 9.5749,2.0198 14.4026,2.4138 7.1818,0.586 9.0844,0.3465 10.4655,-1.3176 2.1227,-2.5576 7.5362,-2.6403 9.3692,-0.1432 1.2378,1.6866 2.1677,1.6872 8.6133,0.01 19.4308,-5.0683 29.2917,-14.8276 35.4403,-35.075 1.7944,-5.9091 2.2209,-11.2532 2.0657,-25.8839 -0.1911,-18.0247 -0.125,-18.5212 2.96,-22.1875 2.0948,-2.4894 4.3089,-3.7502 6.5862,-3.7502 1.8868,0 3.6868,-0.2563 4.0002,-0.5696 0.3133,-0.3133 0.023,-4.5267 -0.6459,-9.3631 -1.155,-8.3568 -1.069,-8.9492 1.7317,-11.9303 3.42,-3.6404 8.1685,-4.0995 9.8205,-0.9495 0.6308,1.2031 1.8265,6.2656 2.6568,11.25 1.708,10.2527 1.747,10.275 12.4104,7.1084 3.9993,-1.1877 6.3598,-2.536 6.018,-3.4375 -4.6152,-12.1751 -6.2422,-19.7258 -4.8901,-22.6934 1.8445,-4.0482 7.1512,-6.6521 9.9539,-4.8843 1.1078,0.6988 3.4823,5.6711 5.2768,11.0495 l 3.2627,9.779 4.5582,-5.3253 c 18.901,-22.0816 4.6866,-60.555 -31.0544,-84.05332 -8.9985,-5.91622 -9.8425,-8.33182 -5.4146,-15.49644 1.861,-3.01115 4.0536,-4.58359 7.8125,-5.6028 2.874,-0.77928 5.987,-1.6386 6.9178,-1.90964 1.0046,-0.29257 1.3687,-1.33544 0.8961,-2.56701 -0.4378,-1.14084 -1.9816,-6.80196 -3.4309,-12.58029 l -2.635,-10.50604 2.4986,-3.34667 c 3.4639,-4.63945 10.3522,-4.77009 11.689,-0.22169 4.8627,16.54351 7.5873,25 8.055,25 0.3077,0 2.8207,-0.90482 5.5847,-2.01072 5.8975,-2.35973 6.612,-5.64195 1.9002,-8.72923 -4.0254,-2.63749 -4.0485,-7.20021 -0.056,-11.19186 5.6876,-5.68756 13.7013,-3.28338 15.2745,4.58249 0.3958,1.97962 1.1438,3.59932 1.662,3.59932 1.6256,0 4.2338,-7.74371 4.1077,-12.1953 -0.3127,-11.03494 -14.1766,-29.3384 -31.686,-41.83285 -17.3419,-12.37484 -46.4729,-24.34532 -66.5477,-27.34566 -12.3059,-1.8392 -15.1605,-3.37069 -15.6485,-8.3953 -0.3139,-3.23143 0.456,-4.91426 3.75,-8.19761 2.2796,-2.27233 4.9286,-4.3894 5.8866,-4.70464 1.3787,-0.4537 1.4439,-1.12963 0.3125,-3.24371 -2.2908,-4.28027 -1.6651,-8.96269 1.6389,-12.26674 5.0288,-5.02881 7.874,-4.07536 11.3598,3.80681 1.6723,3.78125 3.2602,6.875 3.5287,6.875 0.839,0 8.77,-3.64209 12.0433,-5.5306 l 3.125,-1.8029 -4.6875,-1.97502 c -3.8097,-1.60519 -4.6875,-2.62202 -4.6875,-5.43012 0,-1.9003 0.8757,-4.70526 1.9459,-6.23322 2.4968,-3.56453 9.614,-3.72308 15.166,-0.33786 l 3.9868,2.43092 1.4182,-4.29732 c 2.9989,-9.08682 -5.3996,-25.29904 -17.8829,-34.5206 -7.2113,-5.32709 -21.0038,-11.56118 -31.509,-14.24169 -5.2882,-1.34938 -15.9207,-2.52028 -26.875,-2.95964 l -18.125,-0.72695 -0.3857,-3.9829 c -0.8044,-8.30424 1.9449,-10.79825 24.1581,-21.91586 11.3314,-5.67135 20.6026,-10.62966 20.6026,-11.01846 0,-0.38882 -4.536,-3.69942 -10.08,-7.35691 -43.6871,-28.82112 -105.1518,-29.35251 -154.295,-1.33394 -15.421,8.79215 -19.0518,10.24398 -21.8601,8.74102 -3.9501,-2.11405 -3.1384,-7.86106 2.4096,-17.05979 8.0505,-13.34788 8.2653,-21.13856 0.7643,-27.72453 -14.6469,-12.86014 -52.448,-14.77013 -92.5264,-4.67512 -36.1734,9.11143 -60.9175,23.23093 -72.6476,41.45432 -4.6875,7.28226 -9.975,10.293 -14.1514,8.05787 -3.5337,-1.89124 -3.3872,-6.98784 0.5116,-17.79646 7.5793,-21.01156 1.4674,-31.4178 -18.3432,-31.23139 -11.279,0.10613 -24.9599,3.94974 -40.6236,11.41306 -36.5019,17.3921 -62.1662,42.76503 -70.0257,69.23054 -2.0992,7.06905 -7.5955,13.32355 -11.7082,13.32355 -1.865,0 -6.0763,-3.53629 -12.9086,-10.83966 -11.3993,-12.18508 -19.3822,-17.82551 -30.5555,-21.58955 -16.5237,-5.5664 -30.8864,-2.11336 -43.4445,10.44482 -5.5195,5.51944 -8.3519,9.59634 -10.3125,14.84378 -4.4603,11.93699 -4.339,12.11591 6.3593,9.38087 4.9844,-1.27426 10.412,-2.15897 12.0614,-1.96605 9.7836,1.1444 3.7143,14.72579 -6.5809,14.72579 -1.5615,0 -5.7538,0.86554 -9.3161,1.92342 l -6.4769,1.92343 0,5.5364 0,5.53641 6.5625,-0.27234 c 6.5308,-0.27101 6.5644,-0.25303 6.9488,3.71648 0.4599,4.75026 -3.0268,8.8518 -8.4463,9.93569 -1.9837,0.39675 -5.1651,2.34792 -7.0697,4.33593 -4.9191,5.13449 -9.3953,4.7953 -16.2411,-1.2307 -7.5582,-6.65286 -20.9565,-13.46 -31.2708,-15.88725 -27.5276,-6.47808 -61.8146,8.20768 -76.129,32.60753 -1.6134,2.75 -3.2921,6.4596 -3.7307,8.24356 l -0.7973,3.24356 7.8993,-1.65501 c 10.2068,-2.13846 17.8547,-2.14516 19.6207,-0.0171 1.8605,2.24171 -0.4884,9.14672 -3.6952,10.86298 -1.2849,0.6876 -6.46,1.77304 -11.5004,2.4121 -5.0405,0.63907 -10.6696,1.73422 -12.5093,2.43365 -2.9261,1.11248 -3.2588,1.78542 -2.6576,5.37402 1.4976,8.93762 3.3168,16.01557 4.2675,16.60312 0.55,0.33996 6.6913,-1.66519 13.6471,-4.45587 14.0189,-5.62442 17.6015,-5.63895 17.6015,-0.0714 0,5.03459 -3.6656,8.1704 -14.9391,12.77969 -5.5335,2.26245 -10.0609,4.48101 -10.0609,4.93011 0,0.44911 1.6438,3.08578 3.6529,5.85925 l 3.6529,5.04269 10.1877,-3.60514 c 11.4907,-4.06619 15.2585,-4.43882 17.5055,-1.73126 1.241,1.49521 1.2364,2.64376 -0.023,5.68394 -1.7055,4.11745 -4.6075,5.96245 -14.4193,9.16722 -5.3192,1.73733 -6.5675,2.75249 -7.8932,6.4185 -2.3172,6.40826 -5.1391,7.38971 -20.1635,7.01299 -22.2565,-0.55808 -40.9091,5.19311 -55.8726,17.22727 -10.7657,8.65809 -22.0405,25.33629 -24.8175,36.71087 l -0.847,3.46966 7.6905,-4.58125 c 8.8175,-5.25255 16.5743,-6.40209 17.3531,-2.57171 1.0984,5.40205 -0.989,8.29391 -8.8411,12.24796 -13.7592,6.9288 -18.4154,10.7143 -18.4154,14.9722 0,4.8849 2.5208,14.8685 3.7543,14.8685 0.5265,0 5.6469,-4.2394 11.3786,-9.4207 10.8723,-9.8285 14.8878,-11.9058 18.0084,-9.3159 3.9136,3.2481 1.9639,6.6137 -10.8856,18.79 l -12.7445,12.0768 5.432,3.9349 c 2.9876,2.1642 5.8012,3.9349 6.2526,3.9349 0.4514,0 3.6002,-2.5885 6.9975,-5.7521 9.0757,-8.4518 20.4826,-16.7479 23.0275,-16.7479 1.2227,0 2.9174,0.8364 3.7657,1.8587 2.9348,3.5362 0.1883,7.9006 -10.3132,16.3881 l -10.2983,8.3234 15,-0.4726 15,-0.4726 0.3407,4.375 c 0.5183,6.6579 -3.4233,12.0788 -9.9712,13.7133 -20.6625,5.1577 -33.6638,10.9737 -34.5248,15.4441 -0.5555,2.885 6.8708,9.6174 15.8473,14.3663 7.916,4.1878 28.9588,11.8672 29.9105,10.9155 0.3397,-0.3396 -0.1062,-3.2007 -0.9897,-6.3579 -1.4648,-5.2316 -1.386,-6.0379 0.8886,-9.0983 1.576,-2.1204 3.9169,-3.5001 6.3516,-3.7435 5.1478,-0.5147 6.866,2.8497 7.2162,14.13 l 0.2716,8.7445 5.3757,0.9177 c 2.9567,0.5047 5.6214,0.6721 5.9217,0.3718 0.3002,-0.3002 -0.9299,-4.2322 -2.7337,-8.7378 -4.0373,-10.0852 -4.0537,-11.2551 -0.2113,-15.0975 4.2261,-4.2262 9.0781,-4.0617 10.8951,0.3693 0.7754,1.8906 3.0132,7.0163 4.9732,11.3903 1.9599,4.3741 3.5635,9.3616 3.5635,11.0833 0,2.6364 0.4439,3.0115 2.8125,2.3767 1.5469,-0.4145 4.8788,-0.7614 7.4043,-0.7708 l 4.5916,-0.017 -1.8515,-3.7114 c -3.4317,-6.8792 -3.6131,-12.3039 -0.5211,-15.5951 3.1642,-3.3683 6.5637,-4.5843 8.8556,-3.1679 2.2973,1.4198 5.3225,9.8863 5.4623,15.2869 0.07,2.6965 0.7471,4.6875 1.5946,4.6875 2.5144,0 5.4017,3.7784 5.4017,7.0687 0,1.727 -2.8125,7.7102 -6.25,13.2959 -3.4375,5.5858 -6.25,10.5748 -6.25,11.0868 0,0.512 2.752,0.6049 6.1155,0.2066 5.428,-0.6429 6.2083,-0.4325 6.9395,1.8714 1.6502,5.1993 -2.3408,9.7792 -11.0466,12.6763 -9.9972,3.3268 -11.8075,6.9724 -7.5504,15.2049 2.921,5.6485 8.3884,7.3855 21.1782,6.7285 10.3172,-0.5301 11.0832,-0.7722 15.7331,-4.9731 5.0887,-4.5974 8.3306,-5.4661 10.8807,-2.916 2.9419,2.942 1.3873,6.3599 -6.7057,14.7428 -7.7898,8.0688 -8.1629,8.7284 -7.3598,13.0098 l 0.8462,4.51 4.2781,-3.7563 c 2.6979,-2.3686 5.6475,-3.7563 7.9847,-3.7563 3.3507,0 3.7054,0.3901 3.6954,4.0625 -0.013,3.0485 -1.5411,5.85 -6.1411,11.2236 -5.8926,6.8839 -6.0778,7.3312 -4.7815,11.555 l 1.3486,4.3938 7.0211,-6.697 c 7.7459,-7.3883 11.7129,-9.3003 14.499,-6.9881 3.8028,3.156 2.0489,7.367 -6.8608,16.4731 l -8.6759,8.8671 3.9289,5.7425 c 3.0517,4.4604 15.6115,18.8675 16.4482,18.8675 0.09,0 -0.06,-6.0048 -0.3311,-13.3441 z m 46.6807,58.7761 c -21.936,-4.6332 -32.9922,-8.9614 -47.6295,-18.6455 -26.939,-17.823 -47.057,-51.2643 -50.0496,-83.1952 l -0.7763,-8.2837 -9.0169,-0.5787 c -11.7752,-0.7557 -18.7121,-4.4676 -22.8538,-12.2289 -2.6944,-5.049 -2.9533,-6.841 -2.5289,-17.5 0.4161,-10.4502 1.0377,-13.1498 5.1811,-22.5 2.5895,-5.8437 5.0481,-11.4175 5.4635,-12.3862 0.6118,-1.4265 -0.3176,-1.6141 -4.8909,-0.9873 -8.6165,1.181 -33.4106,-1.2502 -49.6233,-4.866 -49.9178,-11.1325 -71.1205,-34.7346 -51.3904,-57.2059 2.24,-2.5512 3.8572,-4.7827 3.5939,-4.9588 -0.2634,-0.1761 -2.653,-1.4228 -5.3104,-2.7705 -2.6573,-1.3477 -7.3279,-4.9641 -10.3793,-8.0365 -24.0772,-24.2437 -18.4632,-73.2503 12.2398,-106.8443 13.6812,-14.96949 33.3974,-26.32314 53.638,-30.8878 l 12.0982,-2.72839 -4.7312,-10.10165 c -13.6526,-29.14945 -7.8213,-61.33658 15.716,-86.74825 25.6715,-27.71581 64.0826,-38.20701 97.5945,-26.65594 6.0462,2.08404 11.4515,3.50584 12.0117,3.15958 0.5604,-0.34628 1.0272,-2.42453 1.0373,-4.61833 0.033,-6.90801 3.6739,-19.85656 8.2759,-29.42452 5.8537,-12.17051 18.9768,-25.55734 30.5337,-31.14728 11.2099,-5.42212 19.4844,-6.97083 33.3651,-6.24478 10.5714,0.55296 12.6982,1.10976 22.1745,5.80546 5.7649,2.85661 13.5475,7.9959 17.2947,11.42062 3.7472,3.42473 7.082,6.22678 7.4106,6.22678 0.3286,0 2.781,-3.76945 5.4497,-8.37655 6.2152,-10.72941 25.0814,-30.45629 39.7013,-41.51246 28.5934,-21.62358 56.3739,-32.83718 82.026,-33.10979 20.0144,-0.2127 30.5474,6.32445 33.8309,20.99669 0.8617,3.85116 1.7305,7.00211 1.9303,7.00211 0.1999,0 2.805,-1.6478 5.7892,-3.66178 13.7565,-9.28411 37.3663,-19.15868 58.2208,-24.3502 21.4885,-5.34933 29.9809,-6.34937 53.9788,-6.35632 20.6727,-0.006 24.1191,0.30084 32.5,2.89341 12.4982,3.86629 21.4607,9.8814 25.8287,17.33484 2.9412,5.01852 3.4768,7.33544 3.4768,15.03636 0,5.00703 0.033,9.10369 0.073,9.10369 0.04,0 4.8369,-2.01217 10.6597,-4.47151 14.5964,-6.16492 35.2588,-11.26408 53.0164,-13.08368 44.5714,-4.56716 86.1875,8.22249 115.266,35.42401 6.7844,6.34644 7.9296,8.0429 7.9296,11.74565 0,6.00715 -4.9638,10.58774 -15.1455,13.97595 -4.5315,1.508 -9.2582,3.487 -10.5037,4.39777 -2.0536,1.5016 -1.8085,1.73638 2.6297,2.51922 9.5982,1.69291 23.9023,7.1129 33.3172,12.62411 12.5183,7.32799 21.5581,16.4876 26.4406,26.79129 3.3416,7.0517 3.8867,9.60484 3.8867,18.20219 0,8.67526 -0.5345,11.12852 -4.0348,18.51881 -4.2192,8.90788 -14.5573,20.34438 -21.7553,24.06656 -2.0995,1.08569 -3.6242,2.14298 -3.3885,2.34954 0.2358,0.20656 5.7724,2.47224 12.3036,5.03484 34.2797,13.44989 60.1232,33.53462 70.7082,54.95209 4.2201,8.53875 4.7393,10.62755 4.7738,19.20448 0.053,12.95128 -4.1661,22.42065 -14.2885,32.07587 -6.6657,6.35797 -22.0428,15.21895 -30.0398,17.3102 -2.6354,0.68917 -2.2234,1.39158 5.8175,9.9175 16.09,17.06041 23.2421,33.28091 23.29,52.82011 0.061,25.1777 -11.8559,44.5261 -35.2612,57.2474 -8.7025,4.7299 -20.9168,8.8621 -30.399,10.284 l -5.851,0.8775 -0.012,8.9205 c -0.033,30.6581 -12.1178,54.6643 -34.9483,69.4204 -24.756,16.0006 -63.1019,15.8276 -96.9172,-0.4372 -6.1875,-2.9761 -14.3168,-7.3906 -18.0652,-9.81 l -6.8154,-4.3989 -2.6437,8.3386 c -8.74,27.5663 -31.4883,42.6135 -64.4994,42.6642 -30.6144,0.047 -63.2945,-10.9649 -89.3671,-30.1131 l -6.3908,-4.6936 -1.3961,4.6596 c -5.0615,16.9048 -23.1199,28.9156 -43.4716,28.9156 -24.2368,0 -61.0413,-15.6862 -90.4805,-38.5631 l -7.9955,-6.2133 -4.0838,8.4427 c -14.5524,30.0849 -51.301,35.5271 -93.878,13.9028 -6.6879,-3.3967 -14.6908,-7.8938 -17.7846,-9.9936 l -5.625,-3.8179 -0.828,5.9337 c -0.4554,3.2635 -0.8772,8.7617 -0.9375,12.2181 -0.1593,9.1417 -4.9972,15.4758 -11.8779,15.5509 -3.7663,0.041 -17.4714,-6.8987 -29.4816,-14.9284 -3.7812,-2.5281 -7.5557,-4.9951 -8.3876,-5.4822 -2.0753,-1.215 -8.4688,10.1077 -11.7894,20.8787 -7.2184,23.4141 3.0346,45.8349 25.9334,56.7093 8.2912,3.9376 20.3521,6.9291 34.6223,8.5876 7.3817,0.858 9.7058,4.2853 7.1271,10.5107 -3.1802,7.6776 -6.1217,8.7805 -22.9869,8.619 -8.3291,-0.08 -16.2689,-0.3826 -17.6439,-0.673 z"
       inkscape:connector-curvature="0" />
  </g>
</svg>
