<?xml version="1.0" encoding="UTF-8" standalone="no"?>
<!-- Created with Inkscape (http://www.inkscape.org/) -->

<svg
   xmlns:dc="http://purl.org/dc/elements/1.1/"
   xmlns:cc="http://creativecommons.org/ns#"
   xmlns:rdf="http://www.w3.org/1999/02/22-rdf-syntax-ns#"
   xmlns:svg="http://www.w3.org/2000/svg"
   xmlns="http://www.w3.org/2000/svg"
   xmlns:sodipodi="http://sodipodi.sourceforge.net/DTD/sodipodi-0.dtd"
   xmlns:inkscape="http://www.inkscape.org/namespaces/inkscape"
   id="svg3371"
   version="1.1"
   inkscape:version="0.91 r13725"
   width="721.14606"
   height="525.49268"
   viewBox="0 0 721.14606 525.49266"
   sodipodi:docname="talk-cloud-15.svg">
  <metadata
     id="metadata3377">
    <rdf:RDF>
      <cc:Work
         rdf:about="">
        <dc:format>image/svg+xml</dc:format>
        <dc:type
           rdf:resource="http://purl.org/dc/dcmitype/StillImage" />
        <dc:title />
      </cc:Work>
    </rdf:RDF>
  </metadata>
  <defs
     id="defs3375" />
  <sodipodi:namedview
     pagecolor="#ffffff"
     bordercolor="#666666"
     borderopacity="1"
     objecttolerance="10"
     gridtolerance="10"
     guidetolerance="10"
     inkscape:pageopacity="0"
     inkscape:pageshadow="2"
     inkscape:window-width="1440"
     inkscape:window-height="856"
     id="namedview3373"
     showgrid="false"
     inkscape:zoom="0.24544081"
     inkscape:cx="-1447.5637"
     inkscape:cy="366.46423"
     inkscape:window-x="0"
     inkscape:window-y="0"
     inkscape:window-maximized="0"
     inkscape:current-layer="layer17"
     fit-margin-top="0"
     fit-margin-left="0"
     fit-margin-right="0"
     fit-margin-bottom="0" />
  <g
     inkscape:groupmode="layer"
     id="layer17"
     inkscape:label="cloud 15"
     transform="translate(-1403.0054,-304.47745)">
    <path
       transform="translate(-2786.4274,-2286.25)"
       id="path3661"
       style="display:inline;fill:#B2E9B5"
       d="m 4257.0688,2791.4641 c -4.7797,-5.2813 -1.4045,-11.3405 11.4873,-20.6227 23.0244,-16.5778 44.9538,-27.3959 50.0284,-24.68 1.7857,0.9557 2.6655,2.6303 2.6655,5.0737 0,7.1394 -2.2479,9.5133 -14.7879,15.6165 -10.7872,5.2503 -21.4056,11.7643 -37.5877,23.0591 -6.3323,4.4198 -8.9053,4.7583 -11.8057,1.5534 z m 588.7248,22.1952 c -5.1967,-4.0878 -4.1586,-12.5716 2.1651,-17.6941 3.5031,-2.8373 6.6927,-2.7607 13.0566,0.3139 4.7687,2.3041 5.2322,2.9439 5.2069,7.1875 -0.062,10.462 -12.3146,16.5751 -20.4286,10.1927 z M 4250.25,2833.5 c -0.825,-0.825 -1.5,-3.1086 -1.5,-5.0749 0,-9.7635 34.4285,-34.6751 47.9219,-34.6751 5.6807,0 7.5266,5.5896 4.0597,12.2937 -1.8354,3.5493 -2.3072,3.8456 -15.7496,9.8887 -4.4786,2.0133 -12.2819,7.1272 -17.3406,11.3641 -9.3037,7.7922 -14.0939,9.501 -17.3914,6.2035 z m 584.2142,19.5358 c -4.6031,-4.6032 -0.7518,-12.9578 8.023,-17.4043 7.5744,-3.8382 11.9518,-4.0152 13.802,-0.5581 2.0199,3.7741 0.3928,9.0201 -4.1595,13.4107 -6.5266,6.2949 -13.9972,8.2198 -17.6655,4.5516 z m -577.6152,12.3846 c -2.6256,-2.6256 -1.6338,-8.5328 2.1,-12.5073 1.4632,-1.5575 6.6577,-4.3281 11.5432,-6.1566 4.8855,-1.8286 12.6348,-5.316 17.2205,-7.7497 8.0937,-4.2955 8.4321,-4.3633 11.5625,-2.3122 4.17,2.7324 4.2662,8.126 0.2302,12.9224 -3.2834,3.9021 -17.4589,11.4534 -28.8719,15.38 -8.8476,3.0441 -11.0949,3.1131 -13.7845,0.4234 z M 4821.5,2888.5 c -3.043,-3.043 -1.7458,-9.421 2.8514,-14.018 8.9248,-8.9249 23.159,-9.128 23.144,-0.3302 -0.012,5.6015 -4.3369,10.2731 -12.1568,13.1243 -8.4809,3.0924 -11.6866,3.3759 -13.8386,1.2239 z m -559,20.5764 c -2.6974,-1.0088 -3.7091,-2.9425 -3.7309,-7.1306 -0.035,-6.8573 18.5775,-21.6639 33.9981,-27.0453 4.1345,-1.4427 4.9205,-1.368 7.1875,0.6835 3.0407,2.7518 3.2904,7.7959 0.5778,11.6688 -1.0821,1.5448 -6.004,4.8363 -10.9375,7.3143 -4.9335,2.478 -11.5013,6.607 -14.595,9.1758 -5.998,4.98 -9.4766,6.4642 -12.5,5.3335 z m 530.25,18.1736 c -2.3805,-2.3805 -1.7463,-9.0999 1.2142,-12.8635 3.2673,-4.1536 11.4243,-8.0714 16.884,-8.109 4.6094,-0.031 7.9038,2.7315 7.8972,6.6243 -0.012,4.4516 -4.5673,10.7069 -8.3942,11.5161 -1.9118,0.4041 -5.3235,1.5442 -7.5811,2.5335 -5.0027,2.192 -8.0362,2.2825 -10.0201,0.2986 z m -519.4103,9.6611 c -2.7182,-2.7182 -2.6421,-6.6206 0.2204,-11.2861 3.0654,-4.9965 24.8746,-14.0506 28.793,-11.9536 3.6518,1.9544 4.3184,5.6876 1.9185,10.7449 -1.6491,3.4753 -4.0302,5.4397 -10.6102,8.7533 -10.6964,5.3867 -17.4358,6.6275 -20.3217,3.7415 z m 396.9033,118.684 c 16.968,-17.9255 39.454,-33.6253 76.4136,-53.3523 46.7151,-24.9339 57.0948,-31.5722 73.6123,-47.0782 34.5251,-32.411 58.8866,-75.167 68.7432,-120.649 3.7255,-17.1908 4.0461,-55.8411 0.5974,-72.0156 -15.6756,-73.5186 -66.2938,-123.3055 -144.907,-142.5274 -33.8056,-8.2659 -45.1,-9.3071 -100.3275,-9.2495 -53.2411,0.055 -68.9141,1.0884 -112.77,7.4309 -129.6516,18.7505 -233.0218,66.5799 -282.9333,130.9131 -29.2401,37.689 -42.5381,84.471 -40.7712,143.4329 2.4125,80.5119 36.6406,120.7905 116.2919,136.8491 28.6682,5.7798 46.8186,6.9778 123.9326,8.1799 39.875,0.6215 74.75,1.4214 77.5,1.7774 2.75,0.3561 10.9062,1.2603 18.125,2.0096 43.8014,4.5464 78.3762,18.2631 98.6362,39.1319 l 5.5113,5.6767 6.0886,-9.8937 c 3.3488,-5.4417 10.6644,-14.7277 16.2569,-20.6358 z m -33.5915,51.007 c -23.8251,-31.5898 -62.7878,-45.4175 -138.3024,-49.0828 -13.8732,-0.6734 -40.9741,-1.2398 -60.2241,-1.2588 -111.7679,-0.11 -162.0384,-10.2991 -200.3107,-40.6006 -22.6667,-17.9459 -38.4421,-45.6191 -44.6444,-78.3151 -8.0139,-42.2458 -2.7175,-106.166 11.8575,-143.1052 29.5137,-74.8 100.1258,-130.9728 211.2226,-168.0304 62.819,-20.9539 127.7935,-31.8818 207.574,-34.9111 114.5179,-4.3484 186.1345,15.992 234.5247,66.6092 50.3314,52.6475 65.378,128.555 40.3719,203.6694 -12.3476,37.0908 -35.6018,72.8787 -67.6591,104.1267 -20.6548,20.1333 -26.5619,23.998 -82.8154,54.182 -56.2526,30.1836 -80.019,52.3567 -88.8336,82.8789 -1.388,4.8059 -3.2944,8.1762 -5.8331,10.3125 -6.3046,5.305 -8.7488,4.3702 -16.9279,-6.4747 z"
       inkscape:connector-curvature="0" />
  </g>
</svg>
