<?xml version="1.0" encoding="UTF-8" standalone="no"?>
<!-- Created with Inkscape (http://www.inkscape.org/) -->

<svg
   xmlns:dc="http://purl.org/dc/elements/1.1/"
   xmlns:cc="http://creativecommons.org/ns#"
   xmlns:rdf="http://www.w3.org/1999/02/22-rdf-syntax-ns#"
   xmlns:svg="http://www.w3.org/2000/svg"
   xmlns="http://www.w3.org/2000/svg"
   xmlns:sodipodi="http://sodipodi.sourceforge.net/DTD/sodipodi-0.dtd"
   xmlns:inkscape="http://www.inkscape.org/namespaces/inkscape"
   id="svg3371"
   version="1.1"
   inkscape:version="0.91 r13725"
   width="498.43661"
   height="844.31476"
   viewBox="0 0 498.43662 844.31476"
   sodipodi:docname="talk-cloud-06.svg">
  <metadata
     id="metadata3377">
    <rdf:RDF>
      <cc:Work
         rdf:about="">
        <dc:format>image/svg+xml</dc:format>
        <dc:type
           rdf:resource="http://purl.org/dc/dcmitype/StillImage" />
        <dc:title />
      </cc:Work>
    </rdf:RDF>
  </metadata>
  <defs
     id="defs3375" />
  <sodipodi:namedview
     pagecolor="#ffffff"
     bordercolor="#666666"
     borderopacity="1"
     objecttolerance="10"
     gridtolerance="10"
     guidetolerance="10"
     inkscape:pageopacity="0"
     inkscape:pageshadow="2"
     inkscape:window-width="1440"
     inkscape:window-height="856"
     id="namedview3373"
     showgrid="false"
     inkscape:zoom="0.24544081"
     inkscape:cx="-267.9237"
     inkscape:cy="126.62028"
     inkscape:window-x="0"
     inkscape:window-y="0"
     inkscape:window-maximized="0"
     inkscape:current-layer="layer8"
     fit-margin-top="0"
     fit-margin-left="0"
     fit-margin-right="0"
     fit-margin-bottom="0" />
  <g
     inkscape:groupmode="layer"
     id="layer8"
     inkscape:label="cloud 06"
     transform="translate(-395.30065,-509.28365)">
    <path
       transform="translate(-2389.8977,-101.42708)"
       id="path3435"
       style="display:inline;fill:#FFE135"
       d="m 3016.288,1368.6899 c -30.543,-11.6283 -58.1489,-28.6205 -79.2906,-48.8058 -20.5348,-19.6056 -37.6163,-43.925 -36.1339,-51.4447 0.7921,-4.0188 8.1501,-10.9394 11.6307,-10.9394 2.9498,0 3.2945,0.3988 12.4248,14.375 19.2424,29.455 45.102,51.4811 80.706,68.7423 8.9375,4.3328 20.956,9.4822 26.7078,11.4428 7.457,2.542 10.8249,4.3558 11.7374,6.321 2.6505,5.7087 -4.5814,15.4114 -11.4263,15.3302 -1.7979,-0.021 -9.158,-2.281 -16.3559,-5.0214 z m 66.462,16.0601 c -2.9026,-2.9026 -1.7102,-8.5397 2.75,-13 3.6769,-3.6769 5.076,-4.25 10.375,-4.25 3.3688,0 6.8,0.675 7.625,1.5 2.6047,2.6048 1.7412,9.2715 -1.7361,13.4041 -2.918,3.4679 -3.9379,3.8459 -10.375,3.8459 -3.9264,0 -7.8139,-0.675 -8.6389,-1.5 z m 24.75,48.3023 c 24.3354,-4.1018 53.2033,-15.8165 72.4416,-29.3974 47.1895,-33.3125 60.9506,-84.9214 39.3537,-147.5896 -6.7584,-19.6108 -19.4379,-44.3972 -41.7888,-81.6903 -31.8271,-53.1045 -39.5743,-69.9336 -42.5754,-92.4858 -3.5807,-26.9077 5.0288,-49.3538 27.5741,-71.8892 14.7258,-14.71913 27.9459,-23.64374 56.6943,-38.2731 l 22.3986,-11.39809 -21.1115,-0.72622 c -93.2516,-3.2078 -98.2561,-3.79094 -110.1069,-12.82988 -5.0242,-3.8322 -5.1031,-5.46839 -0.9998,-20.74501 13.2601,-49.36877 11.0611,-106.1323 -6.4074,-165.4027 -11.7596,-39.90013 -28.1096,-69.73226 -50.8926,-92.85877 -26.4963,-26.89578 -56.2697,-39.06082 -91.6373,-37.44183 -32.9121,1.50659 -61.8424,15.74235 -90.5154,44.54002 -26.3158,26.43022 -44.0646,58.60958 -55.0682,99.8409 -9.2219,34.55567 -11.6823,61.73693 -10.754,118.80927 0.8501,52.26205 4.2275,85.15418 15.9709,155.53741 2.7233,16.3223 7.2102,44.7286 9.9708,63.125 11.9878,79.8853 19.5775,116.4051 31.8822,153.4092 22.1991,66.7605 48.5387,104.3065 95.3651,135.9397 25.3837,17.1477 60.4087,29.582 94.0235,33.3796 13.8438,1.564 41.2769,0.659 56.1825,-1.8533 z m -66.25,20.5616 c -77.749,-8.8058 -143.4036,-56.0543 -177.4704,-127.717 -21.6745,-45.5946 -35.705,-99.0104 -48.0543,-182.9493 -2.4419,-16.5976 -7.7848,-50.0663 -11.8729,-74.375 -13.2301,-78.6669 -17.3938,-116.51781 -18.4742,-167.9476 -1.6088,-76.58574 7.4721,-127.51781 31.4243,-176.25 14.7632,-30.03664 30.9869,-52.02029 51.8858,-70.30696 44.6887,-39.10315 98.7558,-52.81729 145.0617,-36.7949 60.9324,21.08333 103.653,88.27822 118.9542,187.10186 2.1794,14.07561 2.7249,23.24809 2.7876,46.875 0.082,31.35406 -1.4478,46.04769 -7.1568,68.693 l -2.8381,11.2579 3.9517,1.87526 c 6.4682,3.06933 14.9985,4.20748 37.4264,4.99358 93.9184,3.29185 106.4381,4.01473 111.3883,6.43153 5.7791,2.82163 6.8132,6.59128 3.4971,12.74879 -2.3083,4.28631 -9.4116,8.19573 -36.8778,20.29621 -49.691,21.89182 -77.0992,42.15953 -87.8377,64.95373 -3.1774,6.7445 -3.9125,10.0552 -4.3265,19.4848 -0.9994,22.7605 6.1557,40.1422 39.3189,95.5152 30.769,51.3753 43.1666,77.2569 50.8197,106.0924 3.6653,13.8099 3.86,15.7449 3.9161,38.9076 0.069,28.26 -1.6417,37.0246 -11.1576,57.1875 -7.9155,16.772 -15.92,28.1119 -29.3655,41.6019 -39.2942,39.4244 -102.3491,59.4202 -165,52.3245 z"
       inkscape:connector-curvature="0" />
  </g>
</svg>
