<?xml version="1.0" encoding="UTF-8" standalone="no"?>
<!-- Created with Inkscape (http://www.inkscape.org/) -->

<svg
   xmlns:dc="http://purl.org/dc/elements/1.1/"
   xmlns:cc="http://creativecommons.org/ns#"
   xmlns:rdf="http://www.w3.org/1999/02/22-rdf-syntax-ns#"
   xmlns:svg="http://www.w3.org/2000/svg"
   xmlns="http://www.w3.org/2000/svg"
   xmlns:sodipodi="http://sodipodi.sourceforge.net/DTD/sodipodi-0.dtd"
   xmlns:inkscape="http://www.inkscape.org/namespaces/inkscape"
   id="svg3371"
   version="1.1"
   inkscape:version="0.91 r13725"
   width="697.18396"
   height="690.49585"
   viewBox="0 0 697.18393 690.49582"
   sodipodi:docname="talk-cloud-13.svg">
  <metadata
     id="metadata3377">
    <rdf:RDF>
      <cc:Work
         rdf:about="">
        <dc:format>image/svg+xml</dc:format>
        <dc:type
           rdf:resource="http://purl.org/dc/dcmitype/StillImage" />
        <dc:title></dc:title>
      </cc:Work>
    </rdf:RDF>
  </metadata>
  <defs
     id="defs3375" />
  <sodipodi:namedview
     pagecolor="#ffffff"
     bordercolor="#666666"
     borderopacity="1"
     objecttolerance="10"
     gridtolerance="10"
     guidetolerance="10"
     inkscape:pageopacity="0"
     inkscape:pageshadow="2"
     inkscape:window-width="1440"
     inkscape:window-height="856"
     id="namedview3373"
     showgrid="false"
     inkscape:zoom="0.24544081"
     inkscape:cx="-1075.7099"
     inkscape:cy="588.22468"
     inkscape:window-x="0"
     inkscape:window-y="0"
     inkscape:window-maximized="0"
     inkscape:current-layer="layer15"
     fit-margin-top="0"
     fit-margin-left="0"
     fit-margin-right="0"
     fit-margin-bottom="0" />
  <g
     inkscape:groupmode="layer"
     id="layer15"
     inkscape:label="cloud 13"
     transform="translate(-2139.4584,-634.23185)">
    <path
       id="path3528"
       style="display:inline;fill:#B2E9B5"
       d="m 2383.66,1324.0201 c -20.3241,-1.3486 -50.0918,-7.3824 -66.0437,-13.3867 -28.6387,-10.7795 -52.476,-28.9759 -64.523,-49.2539 -2.9142,-4.9053 -7.025,-14.1386 -9.1354,-20.5188 -3.5135,-10.6218 -3.846,-13.0762 -3.9425,-29.1002 -0.1,-16.6839 0.055,-17.8278 3.3452,-24.5264 7.2156,-14.6931 19.547,-24.371 32.7949,-25.7384 14.0014,-1.445 25.5925,5.0579 33.6434,18.8747 l 4.8888,8.3903 5.1112,-4.9961 c 2.8111,-2.7479 7.6423,-6.1386 10.7361,-7.5351 13.7208,-6.1934 32.6781,-0.5564 42.3476,12.5921 l 3.5289,4.7985 2.3742,-2.6689 c 6.5083,-7.3157 20.9163,-9.3073 34.4209,-4.7578 8.3648,2.8178 11.6754,4.6577 19.3611,10.7605 l 5.1578,4.0953 2.3422,-2.5898 c 15.643,-17.2972 64.0047,-6.3473 93.0715,21.073 12.2138,11.5218 17.6735,22.6247 17.6735,35.941 0,8.1751 -0.5636,10.6898 -3.9268,17.5217 -10.5144,21.3578 -45.314,40.8003 -85.1009,47.546 -22.4023,3.7982 -52.8699,5.1549 -78.125,3.479 z m 51.381,-19.162 c 32.1405,-2.5471 53.8485,-7.612 72.5291,-16.9223 11.7768,-5.8695 22.1161,-14.4052 24.251,-20.0202 4.3719,-11.4988 -5.1667,-28.1497 -23.2552,-40.5948 -15.5384,-10.6908 -42.4222,-19.8102 -53.5015,-18.1488 l -5.7794,0.8666 0,6.8947 c 0,5.9536 -0.4986,7.3932 -3.6539,10.5483 -5.0035,5.0035 -11.2162,5.0773 -14.1165,0.1675 -6.6164,-11.2005 -24.062,-23.1642 -36.1427,-24.7856 -7.9475,-1.0666 -10.4997,1.5778 -11.7268,12.1503 -1.1142,9.6003 -5.5781,14.8717 -12.5935,14.8717 -3.5851,0 -4.333,-0.5164 -4.9781,-3.4375 -2.6934,-12.196 -6.1254,-19.6782 -11.6338,-25.3639 -13.599,-14.0365 -29.0362,-9.416 -34.0625,10.1955 -2.0613,8.0434 -8.2046,13.9332 -13.9385,13.3634 -3.7593,-0.3735 -3.9033,-0.6319 -6.1243,-10.9897 -4.0405,-18.8433 -11.3824,-29.5835 -22.2173,-32.501 -8.9861,-2.4198 -17.3024,3.2657 -20.0815,13.7288 -3.454,13.0039 3.0336,40.004 13.428,55.884 1.797,2.7453 1.8308,2.7313 9.9253,-4.1356 6.1728,-5.2366 8.9224,-6.7976 11.4566,-6.5046 2.7166,0.3141 3.4047,1.1077 3.7139,4.2827 0.3305,3.3953 -0.6353,4.8153 -7.4999,11.0274 l -7.8791,7.1303 5.3115,4.9545 c 5.9551,5.5548 6.9725,5.4446 15.125,-1.6387 2.8352,-2.4633 5.2565,-3.5138 7.5,-3.2541 5.1515,0.5963 5.039,5.6249 -0.2819,12.5955 l -4.351,5.7002 6.742,3.5299 6.742,3.5299 10.303,-10.3584 c 8.9524,-9.0005 10.8014,-10.3095 14.1059,-9.986 3.117,0.3053 3.875,0.9984 4.2017,3.8421 0.3257,2.8347 -1.1198,5.0429 -7.8963,12.062 -4.5622,4.7257 -7.8354,8.8694 -7.2737,9.2084 2.2594,1.3634 18.986,5.8849 21.7704,5.8849 1.6386,0 5.9015,-2.0126 9.473,-4.4724 7.821,-5.3865 12.0755,-5.4216 12.6842,-0.105 0.2372,2.0716 -0.4715,4.5179 -1.7028,5.8785 -1.9972,2.2069 -1.9525,2.3689 0.8438,3.0551 10.9037,2.6759 39.32,3.5512 60.5838,1.866 z m 28.0265,-141.363 c -10.3734,-1.7732 -23.8741,-9.0689 -33.8166,-18.2742 l -8.7469,-8.0983 -4.8211,4.3556 c -6.4058,5.7873 -12.1747,7.5175 -23.206,6.9606 -7.225,-0.3649 -10.7083,-1.2892 -16.9078,-4.4865 l -7.8081,-4.027 -4.9154,4.2073 c -16.1475,13.8217 -41.0844,6.3753 -58.1765,-17.3721 l -2.699,-3.75 -3.5301,3.2948 c -9.4868,8.8546 -21.4088,10.408 -32.6405,4.2531 -17.8868,-9.8017 -26.9895,-28.824 -26.9403,-56.2979 l 0.026,-15 -11.1408,-5.5495 c -45.0593,-22.4456 -74.4856,-53.7182 -84.7568,-90.0755 -3.7309,-13.2063 -4.6804,-39.1579 -1.9957,-54.5446 5.3374,-30.589 21.6614,-64.9416 46.1302,-97.0774 41.9148,-55.0485 107.067,-107.6644 176.2633,-142.3478 38.328,-19.2112 67.3785,-27.5014 118.3987,-33.788 17.9745,-2.2147 93.6108,-2.1873 111.25,0.04 81.0095,10.2309 141.3322,35.3385 184.6431,76.8525 50.6076,48.5082 70.6205,118.4697 52.2737,182.7399 -4.2065,14.7359 -18.4808,43.2183 -29.0957,58.0564 -10.656,14.8956 -34.6248,39.8164 -50.9243,52.9471 -28.698,23.1189 -67.5601,45.5164 -105.6468,60.8879 -23.9539,9.6676 -101.087,34.6721 -130.9375,42.4464 l -5.3125,1.3836 0,10.3499 c 0,12.8666 -2.3498,20.9072 -8.4179,28.8052 -8.5366,11.1108 -21.3506,15.7064 -36.5496,13.1081 z m 23.5634,-21.8226 c 3.3971,-4.3186 4.5167,-12.9366 3.1548,-24.2831 -0.6191,-5.1584 -0.9516,-10.6013 -0.7388,-12.0953 0.5216,-3.6635 6.219,-9.1672 10.3433,-9.9921 3.2704,-0.6541 3.3643,-0.9305 3.899,-11.4809 0.3956,-7.8039 1.2959,-12.2554 3.237,-16.005 4.4038,-8.5065 11.3184,-12.621 15.0088,-8.9306 2.3757,2.3757 1.7697,5.4876 -1.9238,9.8771 -3.0285,3.599 -3.398,4.9965 -3.2005,12.1038 0.1225,4.4191 0.5404,8.352 0.928,8.7395 0.3877,0.3876 6.1873,-0.8255 12.888,-2.6959 l 12.1833,-3.4008 -0.4185,-14.9936 c -0.4451,-15.948 0.096,-17.8567 5.6687,-19.9752 5.571,-2.1182 6.3683,-0.6115 7.3023,13.8 0.4817,7.4323 1.2897,14.1831 1.7956,15.0016 0.6926,1.1207 2.8926,0.8995 8.9108,-0.896 6.5687,-1.9596 7.9185,-2.8114 7.5833,-4.7848 -0.2242,-1.3203 -0.7116,-5.9152 -1.083,-10.2106 -0.7706,-8.9137 1.2427,-13.4846 6.5228,-14.8099 4.6691,-1.1718 6.8422,1.394 6.8476,8.0853 0,3.5272 0.9556,7.344 2.4414,9.7809 l 2.4367,3.9962 9.7462,-3.2212 c 5.3603,-1.7717 10.181,-3.6112 10.7126,-4.0878 0.5315,-0.4766 -0.4529,-4.0757 -2.1875,-7.9982 -3.9341,-8.8957 -3.9481,-11.38 -0.086,-15.2423 4.2407,-4.2405 9.1227,-4.073 10.7632,0.3694 2.2378,6.0605 7.7966,16.5625 8.7663,16.5625 0.5164,0 5.4675,-1.7294 11.0025,-3.843 l 10.0639,-3.843 -3.082,-4.8821 c -3.9024,-6.1817 -3.9065,-10.4712 -0.014,-14.3638 4.0245,-4.0244 7.6177,-3.8947 10.2308,0.3694 5.2534,8.5722 7.3982,11.546 8.333,11.554 0.5539,0 7.9872,-3.4833 16.5184,-7.7509 12.3766,-6.1914 15.8115,-8.4845 16.9973,-11.3469 1.9796,-4.7792 6.4938,-7.6302 10.4927,-6.6266 3.6894,0.926 11.8439,-4.1526 30.2744,-18.8547 36.8206,-29.3722 61.1782,-61.6694 72.9036,-96.6674 17.2995,-51.6355 2.3491,-112.6138 -39.2865,-160.2375 -38.1511,-43.6383 -100.8479,-71.971 -183.9069,-83.1078 -25.6607,-3.4407 -89.3522,-3.1058 -116.8368,0.6143 -62.2594,8.4269 -107.7027,26.5825 -165.6632,66.1862 -36.0108,24.6058 -75.6112,60.2957 -99.2566,89.4553 -35.6737,43.993 -53.6856,90.3554 -49.1266,126.4512 1.6657,13.1889 7.1067,29.355 13.15,39.0704 l 4.0755,6.5521 8.6144,-6.8646 c 4.738,-3.7755 9.0306,-6.8646 9.5391,-6.8646 3.242,0 4.8792,1.8989 4.8792,5.6589 0,3.5043 -1.2017,5.212 -7.8125,11.1016 l -7.8125,6.9601 7.117,7.118 7.1169,7.1181 8.3736,-9.0442 c 6.8262,-7.3729 8.9759,-8.9743 11.633,-8.6659 2.636,0.306 3.3322,1.1254 3.6395,4.2838 0.313,3.2172 -0.8433,5.3082 -6.5625,11.8658 -3.8183,4.3782 -6.9425,8.291 -6.9425,8.6952 0,0.4041 2.44,2.4871 5.4223,4.6287 l 5.4222,3.894 6.6559,-6.7395 c 10.3225,-10.4524 17.4996,-12.2187 17.4996,-4.3069 0,3.1297 -1.3998,5.199 -7.115,10.5183 l -7.115,6.6221 6.0677,3.0836 6.0676,3.0838 3.5416,-4.0338 c 4.6303,-5.2735 10.3378,-7.7415 12.9293,-5.5907 3.0583,2.5382 2.221,7.4217 -1.9392,11.3079 l -3.813,3.5617 3.8023,1.9663 3.8022,1.9662 -0.7931,16.5381 c -0.8384,17.48 0.4581,25.4723 5.8191,35.8712 4.7173,9.1502 15.2729,17.5248 22.0988,17.533 4.8214,0 5.4074,-1.4132 6.5261,-15.8009 0.9428,-12.1253 3.9016,-16.6945 10.8105,-16.6945 4.9468,0 5.5515,0.7847 9.8309,12.7579 3.8285,10.7111 11.076,22.026 18.028,28.145 4.6101,4.0576 15.7772,9.0971 20.1589,9.0971 3.6611,0 6.2923,-3.4871 6.2923,-8.3393 0,-3.3495 1.0227,-5.4333 4.25,-8.6607 5.9752,-5.9751 8.7645,-5.5261 16.5754,2.6682 7.5069,7.8753 14.9336,11.7645 22.5413,11.8043 6.1797,0.033 9.1333,-3.1005 9.1333,-9.6878 0,-5.0208 2.8933,-10.9882 6.1808,-12.7477 5.1691,-2.7664 8.399,-1.5456 13.0542,4.9341 14.5228,20.2148 32.9014,32.3709 49.1118,32.4838 5.4906,0.039 6.855,-0.442 8.9991,-3.1679 z"
       inkscape:connector-curvature="0" />
  </g>
</svg>
