<?xml version="1.0" encoding="UTF-8" standalone="no"?>
<!-- Created with Inkscape (http://www.inkscape.org/) -->

<svg
   xmlns:dc="http://purl.org/dc/elements/1.1/"
   xmlns:cc="http://creativecommons.org/ns#"
   xmlns:rdf="http://www.w3.org/1999/02/22-rdf-syntax-ns#"
   xmlns:svg="http://www.w3.org/2000/svg"
   xmlns="http://www.w3.org/2000/svg"
   xmlns:sodipodi="http://sodipodi.sourceforge.net/DTD/sodipodi-0.dtd"
   xmlns:inkscape="http://www.inkscape.org/namespaces/inkscape"
   id="svg3371"
   version="1.1"
   inkscape:version="0.91 r13725"
   width="1074.3545"
   height="743.84625"
   viewBox="0 0 1074.3545 743.84625"
   sodipodi:docname="talk-cloud-01.svg">
  <metadata
     id="metadata3377">
    <rdf:RDF>
      <cc:Work
         rdf:about="">
        <dc:format>image/svg+xml</dc:format>
        <dc:type
           rdf:resource="http://purl.org/dc/dcmitype/StillImage" />
        <dc:title />
      </cc:Work>
    </rdf:RDF>
  </metadata>
  <defs
     id="defs3375" />
  <sodipodi:namedview
     pagecolor="#ffffff"
     bordercolor="#666666"
     borderopacity="1"
     objecttolerance="10"
     gridtolerance="10"
     guidetolerance="10"
     inkscape:pageopacity="0"
     inkscape:pageshadow="2"
     inkscape:window-width="1440"
     inkscape:window-height="856"
     id="namedview3373"
     showgrid="false"
     inkscape:zoom="0.24544081"
     inkscape:cx="504.56946"
     inkscape:cy="180.23701"
     inkscape:window-x="0"
     inkscape:window-y="0"
     inkscape:window-maximized="0"
     inkscape:current-layer="layer2"
     fit-margin-top="0"
     fit-margin-left="0"
     fit-margin-right="0"
     fit-margin-bottom="0" />
  <g
     inkscape:groupmode="layer"
     id="layer2"
     inkscape:label="cloud 01"
     style="display:inline"
     sodipodi:insensitive="true"
     transform="translate(-33.956281,-64.143693)">
    <path
       id="path3381"
       style="fill:#FFE135;fill-opacity:1"
       d="m 232.26273,807.13048 c -9.98123,-4.30093 -17.68145,-13.93166 -17.68145,-22.11434 0,-9.77988 8.13481,-20.7508 19.66271,-26.51788 14.05366,-7.03064 37.92113,-6.16188 54.18001,1.9721 10.12862,5.06714 13.65728,9.35312 13.65728,16.58839 0,17.55352 -20.49091,29.72696 -51.875,30.81844 -8.63746,0.30039 -16.24856,-0.0164 -17.94355,-0.74671 z m 41.60653,-20.91977 c 4.06627,-1.23795 7.61426,-2.91393 7.88441,-3.7244 0.78061,-2.34183 -8.49165,-6.34125 -19.89718,-8.58223 -8.64826,-1.69924 -11.72541,-1.80748 -17.47172,-0.61454 -8.39363,1.7425 -11.77173,3.91428 -10.64712,6.84498 0.73034,1.90323 1.37815,1.7861 6.40073,-1.15733 7.359,-4.31266 12.40622,-3.88714 12.97599,1.09399 0.27491,2.40331 -0.541,4.60214 -2.5,6.73734 l -2.90809,3.16965 9.38487,-0.75832 c 5.16169,-0.41707 12.71184,-1.77118 16.7781,-3.00913 z m 30.04275,-31.61542 c -24.94762,-7.91255 -30.67573,-33.81748 -11.25732,-50.91025 9.83163,-8.65414 28.2988,-14.05655 48.04983,-14.05655 20.55747,0 34.33089,5.16809 41.66342,15.63304 13.19359,18.8298 -3.53385,42.43021 -35.39691,49.94081 -11.60356,2.73514 -33.49442,2.42651 -43.05902,-0.60705 z m 49.55935,-19.89731 c 9.37077,-2.90636 14.85992,-6.6434 14.85992,-10.11672 0,-4.17227 -7.16896,-10.8898 -14.12079,-13.23158 -16.59252,-5.58935 -52.80357,-0.0874 -55.01226,8.3586 -0.62353,2.38436 -0.33089,2.58348 2.65362,1.80567 1.84494,-0.48082 5.32318,-0.96112 7.72943,-1.06734 3.94099,-0.17396 4.41561,0.16208 4.78432,3.38742 0.28998,2.5364 -0.55215,4.58411 -2.88781,7.02201 -3.22611,3.36734 -3.24069,3.45625 -0.67637,4.12682 1.86192,0.4869 4.25835,-0.73196 8.27633,-4.20951 5.96814,-5.16537 10.39065,-6.16817 13.05335,-2.95982 1.32095,1.59165 1.22495,2.73398 -0.54098,6.4372 l -2.14694,4.50217 7.88155,-0.74575 c 4.33485,-0.41017 11.60084,-1.8993 16.14662,-3.30917 z m 45.89849,-38.77519 c -16.3714,-2.96811 -29.94656,-8.77509 -35.25111,-15.07919 -4.17667,-4.96369 -4.96439,-8.217 -4.28011,-17.67706 l 0.55125,-7.62084 -6.68994,-2.9586 c -3.67947,-1.62724 -8.04826,-2.95861 -9.70842,-2.95861 -1.66016,0 -3.7622,-1.06181 -4.67119,-2.35957 -0.90899,-1.29777 -4.62704,-4.11331 -8.26231,-6.25674 -50.10206,-29.54124 -82.95019,-68.77792 -93.24809,-111.38369 -1.93385,-8.00099 -3.00266,-27.8354 -2.05443,-38.125 l 1.03674,-11.25 -4.69346,-4.02122 c -6.1499,-5.26905 -8.7675,-11.05877 -8.7675,-19.39232 l 0,-6.78571 -8.4375,1.77436 c -5.53513,1.16403 -12.73731,1.5693 -20.9375,1.1782 -32.81051,-1.56486 -54.17012,-18.99059 -46.31674,-37.7864 1.78365,-4.26887 1.76239,-4.33787 -1.5625,-5.06895 -23.41415,-5.14836 -39.5049,-14.26995 -45.33629,-25.7004 -2.599159,-5.09479 -3.144449,-12.3636 -1.200029,-15.99679 1.046409,-1.95521 0.246,-2.62813 -5.9375,-4.99178 -20.02732,-7.65549 -31.432944,-20.838 -31.494488,-36.40107 -0.04322,-10.93028 6.570448,-22.02138 17.084908,-28.65131 1.34703,-0.84937 1.70923,-1.66612 0.89508,-2.01835 -0.75216,-0.3254 -5.66846,-3.41512 -10.9251,-6.86606 -13.769486,-9.03953 -24.886401,-20.75954 -30.537924,-32.19463 -4.45821,-9.02057 -4.669416,-10.01743 -4.669416,-22.03902 0,-11.67234 0.295646,-13.19166 4.0516,-20.82109 10.298196,-20.9186 31.20115,-30.52412 59.05021,-27.13532 22.608699,2.75114 58.997199,17.67147 96.273189,39.47477 52.19468,30.5295 91.98086,70.15429 117.05835,116.58352 2.59475,4.80401 5.09296,8.73457 5.55157,8.73457 0.45862,0 4.98087,-3.47707 10.04947,-7.72682 39.87096,-33.42974 88.14286,-60.39439 140.46561,-78.46398 51.47414,-17.77652 100.41141,-24.21345 148.75,-19.56574 72.77418,6.99717 139.84396,21.77545 190.60317,41.99784 7.05875,2.8122 12.95092,4.94898 13.09368,4.7484 0.14276,-0.20059 2.6483,-4.8647 5.56786,-10.3647 27.78773,-52.34771 90.2111,-111.03533 148.23529,-139.36403 20.9011,-10.20436 47.15012,-20.16614 66.87502,-25.37973 12.7121,-3.36 16.4824,-3.8115 32.5924,-3.90289 18.1851,-0.10312 18.2283,-0.0966 24.36,3.69087 8.2611,5.10273 11.7502,11.40519 11.777,21.27286 0.05,18.43737 -16.0948,35.05921 -49.8194,51.2911 l -12.3212,5.93025 5.7923,2.88641 c 7.189,3.58242 10.1189,8.31249 10.1189,16.3358 0,12.03331 -13.0094,26.11022 -33.705,36.47084 l -12.3211,6.16811 2.9426,2.76444 c 18.8929,17.74888 -2.662,51.14621 -40.66652,63.00899 -3.7813,1.18029 -7.5532,2.35638 -8.3822,2.61354 -1.1353,0.35219 -1.0234,1.8876 0.4537,6.22253 2.837,8.32612 1.8307,19.59949 -2.5483,28.54998 -4.79825,9.80719 -15.27581,20.78627 -24.55837,25.73382 -5.91707,3.15376 -7.44755,4.53846 -6.7861,6.13965 9.43743,22.84532 12.34432,37.49302 12.31753,62.06746 -0.0235,21.5892 -2.7795,38.33292 -9.67061,58.75337 -10.50624,31.13317 -26.61646,54.75717 -51.45065,75.44709 -63.77319,53.1309 -172.67506,85.78874 -309.375,92.77636 -27.37997,1.39957 -71.06586,0.8324 -95.625,-1.24146 l -11.25,-0.95 -9.375,4.63047 c -17.71911,8.75175 -27.85818,11.5629 -43.125,11.95682 -7.5625,0.19513 -16.37639,-0.12137 -19.58643,-0.70335 z m 31.67099,-19.3391 c 8.14048,-0.8076 26.8646,-7.09961 33.05466,-11.10761 2.31265,-1.49743 4.21179,-3.70534 4.2203,-4.90649 0.0196,-2.76866 -7.98678,-11.69162 -13.72756,-15.29907 -16.84716,-10.58658 -41.76606,-9.88123 -64.96291,1.83881 -10.26191,5.18476 -14.19409,10.85039 -11.29294,16.27125 1.3686,2.55725 1.46381,2.53776 6.29449,-1.2882 8.93977,-7.08044 16.48405,-2.27836 10.06364,6.40569 -3.13929,4.24612 -3.1558,4.40321 -0.56715,5.39657 1.12315,0.43099 3.9678,-0.35257 6.32145,-1.74126 5.53432,-3.26534 9.97836,-3.2799 11.00791,-0.0361 0.43445,1.36885 0.46169,3.01992 0.0605,3.66904 -0.75339,1.219 5.5346,2.36584 9.94305,1.81345 1.375,-0.17229 5.68805,-0.62954 9.58456,-1.0161 z m 116.66544,-18.2052 c 6.9854,-5.55863 12.45716,-6.57339 13.73501,-2.54721 0.42817,1.34902 0.16504,3.59902 -0.58474,5 -1.3266,2.47876 -1.04829,2.54721 10.35635,2.54721 l 11.71958,0 8.35779,-9.98456 c 4.79493,-5.72824 9.67452,-10.31505 11.4466,-10.75982 8.45884,-2.12302 9.20999,4.44702 1.55388,13.59138 l -5.29052,6.31896 9.94664,-0.8408 c 9.79387,-0.82789 10.0431,-0.93444 16.22802,-6.93786 7.83684,-7.60687 17.80516,-15.1373 20.03785,-15.1373 2.31601,0 5.61854,3.49114 5.61854,5.93943 0,1.10597 -2.60935,4.44078 -5.79855,7.41071 l -5.79854,5.39986 5.08932,0 c 3.90828,0 5.26482,-0.55302 5.84567,-2.38313 0.41601,-1.31072 6.06485,-6.37322 12.55296,-11.25 8.56155,-6.43526 12.83355,-8.86687 15.57787,-8.86687 3.47175,0 3.78127,0.35016 3.78127,4.27774 0,3.55567 -1.00224,5.1368 -5.9375,9.36693 -3.26562,2.79906 -5.29651,5.09282 -4.51309,5.09726 4.42363,0.025 22.47738,-4.19327 24.98859,-5.83868 1.85993,-1.21867 4.46564,-1.69361 7.02215,-1.27992 7.8156,1.26471 56.72334,-11.37742 85.6422,-22.13758 66.15808,-24.61617 110.34605,-58.02522 127.08991,-96.08844 5.36907,-12.2053 5.3728,-12.14635 -0.77052,-12.15428 -2.96821,-0.004 -7.50611,-0.59278 -10.08424,-1.30875 -3.81854,-1.06047 -4.6875,-1.88074 -4.6875,-4.42485 0,-1.71769 1.43844,-4.5615 3.19654,-6.3196 2.94089,-2.94089 3.91425,-3.16128 12.17035,-2.75569 l 8.9738,0.44086 1.41686,-4.375 c 0.77928,-2.40625 1.80273,-7.02612 2.27433,-10.2664 l 0.85747,-5.89139 -12.25717,-0.35861 -12.25718,-0.3586 -0.39669,-3.44948 c -0.28681,-2.49413 0.63856,-4.48471 3.34135,-7.1875 3.49292,-3.49291 4.35909,-3.73802 13.20919,-3.73802 l 9.47115,0 0,-5.625 c 0,-3.09375 -0.14063,-5.70338 -0.3125,-5.79918 -0.17188,-0.0958 -7.34375,-0.51767 -15.9375,-0.9375 -15.29019,-0.74696 -15.63409,-0.82758 -16.04889,-3.76237 -0.23313,-1.64948 0.26394,-4.28426 1.10461,-5.85508 2.49537,-4.66262 7.28462,-5.86272 19.37678,-4.85545 l 10.84105,0.90305 -0.88436,-5.47173 c -1.38225,-8.55229 -2.18192,-8.92529 -20.55724,-9.58882 -11.03713,-0.39855 -16.72637,-1.10202 -17.61994,-2.17869 -1.95501,-2.35565 -0.13871,-7.75394 3.61597,-10.74713 3.00576,-2.39617 4.37016,-2.5649 15.44456,-1.90996 l 12.14753,0.71841 -2.89451,-6.50777 c -1.59197,-3.57928 -4.10314,-8.47653 -5.58036,-10.88278 -3.6634,-5.96733 -3.41466,-10.40534 0.85075,-15.17916 3.05384,-3.41784 4.72285,-4.1103 12.02616,-4.98953 19.51809,-2.34976 32.04738,-17.59817 25.89265,-31.51193 -2.78752,-6.30168 -7.5578,-10.06849 -16.67545,-13.16768 -3.57997,-1.21686 -7.04867,-3.068 -7.70824,-4.11362 -1.77882,-2.82002 0.069,-8.38049 4.13679,-12.44824 3.48603,-3.48604 3.96309,-3.59047 16.49849,-3.61154 15.81985,-0.0266 27.57985,-2.40054 39.12275,-7.89748 10.054,-4.78786 16.19582,-9.57218 18.83162,-14.66917 2.7131,-5.24655 0.3799,-9.21379 -7.76152,-13.19699 -5.4772,-2.67973 -9.1685,-3.4118 -20.4694,-4.05951 -14.7723,-0.84669 -16.1338,-1.50334 -16.17066,-7.79907 -0.0242,-4.13439 3.86126,-9.13948 8.37596,-10.78948 1.914,-0.69949 7.9799,-1.9577 13.4799,-2.79601 20.12642,-3.06772 44.69902,-12.9736 55.71272,-22.45929 6.7431,-5.80757 5.9076,-7.50114 -5.2446,-10.63029 -7.6224,-2.13872 -34.71732,-2.95141 -41.51532,-1.24522 -7.0653,1.7733 -9.5222,-7.96078 -3.6403,-14.423 2.7441,-3.01488 6.1714,-4.53748 16.99122,-7.54864 38.1666,-10.62181 77.1443,-30.91865 83.0143,-43.22799 1.8701,-3.9218 1.8993,-4.75897 0.2662,-7.63647 -4.1228,-7.26419 -7.5657,-8.4868 -23.4934,-8.34254 -11.3517,0.10275 -17.227,0.83564 -26.4658,3.30112 -31.2039,8.32712 -70.75982,25.73197 -94.37398,41.52509 -49.64924,33.20543 -94.16704,81.79545 -110.80789,120.94393 -5.41366,12.73591 -10.81719,19.12967 -15.28124,18.08165 -1.46405,-0.34373 -8.84941,-3.25373 -16.41191,-6.46669 -50.9719,-21.65564 -137.55882,-41.19091 -203.44036,-45.89911 -58.09957,-4.15207 -119.49649,9.68018 -184.05964,41.4672 -34.98901,17.22648 -65.44041,37.71872 -93.24025,62.74592 -7.81736,7.0377 -10.24113,8.54276 -13.75,8.5382 -4.18126,-0.005 -4.39664,-0.27594 -11.68892,-14.68036 -14.34072,-28.32715 -34.63052,-55.18483 -57.03196,-75.49337 -22.99046,-20.84254 -47.07848,-37.03383 -81.78887,-54.97614 -44.49603,-23.00065 -77.621279,-31.40237 -93.501039,-23.71511 -18.130501,8.77682 -17.248675,31.47728 1.96932,50.69528 14.33944,14.33944 36.417759,26.82085 56.378339,31.87205 8.43233,2.13388 8.92379,2.45521 9.28914,6.07354 0.4673,4.628 -2.56061,10.88319 -6.21485,12.83887 -1.7959,0.96114 -6.21844,1.1589 -13.42456,0.60029 -15.879479,-1.23095 -30.229119,2.47244 -32.071439,8.27707 -1.98087,6.24116 9.26323,20.10959 20.241489,24.96581 7.80835,3.45401 22.73705,6.04761 34.80982,6.04761 11.14163,0 11.89878,0.45194 11.89878,7.10224 0,4.58637 -7.46498,11.64776 -12.31347,11.64776 -6.38431,0 -16.43653,2.60941 -16.43653,4.26668 0,1.82045 8.27686,7.95779 16.03865,11.89278 9.55197,4.84255 23.18641,7.59054 37.6613,7.59054 14.68057,0 16.30005,0.69115 16.30005,6.95642 0,6.03027 -3.97783,9.99959 -13.0447,13.01685 -10.77126,3.58445 -12.09369,5.31577 -7.62391,9.98122 7.31412,7.6343 27.58313,13.31415 42.78221,11.98858 11.96859,-1.04382 20.3699,-3.62135 31.45293,-9.64976 10.29123,-5.59774 14.59478,-5.69904 15.93103,-0.37501 1.18521,4.72225 -1.72602,10.23136 -7.65773,14.49119 -2.92603,2.10131 -6.33983,5.71418 -7.58622,8.0286 -2.13399,3.96257 -2.14491,4.46232 -0.1873,8.56748 1.22001,2.5584 4.16678,5.54929 7.13263,7.23944 6.18892,3.52689 6.80116,5.23508 5.12541,14.30006 -0.72475,3.92052 -1.13151,7.31444 -0.90391,7.54203 0.22758,0.2276 3.62607,-1.8364 7.55218,-4.58665 4.41954,-3.09589 8.54554,-5.00045 10.83289,-5.00045 3.36748,0 3.69449,0.37579 3.69449,4.24551 0,4.8817 -3.9323,8.93046 -15.44144,15.89875 -6.00494,3.63574 -6.98499,4.75813 -6.96867,7.98074 0.0229,4.51431 1.81068,14.19224 2.80556,15.18711 0.39215,0.39215 5.03409,-2.44264 10.31541,-6.29955 10.2622,-7.4944 13.43918,-8.43639 15.49534,-4.5944 2.23986,4.18523 -0.64901,8.40641 -10.84594,15.84789 -5.35439,3.90752 -10.20989,7.52394 -10.78999,8.03649 -0.5801,0.51255 0.12213,3.59248 1.56062,6.84431 1.92702,4.35636 3.02705,5.59431 4.17972,4.70377 0.86041,-0.66475 5.4998,-4.41457 10.30975,-8.33295 9.16185,-7.46361 14.50973,-8.888 15.41715,-4.10631 0.88235,4.64961 -1.15882,8.06846 -8.19702,13.72959 -3.96853,3.19204 -8.53741,6.93629 -10.1531,8.32056 l -2.93763,2.51685 3.17808,5.42298 c 5.20707,8.8852 5.37422,8.89967 15.65689,1.35557 9.52753,-6.99007 12.57581,-8.00202 15.06603,-5.00147 2.88087,3.47121 0.0528,8.24362 -8.82008,14.88352 l -8.59668,6.43328 4.96561,4.96561 4.96562,4.96561 4.10488,-1.9763 c 2.25769,-1.08696 7.46649,-4.59769 11.57513,-7.80161 8.49507,-6.6245 12.30167,-7.09021 12.93309,-1.58225 0.54952,4.79366 -2.30329,8.71005 -11.01764,15.12519 l -7.37144,5.42655 3.01457,2.83203 c 2.65813,2.49719 3.29295,2.62607 5.36905,1.08999 19.38398,-14.34204 25.56345,-16.5253 26.1585,-9.24206 0.38833,4.75297 -0.98845,6.42581 -10.68248,12.97971 l -7.87612,5.32484 5.05279,3.66022 c 2.77904,2.01313 5.3611,3.66023 5.73793,3.66023 0.37682,0 3.60856,-1.96875 7.18164,-4.375 7.34956,-4.94949 12.81421,-5.7052 14.01005,-1.93748 1.03778,3.2698 -2.14175,9.12442 -6.10813,11.24717 -2.48619,1.33056 -2.90126,2.10081 -1.82859,3.39328 1.89132,2.2789 3.22007,2.10618 6.3695,-0.82797 5.20145,-4.84587 10.64618,-1.8582 9.25846,5.08037 -0.71346,3.5673 -0.39666,3.98704 4.71614,6.24867 l 5.48097,2.4245 6.35621,-4.27743 c 18.13627,-12.20481 47.955,-18.50428 67.90124,-14.34476 21.67787,4.52065 39.74902,21.33704 39.74902,36.98907 l 0,5.37958 6.06359,0 c 5.30281,0 7.06717,-0.75452 14.0625,-6.01383 19.45537,-14.62713 23.49676,-16.39503 26.14918,-11.43896 2.16077,4.03743 0.36139,7.02189 -7.60103,12.60722 -4.08333,2.86428 -7.42424,5.40755 -7.42424,5.65168 0,0.24414 5.20312,0.43791 11.5625,0.4306 l 11.5625,-0.0132 6.25,-4.97342 z M 245.88107,402.81348 c -0.88033,-1.06073 -1.14223,-3.00879 -0.63022,-4.6875 1.52092,-4.98649 4.43172,-7.24749 9.33043,-7.24749 2.89623,0 5.38931,-0.85833 6.7001,-2.30674 1.95519,-2.16046 1.91634,-2.78259 -0.61273,-9.81159 l -2.70029,-7.50486 -7.12859,4.91913 c -7.98233,5.50825 -14.39601,6.70982 -16.71138,3.13077 -2.17047,-3.35509 1.21137,-8.2188 8.84047,-12.71421 9.8444,-5.80076 9.82827,-5.76154 5.35448,-13.03238 l -3.9341,-6.39371 -3.31691,3.94193 c -7.75259,9.21342 -21.53776,14.28207 -23.34622,8.58413 -1.22564,-3.86163 2.5398,-9.682 7.27462,-11.24463 2.31711,-0.76472 5.51869,-2.78032 7.11463,-4.47912 1.59593,-1.6988 3.64741,-3.08872 4.55881,-3.08872 2.42615,0 2.08737,-0.972 -2.24556,-6.44278 -3.74094,-4.72331 -3.97375,-4.82607 -5.61742,-2.47941 -0.9431,1.34646 -4.52048,4.50774 -7.94975,7.02505 -7.7638,5.69915 -11.72753,5.61226 -12.29531,-0.26954 -0.40946,-4.24181 0.82313,-5.92457 9.75486,-13.31764 l 4.36052,-3.60934 -7.17512,-6.41735 c -5.41256,-4.84095 -7.17511,-7.25522 -7.17511,-9.82818 0,-4.52649 4.06722,-8.41081 8.80684,-8.41081 5.54336,0 27.91254,22.58913 39.067,39.45115 12.10377,18.29709 23.37616,44.4226 23.37616,54.17794 0,3.6054 -5.37411,8.87091 -9.05388,8.87091 -1.60463,0 -5.12413,1.125 -7.82112,2.5 -5.76763,2.9405 -14.65309,3.30224 -16.82521,0.68499 z M 868.4257,345.354 c -1.56274,-1.66347 -4.40033,-3.67025 -6.30574,-4.45948 -3.33068,-1.37962 -6.28868,-5.7713 -6.28868,-9.33668 0,-2.99993 12.09833,-25.93335 19.81148,-37.55435 14.77733,-22.26428 33.23367,-39.75603 39.43676,-37.37568 5.14862,1.97572 3.11949,9.45494 -3.86325,14.23959 l -4.47763,3.06813 3.92132,1.60006 c 4.98963,2.03599 5.39315,7.27441 0.88647,11.5082 -2.73635,2.57067 -3.78137,2.76445 -10.625,1.97016 -5.21396,-0.60514 -7.59015,-0.45117 -7.59015,0.4918 0,0.75501 1.44322,1.37274 3.20717,1.37274 7.83104,0 10.92914,7.11369 5.47393,12.5689 -2.29007,2.29007 -3.50626,2.47654 -11.20523,1.7179 -8.46545,-0.83416 -8.66595,-0.78596 -10.13415,2.43639 -0.8238,1.80805 -1.18587,3.59932 -0.80461,3.98058 0.38127,0.38128 5.39451,2.52572 11.14055,4.76543 8.87055,3.45759 10.50348,4.5416 10.8193,7.18232 0.52488,4.38864 -4.09196,9.85923 -8.27519,9.80545 -1.84072,-0.0236 -7.53497,-1.69483 -12.6539,-3.71371 -5.11891,-2.01887 -9.46976,-3.50803 -9.66856,-3.30925 -0.19879,0.19879 2.1613,2.13963 5.24463,4.31295 4.56327,3.21649 5.60606,4.66443 5.60606,7.7841 0,4.35364 -4.77395,9.96894 -8.47529,9.96894 -1.28641,0 -3.61753,-1.36103 -5.18029,-3.02449 z M 465.87759,200.66638 c -21.90115,-3.12725 -49.2077,-20.78492 -57.1052,-36.92684 -7.12231,-14.55748 -3.47156,-29.27126 11.13766,-44.88858 21.4903,-22.973191 70.01374,-43.492394 124.262,-52.546914 10.55174,-1.761178 20.00749,-2.235217 42.90923,-2.151145 34.41141,0.126328 41.16825,1.397602 61.99934,11.664954 16.0209,7.896484 26.26787,17.327064 31.89659,29.355355 3.68807,7.88122 3.86355,8.94504 3.37265,20.44703 -0.44887,10.51737 -1.05879,13.25631 -4.5798,20.56604 -2.23411,4.63803 -7.14309,11.76075 -10.90888,15.82825 -17.16319,18.5383 -59.89425,31.79753 -123.24582,38.24258 -19.78252,2.01258 -66.81852,2.25399 -79.73777,0.40927 z m 93.70369,-20.43883 c 38.21957,-4.45321 77.77059,-14.92699 92.62706,-24.52918 6.31994,-4.08478 8.06477,-6.05788 11.17983,-12.64253 4.21124,-8.90174 4.5772,-14.12522 1.60387,-22.89218 -4.42189,-13.0381 -24.56929,-27.855571 -46.03576,-33.857171 -9.42648,-2.63546 -57.04783,-3.82271 -72.09665,-1.79746 -48.48171,6.52462 -104.83274,29.358061 -119.31629,48.346971 -2.78457,3.65076 -3.58706,6.02968 -3.58706,10.63351 0,3.26185 0.37835,6.309 0.84079,6.77143 0.46244,0.46244 4.77932,-1.45944 9.59308,-4.27083 9.68602,-5.65693 14.58629,-6.48648 15.79631,-2.6741 1.34063,4.224 -2.55348,9.46714 -9.88047,13.30332 -5.9492,3.1148 -6.66012,3.85946 -5.13793,5.38165 1.5222,1.5222 2.89046,1.03446 9.88841,-3.52489 5.03359,-3.2795 9.21542,-5.13584 10.99802,-4.88206 5.30562,0.75531 4.47737,9.77751 -1.17882,12.84098 -7.19523,3.89705 -7.39555,4.16465 -4.6633,6.22937 3.77472,2.85248 6.32097,2.38248 13.37302,-2.46848 3.54413,-2.43792 7.60869,-4.26605 9.03238,-4.0625 3.66272,0.52368 4.14967,6.61476 0.88214,11.03435 l -2.53255,3.42545 3.83821,0.76765 c 7.05995,1.41199 12.33624,0.79774 15.92244,-1.85365 4.31683,-3.19159 7.80752,-2.73855 9.47827,1.23014 l 1.25,2.96924 20.625,-0.7564 c 11.34375,-0.41603 28.21875,-1.6412 37.5,-2.72263 z m -51.25,-25.65121 c -10.0566,-1.20504 -14.64251,-2.91963 -19.04694,-7.12133 -4.68746,-4.4717 -5.51996,-9.99426 -2.52666,-16.76104 3.21018,-7.25704 10.03755,-13.00783 22.22141,-18.71738 20.06639,-9.40343 46.27424,-14.196781 73.30297,-13.406951 16.08107,0.46993 17.2287,0.68094 25.29155,4.650271 13.49853,6.6453 16.70471,15.02498 9.53545,24.92187 -6.49528,8.96647 -30.47569,18.60218 -58.10639,23.34807 -10.71568,1.84054 -36.73449,4.53615 -40.67139,4.21366 -1.03125,-0.0845 -5.53125,-0.5917 -10,-1.12717 z m 55.37221,-22.34174 c 14.71998,-2.99425 33.37779,-8.54867 33.37779,-9.93656 0,-1.96795 -9.57614,-4.12514 -21.28799,-4.79549 -12.44845,-0.71251 -29.22402,0.95176 -41.62752,4.12979 -10.76598,2.75846 -28.33449,9.31764 -28.33449,10.57863 0,4.28786 36.83496,4.30289 57.87221,0.0236 z"
       inkscape:connector-curvature="0" />
  </g>
</svg>
