<?xml version="1.0" encoding="UTF-8" standalone="no"?>
<!-- Created with Inkscape (http://www.inkscape.org/) -->

<svg
   xmlns:dc="http://purl.org/dc/elements/1.1/"
   xmlns:cc="http://creativecommons.org/ns#"
   xmlns:rdf="http://www.w3.org/1999/02/22-rdf-syntax-ns#"
   xmlns:svg="http://www.w3.org/2000/svg"
   xmlns="http://www.w3.org/2000/svg"
   xmlns:sodipodi="http://sodipodi.sourceforge.net/DTD/sodipodi-0.dtd"
   xmlns:inkscape="http://www.inkscape.org/namespaces/inkscape"
   id="svg3371"
   version="1.1"
   inkscape:version="0.91 r13725"
   width="1270.6554"
   height="438.53348"
   viewBox="0 0 1270.6554 438.53348"
   sodipodi:docname="talk-cloud-02.svg">
  <metadata
     id="metadata3377">
    <rdf:RDF>
      <cc:Work
         rdf:about="">
        <dc:format>image/svg+xml</dc:format>
        <dc:type
           rdf:resource="http://purl.org/dc/dcmitype/StillImage" />
        <dc:title />
      </cc:Work>
    </rdf:RDF>
  </metadata>
  <defs
     id="defs3375" />
  <sodipodi:namedview
     pagecolor="#ffffff"
     bordercolor="#666666"
     borderopacity="1"
     objecttolerance="10"
     gridtolerance="10"
     guidetolerance="10"
     inkscape:pageopacity="0"
     inkscape:pageshadow="2"
     inkscape:window-width="1440"
     inkscape:window-height="856"
     id="namedview3373"
     showgrid="false"
     inkscape:zoom="0.24544081"
     inkscape:cx="-853.02282"
     inkscape:cy="31.854767"
     inkscape:window-x="0"
     inkscape:window-y="0"
     inkscape:window-maximized="0"
     inkscape:current-layer="layer4"
     fit-margin-top="0"
     fit-margin-left="0"
     fit-margin-right="0"
     fit-margin-bottom="0" />
  <g
     inkscape:groupmode="layer"
     id="layer4"
     inkscape:label="cloud 02"
     transform="translate(-1031.6481,-301.28215)">
    <path
       id="path3391"
       style="display:inline;fill:#FFE135"
       d="m 1951.875,566.32438 c 37.3514,-1.69639 87.0445,-4.82726 87.7456,-5.52829 0.2891,-0.28914 -2.601,-3.22508 -6.4225,-6.52432 -7.905,-6.82473 -8.6302,-9.74868 -3.6526,-14.72632 5.609,-5.60909 7.9349,-4.51649 24.4081,11.4659 l 8.3287,8.08046 10.4213,-0.88057 c 17.5189,-1.4803 17.2169,-0.78124 5.2863,-12.2351 -11.3304,-10.87763 -12.3371,-13.29057 -7.8992,-18.93256 4.5744,-5.81538 7.7519,-4.55172 21.0837,8.38484 6.6192,6.42314 14.2661,13.12989 16.9929,14.9039 l 4.9577,3.22549 15,-2.36235 c 8.25,-1.29929 15.5546,-2.38103 16.2326,-2.4039 0.678,-0.0229 -6.2126,-7.50222 -15.3125,-16.62082 -10.7122,-10.7344 -16.5451,-17.50478 -16.5451,-19.20454 0,-3.15818 5.7379,-9.2162 8.7291,-9.2162 1.1762,0 10.1019,7.55359 19.835,16.78574 11.5027,10.91041 19.9919,17.89628 24.2539,19.95856 l 6.557,3.17282 14.2946,-3.405 14.2945,-3.40501 -10.5445,-6.10876 c -18.0482,-10.45585 -34.9253,-23.62648 -34.915,-27.24713 0,-0.89442 1.1194,-3.45435 2.4817,-5.68872 3.5027,-5.74479 7.4328,-5.3848 15.4393,1.41417 8.0343,6.82249 24.2804,17.37942 38.6714,25.12899 l 10.9719,5.90844 8.4031,-3.15098 c 10.9404,-4.10245 20.0293,-8.19937 20.7395,-9.34861 0.3109,-0.50287 -5.7128,-4.14819 -13.3857,-8.10071 -15.525,-7.99736 -26.2153,-15.49363 -26.8585,-18.834 -0.5598,-2.9066 2.9336,-8.11044 6.5512,-9.75869 2.4608,-1.12121 3.8659,-0.61124 9.532,3.45955 3.6553,2.62603 14.5243,8.86903 24.1533,13.87332 l 17.5072,9.09872 3.0639,-2.81385 c 4.5934,-4.21846 10.2251,-12.28629 10.2251,-14.64812 0,-1.44307 -2.2109,-2.77624 -7.1875,-4.33403 -3.9531,-1.23742 -10.7031,-3.83612 -15,-5.77489 -6.9536,-3.13747 -7.8125,-3.92001 -7.8125,-7.11771 0,-4.37366 4.0866,-9.0641 7.8973,-9.0641 1.5398,0 6.7211,1.67229 11.5137,3.71619 11.9878,5.11229 12.2866,5.02236 9.2374,-2.77869 -8.5214,-21.8006 -31.4094,-43.21134 -65.0623,-60.86296 -124.8488,-65.48569 -426.6556,-97.01489 -747.9611,-78.13813 -147.8796,8.68797 -275.5512,30.4132 -330.3096,56.20713 -20.0354,9.43767 -41.6949,24.90367 -61.8976,44.1981 -21.3863,20.42477 -29.4747,37.84836 -24.5036,52.78434 2.5308,7.60395 4.0273,8.27433 9.6981,4.34448 2.7378,-1.89731 9.0919,-7.04132 14.1203,-11.43113 6.2943,-5.49508 10.187,-7.99049 12.4957,-8.0104 4.2699,-0.0369 5.5648,3.5616 3.0391,8.44562 -1.8759,3.6276 -15.4401,15.9125 -22.9394,20.77591 -2.2259,1.44349 -4.054,2.99915 -4.0625,3.457 -0.01,0.45785 2.2967,2.66373 5.1226,4.90193 6.078,4.81387 4.0545,5.66324 25.4869,-10.69795 18.9717,-14.4827 23.6383,-17.31374 26.8561,-16.29245 1.871,0.59385 2.5189,1.88671 2.5189,5.02664 0,3.33372 -0.8586,4.84746 -4.0625,7.16207 -4.5594,3.29394 -27.3008,20.45513 -31.2987,23.61879 -2.5455,2.01432 -2.4808,2.10776 3.5719,5.15751 3.3903,1.70831 10.3194,4.5977 15.3979,6.42086 l 9.2336,3.31484 14.1071,-13.78485 c 14.0232,-13.70286 17.4237,-15.6776 20.5372,-11.92609 2.7336,3.29374 0.2465,7.72202 -10.4905,18.67885 -5.7757,5.89388 -10.0587,10.9896 -9.5179,11.32383 0.5408,0.33424 7.5665,2.30512 15.6128,4.37976 l 14.6295,3.77208 3.9523,-2.73927 c 2.1738,-1.50658 8.0677,-6.60585 13.0976,-11.33167 7.3189,-6.8765 9.8152,-8.51503 12.5,-8.20488 2.8139,0.32507 3.4205,1.07807 3.7629,4.67098 0.3711,3.89451 -0.3979,5.03992 -8.4695,12.61529 l -8.8775,8.33185 15.1046,2.64827 15.1046,2.64826 8.9898,-7.34031 c 4.9444,-4.03719 10.5201,-9.11662 12.3905,-11.28765 2.5743,-2.98814 4.2449,-3.85034 6.875,-3.54822 2.9099,0.33423 3.5382,1.06293 3.8678,4.48543 0.3405,3.53607 -0.6348,5.15722 -7.2422,12.03813 l -7.6357,7.95176 4.1172,0.73958 c 2.2645,0.40677 7.7735,1.08467 12.2422,1.50644 l 8.125,0.76688 6.6704,-8.8367 c 7.1156,-9.4266 13.0836,-15.12745 15.8362,-15.12745 0.9294,0 2.5929,0.90302 3.6965,2.00671 2.6893,2.68926 1.5383,5.94307 -4.8171,13.61829 -2.8465,3.4375 -5.8701,7.15192 -6.7191,8.25429 -1.3838,1.79635 -0.049,2.15582 12.8631,3.4649 16.2197,1.64439 17.7021,1.27169 21.6665,-5.44728 6.4821,-10.98648 16.6507,-6.95416 10.8331,4.29586 l -1.8455,3.56863 7.158,0.74783 c 11.7832,1.23103 50.1574,3.07281 82.8307,3.97545 l 30.6728,0.84737 2.4522,-5.47844 c 3.5552,-7.94267 17.1486,-21.15454 26.5528,-25.80775 11.3478,-5.61481 19.6225,-6.98712 37.1494,-6.16096 24.037,1.13304 39.6889,6.97936 46.5905,17.40256 2.7527,4.15737 3.4507,6.73254 3.6234,13.3684 l 0.214,8.21914 26.661,0.92693 c 97.6487,3.39495 315.2933,3.97992 380.4111,1.02245 z M 1466.25,587.5253 c 0,-8.62876 7.3434,-16.53505 12.6968,-13.67003 2.1783,1.16585 2.437,2.14548 1.7595,6.66374 -1.2587,8.39261 1.0133,11.14102 7.2356,8.75328 1.6407,-0.62962 1.571,-1.26154 -0.518,-4.6875 -3.2375,-5.30955 -3.0475,-9.07479 0.6442,-12.7666 4.3825,-4.38239 7.6143,-3.91215 11.129,1.61931 1.6383,2.57812 4.0645,5.65768 5.3918,6.84344 2.3059,2.06005 2.6937,1.96703 8.7202,-2.09145 21.5225,-14.49408 16.1692,-26.84398 -14.1507,-32.64513 -24.5323,-4.69379 -44.7841,0.98093 -51.6699,14.47825 -5.6775,11.12878 -1.0384,22.64836 11.2704,27.98617 5.8852,2.55214 7.4911,2.44849 7.4911,-0.48348 z m -15.6511,20.22293 c -11.5068,-3.97882 -20.888,-13.22992 -22.584,-22.2708 l -0.7931,-4.22743 -18.9234,-0.0129 c -56.864,-0.0386 -151.2195,-6.84627 -200.7984,-14.48737 -138.8901,-21.40579 -195.1985,-59.50098 -170.0217,-115.0273 16.9088,-37.29145 73.3666,-80.89604 128.1467,-98.9728 97.022,-32.01606 282.238,-51.49517 489.375,-51.46745 258.3276,0.0346 465.808,30.31722 570.0918,83.20729 27.7172,14.0575 45.8208,27.60407 58.9492,44.11043 13.4889,16.95969 19.1571,31.80872 18.1488,47.54385 -1.5963,24.91015 -18.3474,44.67874 -51.4854,60.75989 -53.0306,25.73455 -144.112,40.54119 -297.5794,48.37598 -43.7385,2.23292 -296.9061,2.1716 -367.892,-0.0891 l -52.8919,-1.68446 -7.3837,5.801 c -9.7423,7.65392 -24.9388,15.15105 -36.9243,18.21642 -12.293,3.14405 -28.7066,3.24259 -37.4342,0.22474 z m -34.4609,51.53045 c 0.285,-0.28497 -0.1357,-1.9532 -0.935,-3.70722 -2.2672,-4.97605 -1.7265,-9.16157 1.6151,-12.50327 4.5736,-4.57363 8.9031,-4.08298 10.6489,1.20682 2.0654,6.25798 4.4686,7.87324 7.5565,5.07877 3.6579,-3.31035 3.0455,-7.45143 -1.8216,-12.31852 -10.7987,-10.79866 -40.4788,-14.31482 -50.7343,-6.01041 -5.8492,4.73641 -2.5129,16.78849 6.6406,23.98869 3.6792,2.89401 4.2322,2.54812 1.8989,-1.18789 -1.1345,-1.8166 -1.1481,-3.14694 -0.056,-5.54192 1.7562,-3.85447 7.1288,-7.55864 9.5922,-6.61335 2.8206,1.08236 5.755,6.33793 6.4963,11.63491 1.1042,7.8919 1.3883,8.29676 5.1578,7.3507 1.8828,-0.47256 3.6564,-1.09235 3.9414,-1.37731 z m -26.4699,19.36126 c -15.6386,-3.68441 -26.7103,-15.97781 -28.0897,-31.18894 -1.3357,-14.72997 6.747,-27.75845 21.8264,-35.18197 7.2263,-3.55754 9.7986,-4.13412 20.3301,-4.55712 14.063,-0.56485 22.9196,1.00367 33.2214,5.8835 22.2142,10.52265 25.3142,33.38673 6.6883,49.32984 -6.3854,5.4656 -19.6137,12.45024 -28.559,15.07931 -7.3175,2.15064 -17.8666,2.41435 -25.4175,0.63538 z M 1330,714.91782 c 0,-5.27692 1.7369,-8.04843 6.2034,-9.8985 4.994,-2.06857 7.5466,-0.0551 7.5466,5.95247 0,4.26841 0.08,4.34356 2.3895,2.25325 3.4008,-3.07765 9.3655,-2.19518 9.885,1.46246 0.4634,3.263 2.1201,3.69317 3.2167,0.83526 2.8,-7.29659 -2.9193,-19.6743 -10.8241,-23.42533 -11.0122,-5.22571 -26.4926,-0.61208 -31.6937,9.44573 -1.5328,2.96398 -1.5257,4.01043 0.053,7.78808 1.7253,4.12926 8.2591,9.40391 11.6613,9.41408 0.9113,0.003 1.5625,-1.5926 1.5625,-3.8275 z m -5.625,23.79924 c -11.7486,-2.37093 -20.0469,-7.53333 -24.3142,-15.12616 -3.8069,-6.77337 -3.1329,-17.57811 1.69,-27.0957 10.9712,-21.6507 42.0026,-32.69499 60.2233,-21.43394 5.8992,3.64588 12.4823,11.40692 14.3884,16.96285 2.5659,7.47912 1.9958,18.79577 -1.3325,26.45018 -3.7432,8.60876 -13.1017,17.10625 -21.6284,19.63835 -6.7261,1.99746 -20.6835,2.2881 -29.0266,0.60442 z"
       inkscape:connector-curvature="0" />
  </g>
</svg>
