<?xml version="1.0" encoding="UTF-8" standalone="no"?>
<!-- Created with Inkscape (http://www.inkscape.org/) -->

<svg
   xmlns:dc="http://purl.org/dc/elements/1.1/"
   xmlns:cc="http://creativecommons.org/ns#"
   xmlns:rdf="http://www.w3.org/1999/02/22-rdf-syntax-ns#"
   xmlns:svg="http://www.w3.org/2000/svg"
   xmlns="http://www.w3.org/2000/svg"
   xmlns:sodipodi="http://sodipodi.sourceforge.net/DTD/sodipodi-0.dtd"
   xmlns:inkscape="http://www.inkscape.org/namespaces/inkscape"
   id="svg3371"
   version="1.1"
   inkscape:version="0.91 r13725"
   width="909.78314"
   height="806.05444"
   viewBox="0 0 909.78315 806.05444"
   sodipodi:docname="talk-cloud-07.svg">
  <metadata
     id="metadata3377">
    <rdf:RDF>
      <cc:Work
         rdf:about="">
        <dc:format>image/svg+xml</dc:format>
        <dc:type
           rdf:resource="http://purl.org/dc/dcmitype/StillImage" />
        <dc:title />
      </cc:Work>
    </rdf:RDF>
  </metadata>
  <defs
     id="defs3375" />
  <sodipodi:namedview
     pagecolor="#ffffff"
     bordercolor="#666666"
     borderopacity="1"
     objecttolerance="10"
     gridtolerance="10"
     guidetolerance="10"
     inkscape:pageopacity="0"
     inkscape:pageshadow="2"
     inkscape:window-width="1440"
     inkscape:window-height="856"
     id="namedview3373"
     showgrid="false"
     inkscape:zoom="0.24544081"
     inkscape:cx="-651.69305"
     inkscape:cy="-306.10077"
     inkscape:window-x="0"
     inkscape:window-y="0"
     inkscape:window-maximized="0"
     inkscape:current-layer="layer9"
     fit-margin-top="0"
     fit-margin-left="0"
     fit-margin-right="0"
     fit-margin-bottom="0" />
  <g
     inkscape:groupmode="layer"
     id="layer9"
     inkscape:label="cloud 07"
     transform="translate(-383.76935,394.46073)">
    <path
       transform="translate(-2785.1984,-610.71073)"
       id="path3427"
       style="display:inline;fill:#B2E9B5"
       d="M 3466.0775,960.84721 C 3517.4574,929.49396 3574.7011,903.04486 3652.5,874.71182 3688.7679,861.5037 3780.5079,830 3782.7026,830 c 3.5675,0 5.6639,3.2744 6.5495,10.22978 6.3939,50.21541 15.3529,88.16153 24.6525,104.41539 14.2114,24.83902 39.4933,31.79226 74.6782,20.53867 l 10.7922,-3.4518 0.049,-7.42851 c 0.06,-9.24719 1.0668,-12.22467 4.8076,-14.22669 5.572,-2.98199 7.6022,-1.41778 8.0277,6.18487 0.2113,3.7748 0.846,7.32929 1.4105,7.89884 0.9863,0.99491 13.8304,-4.71801 13.8304,-6.15155 0,-0.38439 -2.5312,-3.98844 -5.625,-8.009 -3.0937,-4.02056 -5.625,-8.5034 -5.625,-9.96188 0,-3.6834 5.6563,-9.04923 9.0224,-8.55907 2.4664,0.35915 9.8036,8.25506 14.821,15.94945 l 1.9685,3.01866 8.0315,-4.83244 c 15.5377,-9.34875 67.1775,-44.73085 79.9066,-54.74968 l 3.125,-2.45964 -5.625,0.84809 c -11.3346,1.7089 -47.8791,11.12047 -94.9157,24.4443 -55.5916,15.74711 -72.1972,20.05221 -77.3453,20.05221 -6.7681,0 -6.973,-1.48928 -3.4705,-25.2329 4.2192,-28.60168 6.7314,-52.67623 7.7676,-74.43924 0.6444,-13.5333 1.3649,-18.64796 3.0071,-21.34844 1.753,-2.88258 7.0717,-5.64826 28.2458,-14.68768 31.5259,-13.45874 69.9895,-32.67357 93.202,-46.55983 9.4137,-5.63156 17.382,-10.66959 17.707,-11.19561 0.3251,-0.52603 -3.743,-4.3633 -9.0401,-8.52729 -18.3883,-14.45447 -33.7905,-38.00314 -40.8028,-62.38401 -5.436,-18.90004 -7.2292,-33.9027 -7.3602,-61.57531 -0.1038,-21.95868 -0.3692,-25.23173 -1.9949,-24.62128 -1.0312,0.38724 -6.5815,3.62738 -12.334,7.20033 -9.1628,5.69111 -17.3194,12.6592 -25.7511,21.99867 -2.7424,3.03757 -6.632,3.03918 -8.5338,0.004 -4.6667,-7.44909 11.4565,-22.87106 44.3985,-42.4673 l 5.3983,-3.21131 2.8981,-24.69744 c 1.594,-13.58359 2.6262,-24.96935 2.2939,-25.30169 -0.3323,-0.33233 -7.8359,3.01543 -16.6745,7.43948 C 3906.0857,528.21246 3880.336,540 3877.7105,540 c -3.2489,0 -4.6127,-4.16239 -2.7951,-8.52965 1.1612,-2.78988 7.8025,-6.42739 39.9977,-21.90711 37.1743,-17.8737 38.6313,-18.70775 39.305,-22.5 4.9827,-28.0446 6.4818,-79.46861 2.8115,-96.43824 -7.3845,-34.14241 -27.0542,-49.32723 -63.9046,-49.33351 -44.6984,-0.007 -145.0081,16.51232 -251.25,41.37824 -46.8479,10.96472 -47.6556,11.08243 -49.2377,7.17527 -0.6615,-1.6335 -1.8724,-16.18875 -2.6909,-32.345 -0.8185,-16.15625 -1.8445,-33.2284 -2.2798,-37.93811 l -0.7916,-8.5631 -13.75,10.09345 c -7.5625,5.5514 -17.0706,12.667 -21.1291,15.81244 -9.038,7.00468 -12.4443,7.09617 -13.0049,0.3493 -0.373,-4.48918 -0.031,-4.90198 11.9761,-14.46795 6.7982,-5.41582 17.4897,-13.39564 23.759,-17.73297 l 11.3988,-7.88602 -0.7096,-8.27101 c -0.3903,-4.54907 -1.0653,-11.31994 -1.4999,-15.04639 l -0.7904,-6.77536 -17.7346,13.34331 c -9.7541,7.33882 -25.1455,19.52837 -34.203,27.08787 -9.0575,7.55949 -17.5103,13.74454 -18.7839,13.74454 -3.201,0 -5.1834,-4.10099 -3.7741,-7.8076 1.8681,-4.91354 31.7649,-29.99086 59.8286,-50.18401 l 14.0831,-10.13339 -0.8112,-7.5 c -0.4461,-4.125 -0.9564,-7.6728 -1.1338,-7.88401 -0.1773,-0.21121 -8.6808,1.86707 -18.8967,4.61839 -10.2159,2.75132 -43.8869,11.4739 -74.8244,19.3835 -109.2156,27.9225 -162.3311,44.79222 -200,63.52098 -14.0816,7.00133 -30.2591,17.07374 -31.1781,19.41213 -0.3353,0.85305 -0.9781,11.8218 -1.4286,24.375 -1.1813,32.91339 1.5166,72.05062 8.2942,120.32401 3.1653,22.54395 3.2084,22.70811 6.1675,23.48196 3.7066,0.96929 4.3586,4.17974 1.9388,9.54605 -2.02,4.47965 -2.0248,5.40339 -0.077,15.24529 1.1402,5.76219 2.3363,11.40171 2.6581,12.53229 0.4997,1.75587 2.5382,1.19712 13.9802,-3.83213 23.7082,-10.42071 40.2114,-16.63846 42.1687,-15.88738 2.8698,1.10126 3.5626,4.15791 1.869,8.24671 -1.2102,2.92152 -3.4527,4.45952 -11.0799,7.59892 -5.2595,2.16482 -17.0718,7.07475 -26.2495,10.91095 l -16.6869,6.97492 0.728,4.55256 c 1.9101,11.9456 19.9586,61.25889 24.8753,67.96625 1.3826,1.88615 2.6537,1.57564 14.0205,-3.4252 6.875,-3.02465 18.4062,-7.5007 25.625,-9.94676 13.7422,-4.65644 47.4882,-14.58943 49.5659,-14.58943 4.0497,0 5.5828,4.31445 12.2152,34.375 10.9322,49.54993 13.5242,69.68187 15.5006,120.39319 l 0.8435,21.64319 7.5,-4.84309 c 27.8791,-18.00275 90.8121,-53.21149 93.9921,-52.58519 3.4789,0.68515 4.7201,4.0815 3.0049,8.2223 -1.2419,2.9981 -4.7345,5.45503 -17.4004,12.24036 -23.3994,12.5355 -54.5889,30.53459 -71.7397,41.40013 l -15.1032,9.56832 0.7545,19.32009 c 0.415,10.62605 1.0137,19.57921 1.3304,19.89594 0.3166,0.31671 5.545,-2.75049 11.6186,-6.81601 29.0613,-19.45315 69.5631,-42.81423 74.2282,-42.81423 3.3677,0 3.6896,0.37335 3.6896,4.27993 0,5.47466 -0.7803,6.07403 -31.25,24.00398 -13.4062,7.88893 -31.8744,19.23671 -41.0402,25.2173 l -16.6652,10.87379 0.754,12.5 c 0.4147,6.875 1.1008,15.45312 1.5248,19.0625 0.7215,6.14234 0.9913,6.5625 4.215,6.5625 5.7455,0 6.7473,6.43587 1.8989,12.198 l -3.0627,3.63981 2.4505,11.76859 c 2.7219,13.07189 7.4188,29.73309 11.07,39.2686 1.3163,3.4375 2.9894,7.79687 3.7181,9.6875 0.7287,1.89062 1.683,3.4375 2.1209,3.4375 0.4378,0 8.4673,-4.68126 17.8434,-10.40279 z m 447.1894,58.84029 c -2.2606,-3.5505 -7.5365,-20.46673 -9.4539,-30.3125 -2.1159,-10.86457 -2.1514,-10.93327 -4.8875,-9.4689 -5.0732,2.7151 -24.7892,7.66733 -35.2376,8.85095 -15.3898,1.74336 -27.9764,-0.0903 -39.7049,-5.78401 -26.2567,-12.74688 -39.4684,-42.28878 -49.5385,-110.77031 -1.6049,-10.91352 -3.1207,-19.9975 -3.3686,-20.18663 -0.5093,-0.38839 -89.4403,30.20663 -119.5325,41.12284 -81.8855,29.70467 -141.0005,57.66831 -193.306,91.44124 -8.8758,5.7309 -17.4903,10.41982 -19.1436,10.41982 -2.547,0 -3.762,-1.61332 -7.9583,-10.56801 -6.414,-13.6871 -12.7765,-33.21729 -16.3144,-50.07758 l -2.8162,-13.42192 -10.7225,11.09626 c -5.8974,6.10294 -15.2214,17.0025 -20.7199,24.22125 -8.7497,11.48705 -10.4616,13.125 -13.7174,13.125 -11.17,0 0.1758,-18.75619 29.4889,-48.75 l 13.438,-13.75 -1.7185,-14.375 c -0.9451,-7.90625 -1.7376,-16.76562 -1.761,-19.6875 -0.024,-2.92187 -0.4021,-5.3125 -0.8417,-5.3125 -3.7794,0 -39.0465,33.02756 -55.0589,51.5625 -10.7861,12.48519 -14.363,14.5646 -17.8421,10.37249 -2.134,-2.57141 -0.682,-6.05529 5.9233,-14.21224 15.6978,-19.38484 34.9749,-38.15084 57.4886,-55.96415 l 8.818,-6.97695 -0.6827,-19.57832 c -0.3755,-10.76808 -0.8738,-19.7981 -1.1074,-20.0667 -0.5286,-0.60789 -15.8699,10.89545 -28.1439,21.10307 -5.0713,4.21763 -16.1071,14.42061 -24.5238,22.67329 -13.0425,12.78832 -15.8123,14.94632 -18.75,14.60845 -2.8907,-0.33246 -3.511,-1.06503 -3.8447,-4.53936 -0.3647,-3.79978 0.7225,-5.24992 13.125,-17.50725 15.2104,-15.03224 29.9732,-27.73149 48.8353,-42.00932 l 12.8125,-9.69851 -8e-4,-8.946 c 0,-26.69666 -3.5992,-71.19987 -7.5933,-93.946 -2.7702,-15.77541 -13.0889,-62.9747 -13.9575,-63.84335 -0.7994,-0.79931 -36.2398,9.95733 -49.5805,15.04835 -5.9935,2.28724 -16.1393,6.79121 -22.5459,10.00885 -16.02,8.04573 -16.0071,8.05136 -25.0735,-10.95289 -7.7741,-16.2956 -13.8893,-32.89416 -20.0485,-54.4188 -2.0999,-7.33818 -4.0615,-14.06237 -4.3593,-14.94265 -0.4066,-1.2018 -1.8703,-0.92247 -5.8766,1.12134 -10.1627,5.18464 -27.1402,16.21784 -37.429,24.32398 -11.9311,9.40015 -16.377,10.31401 -17.0399,3.50261 -0.329,-3.38005 0.5915,-4.76944 6.875,-10.37726 8.7072,-7.77093 27.4268,-20.482 40.5282,-27.51964 l 9.5233,-5.11564 -3.0221,-13.99952 c -1.6621,-7.69973 -3.2156,-14.19303 -3.4521,-14.42955 -0.2365,-0.23653 -13.4543,3.88096 -29.3729,9.14996 -18.874,6.24725 -30.252,10.68172 -32.7064,12.74689 -2.9962,2.52116 -5.2143,3.19547 -10.8783,3.3071 -6.7423,0.13288 -7.1344,-0.027 -7.4869,-3.0531 -0.4526,-3.88617 3.5046,-9.22328 8.9199,-12.03007 2.1736,-1.12665 18.5771,-6.93928 36.4521,-12.91697 27.6231,-9.23763 32.4785,-11.22425 32.3564,-13.23909 -0.079,-1.3038 -1.6097,-13.9018 -3.4014,-27.99555 -4.3311,-34.0675 -5.7463,-53.3121 -6.618,-90 -0.8555,-36.00544 0.6032,-57.46749 4.2401,-62.38182 3.3439,-4.51842 23.712,-18.23492 38.5263,-25.94477 40.798,-21.2326 86.7782,-36.13576 202.3966,-65.60092 35.0625,-8.93564 73.6365,-19.01993 85.7199,-22.40955 12.0835,-3.38961 23.4542,-6.16294 25.2685,-6.16294 3.911,0 5.8866,3.06034 5.8866,9.11836 0,2.35549 0.3504,6.8389 0.7786,9.96314 l 0.7785,5.68044 12.034,-7.75438 c 23.4085,-15.08391 27.5608,-17.3032 30.8363,-16.4811 2.3462,0.58888 3.0726,1.59673 3.0726,4.26349 0,4.36605 -3.732,7.87116 -16.875,15.84899 -5.5,3.33851 -14.1375,8.83647 -19.1945,12.21771 l -9.1945,6.14769 0.7804,8.31032 c 0.4291,4.57069 1.104,11.5244 1.4995,15.45272 l 0.7191,7.14237 9.8547,-4.95487 c 5.4202,-2.72519 10.7003,-4.95488 11.7338,-4.95488 2.4909,0 3.8296,5.6973 2.1862,9.30405 -0.756,1.65919 -5.4366,5.08791 -11.0961,8.12831 -5.3837,2.89225 -10.2079,5.66305 -10.7204,6.15735 -1.2198,1.1767 3.037,71.41029 4.3282,71.41029 0.5442,0 15.4715,-3.3385 33.1716,-7.4189 87.1077,-20.08087 173.2264,-35.55136 222.807,-40.02539 21.2756,-1.91986 49.1094,-1.62601 58.6336,0.61902 25.0339,5.9009 43.0164,25.7831 49.6999,54.95027 3.0976,13.51806 3.1059,61.25619 0.015,84.57895 -1.1539,8.70593 -2.098,16.11661 -2.098,16.4682 0,0.3516 11.0209,-4.69439 24.4909,-11.21329 26.1905,-12.67507 30.8138,-13.83297 31.5061,-7.89053 0.3631,3.11751 -3.771,9.93167 -6.0255,9.93167 -0.6034,0 -12.5708,5.54324 -26.5943,12.3183 l -25.4971,12.3183 -1.4359,11.1192 c -2.7498,21.29445 -4.3483,38.00674 -3.6975,38.6576 0.3604,0.36036 16.7558,-7.03036 36.4342,-16.42385 29.817,-14.23314 36.0946,-16.81697 37.674,-15.50624 2.3827,1.97744 2.4335,6.19173 0.115,9.50238 -0.9793,1.39806 -17.4324,10.06346 -36.5625,19.25642 -19.1302,9.19297 -36.0477,17.5202 -37.5945,18.50495 -2.7447,1.74724 -2.8125,2.32867 -2.8125,24.08268 0,55.17226 11.1623,89.03309 37.7381,114.47725 4.413,4.22509 11.6491,9.96866 16.0802,12.7635 12.5287,7.90216 13.6817,8.87549 13.6817,11.54994 0,5.66606 -3.9308,9.7135 -19,19.56427 -30.7813,20.12163 -68.5397,40.18036 -110.2132,58.54951 -12.286,5.4155 -22.4896,10.41885 -22.6747,11.11858 -0.1851,0.69971 -0.9988,10.83471 -1.808,22.52221 -1.3199,19.06281 -4.9978,51.76515 -7.0549,62.7306 -0.4276,2.27943 -0.3867,4.1444 0.091,4.1444 1.947,0 23.4256,-5.76367 60.7002,-16.2886 69.2106,-19.54245 102.8083,-27.47105 132.7065,-31.31705 13.6355,-1.75401 16.0031,-1.00092 16.0031,5.09014 0,4.98626 -3.909,9.21724 -16.0762,17.40035 -5.9394,3.99449 -25.705,17.89314 -43.9238,30.88587 -18.2187,12.99274 -40.8071,28.58689 -50.1963,34.65367 l -17.0714,11.03048 10.2884,16.46008 c 5.6586,9.05304 10.6086,17.33327 10.9998,18.40052 1.2109,3.3028 -2.3217,9.77428 -5.814,10.65079 -1.7605,0.44185 -3.9052,0.53289 -4.7662,0.20229 -0.8609,-0.33059 -6.6278,-8.8271 -12.8153,-18.88114 -6.1875,-10.05402 -11.6858,-18.2817 -12.2187,-18.28372 -1.201,-0.005 -18.4981,8.60733 -20.471,10.1921 -1.6503,1.32572 0.024,9.98332 5.1951,26.8622 4.0826,13.32622 3.9939,15.73422 -0.7262,19.70592 -4.7008,3.9554 -5.6075,4.0041 -7.8873,0.4236 z"
       inkscape:connector-curvature="0" />
  </g>
</svg>
