<?xml version="1.0" encoding="UTF-8" standalone="no"?>
<!-- Created with Inkscape (http://www.inkscape.org/) -->

<svg
   xmlns:dc="http://purl.org/dc/elements/1.1/"
   xmlns:cc="http://creativecommons.org/ns#"
   xmlns:rdf="http://www.w3.org/1999/02/22-rdf-syntax-ns#"
   xmlns:svg="http://www.w3.org/2000/svg"
   xmlns="http://www.w3.org/2000/svg"
   xmlns:sodipodi="http://sodipodi.sourceforge.net/DTD/sodipodi-0.dtd"
   xmlns:inkscape="http://www.inkscape.org/namespaces/inkscape"
   id="svg3371"
   version="1.1"
   inkscape:version="0.91 r13725"
   width="536.7804"
   height="817.40021"
   viewBox="0 0 536.78037 817.40017"
   sodipodi:docname="talk-cloud-12.svg">
  <metadata
     id="metadata3377">
    <rdf:RDF>
      <cc:Work
         rdf:about="">
        <dc:format>image/svg+xml</dc:format>
        <dc:type
           rdf:resource="http://purl.org/dc/dcmitype/StillImage" />
        <dc:title />
      </cc:Work>
    </rdf:RDF>
  </metadata>
  <defs
     id="defs3375" />
  <sodipodi:namedview
     pagecolor="#ffffff"
     bordercolor="#666666"
     borderopacity="1"
     objecttolerance="10"
     gridtolerance="10"
     guidetolerance="10"
     inkscape:pageopacity="0"
     inkscape:pageshadow="2"
     inkscape:window-width="1440"
     inkscape:window-height="856"
     id="namedview3373"
     showgrid="false"
     inkscape:zoom="0.24544081"
     inkscape:cx="1063.7486"
     inkscape:cy="80.897151"
     inkscape:window-x="0"
     inkscape:window-y="0"
     inkscape:window-maximized="0"
     inkscape:current-layer="layer14"
     fit-margin-top="0"
     fit-margin-left="0"
     fit-margin-right="0"
     fit-margin-bottom="0" />
  <g
     inkscape:groupmode="layer"
     id="layer14"
     inkscape:label="cloud 12"
     transform="translate(556.18501,143.08882)">
    <path
       transform="translate(-2266.9,-1504.4533)"
       id="path3529"
       style="display:inline;fill:#B2E9B5"
       d="m 1955.8339,1487.9166 c -3.296,-3.2958 3.0094,-18.2385 10.2169,-24.2121 6.2856,-5.2095 11.9042,-4.8325 12.4555,0.8358 0.3093,3.1823 -0.4309,4.5863 -3.9543,7.5 -2.3841,1.9716 -5.295,5.9917 -6.4685,8.9337 -1.1735,2.9419 -3.154,5.895 -4.4011,6.5625 -2.615,1.3995 -6.6345,1.5942 -7.8485,0.3801 z m 20.9299,6.4584 c -1.268,-5.0521 0.5615,-9.5286 6.1972,-15.1645 5.8366,-5.8366 11.0195,-7.8631 13.9308,-5.447 3.0321,2.5164 2.1418,6.2992 -2.5163,10.6925 -2.4062,2.2694 -4.375,4.752 -4.375,5.5169 0,2.5782 -6.1109,7.5271 -9.2944,7.5271 -2.326,0 -3.3646,-0.8232 -3.9423,-3.125 z m -200.9774,504.9826 c -2.5133,-2.5133 -2.5316,-3.5236 -0.1476,-8.1336 1.5893,-3.0735 3.6183,-4.1817 12.8125,-6.9977 17.8007,-5.4523 21.9245,-4.623 19.7666,3.9748 -0.9288,3.7002 -4.7278,5.7138 -17.533,9.293 -5.4673,1.5282 -10.5979,3.0308 -11.4014,3.339 -0.8035,0.3084 -2.3771,-0.3556 -3.4971,-1.4755 z m 0.047,31.059 c -1.9345,-1.9343 -0.7302,-8.8261 1.9791,-11.3251 3.1774,-2.9309 31.7546,-10.0047 35.1515,-8.7012 2.728,1.0467 2.6381,7.3724 -0.1515,10.6633 -1.5962,1.883 -6.7305,3.6097 -18.9962,6.3884 -19.5653,4.4325 -16.9567,4.001 -17.9829,2.9746 z m -6.7709,44.4038 c -2.538,-2.5508 -1.8066,-6.0187 2.0914,-9.9165 2.3702,-2.3703 4.9362,-3.6539 7.3042,-3.6539 5.8644,0 17.4592,-4.5532 25.4033,-9.9759 7.838,-5.3501 9.7558,-5.9069 12.1386,-3.5241 4.4186,4.4186 0.1624,10.6216 -12.4898,18.2021 -12.3866,7.4214 -31.0951,12.2376 -34.4477,8.8683 z m 16.7709,43.0962 c -0.4584,-0.4582 -0.8334,-2.3217 -0.8334,-4.1411 0,-3.8899 2.2979,-6.1554 19.1516,-18.8809 17.1948,-12.983 17.6808,-13.2549 20.1042,-11.2436 5.7627,4.7828 0.089,12.1415 -20.7006,26.845 -10.7203,7.5823 -15.5416,9.601 -17.7218,7.4206 z m 93.5835,10.4477 c -2.4328,-3.7129 -4.4169,-14.235 -4.4169,-23.4238 0,-6.5257 0.369,-7.5287 3.8459,-10.4544 6.8069,-5.7276 9.9041,-3.5962 9.9041,6.8153 0,3.8782 0.8376,9.8126 1.8615,13.1875 2.4951,8.2248 2.3639,11.2857 -0.6115,14.2611 -3.3819,3.3819 -8.2304,3.2051 -10.5831,-0.3858 z m 38.0913,2.0008 c -3.7801,-2.6477 -7.4475,-11.1457 -7.4807,-17.3347 -0.02,-3.7855 0.744,-5.8194 2.9751,-7.9155 4.6359,-4.3551 8.4462,-3.1222 10.3098,3.3362 0.8452,2.9294 2.7136,6.9789 4.152,8.9989 2.8986,4.0708 2.5012,8.6325 -1.0143,11.643 -3.4481,2.9528 -6.02,3.3186 -8.9418,1.2721 z m -82.8537,5.5374 c -1.5917,-4.148 1.9969,-17.2204 8.0594,-29.3584 7.7156,-15.4477 10.9887,-19.3601 15.7395,-18.8131 5.3944,0.6211 5.1526,5.564 -0.7678,15.7011 -5.0887,8.7131 -10.1856,21.988 -10.1856,26.5285 0,5.5313 -11.043,10.6394 -12.8455,5.9419 z m 49.7205,19.857 c 17.1875,-1.7255 50.6563,-5.106 74.375,-7.5124 59.9257,-6.0796 72.6585,-7.0207 106.5625,-7.8766 16.3281,-0.4122 29.6875,-1.1436 29.6875,-1.6254 0,-0.4817 -2.482,-6.8 -5.5156,-14.0406 -15.0731,-35.9774 -23.096,-69.5535 -33.1761,-138.8439 -10.157,-69.8185 -9.774,-93.925 1.8616,-117.1555 10.4426,-20.849 31.7129,-35.3872 63.7051,-43.543 9.2285,-2.3525 42.6597,-7.5879 61.875,-9.6895 l 8.125,-0.8886 -3.9585,-1.6281 c -5.4631,-2.247 -49.9071,-14.0928 -78.2299,-20.8508 -29.8731,-7.128 -41.2749,-12.4314 -54.1831,-25.2027 -20.1093,-19.8962 -26.4584,-46.0787 -29.258,-120.6524 -0.7098,-18.9063 -1.8429,-46.1886 -2.518,-60.6275 -3.7031,-79.1994 0.8302,-114.4548 21.5379,-167.4975 3.4892,-8.9375 7.4273,-18.4139 8.7515,-21.0586 1.3241,-2.6448 2.184,-5.0322 1.9108,-5.3053 -0.2731,-0.2732 -9.7342,4.2358 -21.0247,10.0199 -39.756,20.367 -78.4365,34.967 -117.7296,44.4369 -27.8732,6.7176 -37.8972,7.9397 -64.6734,7.8848 -26.0596,-0.054 -37.8433,-1.4041 -84.8953,-9.7312 -17.4737,-3.0924 -31.9571,-5.4358 -32.1855,-5.2074 -0.2282,0.2283 1.0093,3.9204 2.75,8.2045 7.6785,18.8968 11.2398,42.1169 13.7278,89.5064 1.8522,35.2817 3.3914,53.5106 9.8679,116.875 5.1036,49.933 7.0888,82.9734 7.8487,130.625 1.1061,69.375 -0.9944,95.7744 -13.9737,175.625 -11.7445,72.2537 -14.3899,94.991 -14.3899,123.6835 0,27.3916 4.1142,41.3812 15.864,53.9426 10.2356,10.9428 22.0714,16.7773 41.636,20.5248 12.9867,2.4875 46.2892,1.5573 85.625,-2.3914 z M 1790,2176.8486 c -43.108,-6.7317 -64.6068,-31.7641 -67.068,-78.0915 -1.4315,-26.9436 2.1758,-59.5346 15.2193,-137.5071 11.4437,-68.4091 14.3347,-99.2795 14.3401,-153.125 0,-52.208 -4.8475,-120.0467 -14.2889,-199.7461 -1.0421,-8.7979 -2.4794,-28.7666 -3.1939,-44.375 -3.1032,-67.7975 -6.7141,-89.5399 -19.2447,-115.8789 -3.3568,-7.0557 -5.2338,-12.6481 -5.0345,-15 0.1746,-2.0625 0.3632,-4.7776 0.4191,-6.0336 0.056,-1.256 1.8205,-4.0026 3.9214,-6.1036 3.7905,-3.7904 3.8942,-3.8133 13.4375,-2.9533 5.2897,0.4766 25.9301,3.609 45.8676,6.9608 59.4365,9.992 85.9699,12.0053 113.75,8.6313 24.0768,-2.9242 72.8416,-17.3063 106.25,-31.3362 17.7188,-7.4409 54.4035,-25.846 69.2545,-34.7455 10.767,-6.4523 16.1368,-7.7139 18.861,-4.4314 2.3771,2.8644 1.0736,7.0816 -9.1651,29.6498 -30.7186,67.7105 -36.5515,104.1917 -31.5351,197.2367 0.9822,18.2188 2.1356,42.125 2.563,53.125 2.0251,52.1134 6.7542,80.5303 15.8786,95.4114 3.9239,6.3997 13.145,16.0835 19.4426,20.4182 8.053,5.5428 18.7628,9.09 51.9015,17.19 37.8981,9.2634 73.1974,19.4492 93.1819,26.888 20.2191,7.5262 22.7432,8.8929 22.7375,12.312 0,3.5925 -4.1453,10.3624 -7.4009,12.1049 -1.3966,0.7474 -14.2236,2.472 -28.5044,3.8323 -53.4558,5.092 -84.7735,9.8735 -101.1502,15.4436 -32.9591,11.2101 -43.3765,25.9915 -43.2721,61.3996 0.076,25.8165 11.877,109.5446 20.3026,144.0481 6.8934,28.2293 18.7765,61.7222 29.3434,82.7052 5.4343,10.7913 5.6553,15.3448 0.972,20.0282 l -3.4642,3.4643 -40.5983,0.7553 c -45.1584,0.8404 -62.6125,2.1108 -140.5983,10.2334 -95.4867,9.9455 -119.3869,11.1961 -143.125,7.4891 z"
       inkscape:connector-curvature="0" />
  </g>
</svg>
