<?xml version="1.0" encoding="UTF-8" standalone="no"?>
<!-- Created with Inkscape (http://www.inkscape.org/) -->

<svg
   xmlns:dc="http://purl.org/dc/elements/1.1/"
   xmlns:cc="http://creativecommons.org/ns#"
   xmlns:rdf="http://www.w3.org/1999/02/22-rdf-syntax-ns#"
   xmlns:svg="http://www.w3.org/2000/svg"
   xmlns="http://www.w3.org/2000/svg"
   xmlns:sodipodi="http://sodipodi.sourceforge.net/DTD/sodipodi-0.dtd"
   xmlns:inkscape="http://www.inkscape.org/namespaces/inkscape"
   id="svg3371"
   version="1.1"
   inkscape:version="0.91 r13725"
   width="818.05951"
   height="541.13635"
   viewBox="0 0 818.05955 541.13633"
   sodipodi:docname="talk-cloud-18.svg">
  <metadata
     id="metadata3377">
    <rdf:RDF>
      <cc:Work
         rdf:about="">
        <dc:format>image/svg+xml</dc:format>
        <dc:type
           rdf:resource="http://purl.org/dc/dcmitype/StillImage" />
        <dc:title />
      </cc:Work>
    </rdf:RDF>
  </metadata>
  <defs
     id="defs3375" />
  <sodipodi:namedview
     pagecolor="#ffffff"
     bordercolor="#666666"
     borderopacity="1"
     objecttolerance="10"
     gridtolerance="10"
     guidetolerance="10"
     inkscape:pageopacity="0"
     inkscape:pageshadow="2"
     inkscape:window-width="1440"
     inkscape:window-height="856"
     id="namedview3373"
     showgrid="false"
     inkscape:zoom="0.24544081"
     inkscape:cx="1306.0419"
     inkscape:cy="856.0488"
     inkscape:window-x="0"
     inkscape:window-y="0"
     inkscape:window-maximized="0"
     inkscape:current-layer="layer6"
     fit-margin-top="0"
     fit-margin-left="0"
     fit-margin-right="0"
     fit-margin-bottom="0" />
  <g
     inkscape:groupmode="layer"
     id="layer6"
     inkscape:label="cloud 18"
     transform="translate(2550.4952,-1312.4587)">
    <path
       transform="translate(-3269.2452,-2987.8168)"
       id="path3855"
       style="display:inline;fill:#0046FF"
       d="m 835.66666,4570.5834 c -5.65139,-5.6514 -6.08202,-11.592 -1.12308,-15.4927 4.60023,-3.6186 6.80075,-3.2557 10.82221,1.7843 1.91993,2.4062 4.53162,4.375 5.80376,4.375 4.55735,0 5.15784,7.0672 0.93739,11.0321 -4.62294,4.343 -11.06404,3.6775 -16.44028,-1.6987 z m -6.65331,23.627 c -3.63641,-1.7592 -7.52704,-4.5954 -8.64584,-6.3029 -2.9621,-4.5207 -2.60131,-10.3379 0.81264,-13.1023 4.1152,-3.3323 7.92848,-2.875 11.03224,1.3232 1.529,2.068 4.9896,4.3938 8.04757,5.4087 4.64613,1.5419 5.41731,2.3092 5.75519,5.7259 0.28546,2.8868 -0.45392,4.7894 -2.75569,7.0911 -3.90499,3.905 -5.9184,3.8848 -14.24611,-0.1437 z M 1462.75,4634.75 c -3.8039,-3.8039 0.3894,-11.571 6.9721,-12.914 1.8717,-0.3819 4.8092,-1.4964 6.5279,-2.4766 7.9999,-4.563 8.9265,-4.8602 11.0346,-3.5391 1.1497,0.7204 2.26,2.4406 2.4673,3.8225 1.194,7.9603 -21.4692,20.6399 -27.0019,15.1072 z m -11.5,31.585 c 0,-2.5258 1.1056,-5.0543 3.0681,-7.0169 2.5768,-2.5766 4.2714,-3.0681 10.5782,-3.0681 4.5543,0 10.2548,-1.027 14.4843,-2.6095 7.5684,-2.8316 10.6194,-2.0144 10.6194,2.8448 0,8.1778 -8.5791,12.5692 -25.9375,13.2763 l -12.8125,0.5219 0,-3.9485 z m 26.875,43.5042 c -5.7311,-1.3292 -24.0963,-10.152 -28.7469,-13.8101 -1.7205,-1.3532 -3.1281,-3.4626 -3.1281,-4.6873 0,-2.9637 5.5522,-8.8367 8.3779,-8.8619 1.2358,-0.012 7.8721,2.829 14.7471,6.3111 7.327,3.7111 15.2724,6.755 19.1992,7.355 7.1469,1.0922 9.3192,2.9574 8.1285,6.979 -2.1793,7.3616 -7.4981,9.284 -18.5777,6.7142 z m -12.7018,48.6099 c -1.3938,-1.5532 -6.1375,-7.5121 -10.5413,-13.242 -4.4038,-5.7297 -9.0977,-11.772 -10.4308,-13.4272 -2.3046,-2.8613 -2.3217,-3.2235 -0.3484,-7.3618 2.2438,-4.7053 7.2978,-6.9567 10.7783,-4.8014 3.1756,1.9667 23.7872,29.5374 23.8301,31.876 0.05,2.7059 -4.8085,8.0833 -8.1699,9.0429 -1.7525,0.5004 -3.3988,-0.1709 -5.118,-2.0865 z m -87.6065,12.4884 c -0.6816,-0.8594 -2.8321,-8.1596 -4.779,-16.2228 -3.9456,-16.3425 -3.6163,-19.6859 2.2882,-23.2355 5.5066,-3.3103 7.0982,-1.1747 11.041,14.815 4.3561,17.6655 4.3961,19.3064 0.565,23.1377 -3.3393,3.3392 -7.1602,3.9703 -9.1152,1.5056 z m -30.0396,0 c -1.6881,-2.0623 -7.7771,-22.1756 -7.7771,-25.6895 0,-3.8859 4.3397,-7.748 8.706,-7.748 3.5929,0 3.8215,0.3699 7.5,12.1377 4.6345,14.8269 4.6876,16.9779 0.5004,20.2715 -3.7363,2.939 -7.0527,3.3209 -8.9293,1.0283 z m 76.2873,6.7739 c -0.8583,-0.5399 -2.1523,-4.1824 -2.8755,-8.0947 -1.7125,-9.2641 -4.104,-14.8861 -10.0668,-23.6651 -2.6796,-3.9453 -4.8721,-8.3302 -4.8721,-9.7442 0,-3.2614 5.3676,-8.7074 8.5821,-8.7074 6.3023,0 18.5861,23.004 19.7456,36.9776 0.617,7.4355 0.3903,8.9333 -1.6176,10.687 -3.049,2.6633 -6.9396,3.777 -8.8957,2.5468 z m -613.49083,36.7258 c 21.35323,-9.1617 45.23877,-13.2612 95.05143,-16.3137 32.85165,-2.013 47.94252,-3.4135 101.644,-9.4326 78.6233,-8.8125 130.7667,-11.8164 187.106,-10.7789 52.5733,0.9681 67.8668,2.5335 148.125,15.1611 50.5597,7.955 70.1699,9.8558 102.5,9.9354 27.4716,0.068 29.8545,-0.1087 36.7751,-2.7239 4.07,-1.538 9.7585,-4.1783 12.641,-5.8676 15.3225,-8.9796 23.8779,-29.1399 25.2149,-59.417 0.7951,-18.0096 0.3121,-23.7007 -9.6542,-113.75 -9.1658,-82.8145 -10.9209,-102.8942 -12.4024,-141.8864 -0.6453,-16.9835 -1.386,-31.092 -1.6463,-31.3522 -0.2602,-0.2602 -7.5656,2.5957 -16.2341,6.3466 -42.3052,18.3051 -78.8256,27.0935 -166.569,40.0834 -28.6305,4.2386 -57.7231,5.2972 -71.875,2.6152 -23.6048,-4.4734 -38.5848,-16.452 -49.916,-39.9152 -8.9369,-18.5051 -13.9511,-41.0543 -19.6282,-88.2682 -2.1393,-17.7911 -2.1844,-17.9446 -3.8566,-13.125 -3.5999,10.3755 -11.8589,42.6765 -16.6527,65.1293 -5.688,26.6409 -11.3729,44.4352 -17.5722,55.0035 -2.3371,3.9842 -8.5412,11.5546 -13.7868,16.8232 -22.218,22.3149 -49.0829,28.609 -137.9625,32.3227 -17.1875,0.7182 -39.125,1.8441 -48.75,2.5021 -42.59894,2.912 -85.76731,0.9701 -115.32448,-5.188 -11.98898,-2.4979 -42.45372,-12.2401 -57.60095,-18.42 -3.67148,-1.498 -6.46351,-2.2899 -6.20452,-1.7598 0.259,0.53 5.01436,10.0669 10.56746,21.1929 17.58454,35.2319 29.83938,67.5633 39.25754,103.5711 7.00472,26.7808 8.879,41.0167 8.88031,67.4498 10e-4,25.0055 -1.58152,40.0591 -8.87139,84.375 -6.70712,40.7734 -6.61367,40 -4.83267,40 0.83921,0 6.04899,-1.9408 11.57727,-4.3128 z m -31.69026,24.5619 c -1.30924,-2.4464 0.99213,-21.2997 6.74405,-55.2491 11.24983,-66.3994 12.05111,-95.3869 3.67989,-133.125 -10.92155,-49.2351 -34.33669,-106.0459 -64.47161,-156.4236 -3.70865,-6.1999 -6.08564,-11.6552 -6.08564,-13.9666 0,-4.1551 4.85002,-10.8721 8.74228,-12.1073 1.49858,-0.4756 9.70973,2.4476 22.1326,7.8796 38.81993,16.9743 56.22378,22.8853 83.50012,28.3596 32.96106,6.6153 53.21673,6.893 146.25,2.0055 70.0739,-3.6812 90.9559,-6.0701 109.8318,-12.5643 13.2818,-4.5697 26.3917,-16.28 32.3678,-28.9124 3.3855,-7.1562 4.3429,-10.7253 14.0449,-52.3565 11.5734,-49.6609 27.8293,-100.7369 34.2822,-107.7144 1.7728,-1.917 4.6296,-3.8117 6.3483,-4.2107 6.1829,-1.4352 7.1609,0.9159 9.3648,22.5111 9.3022,91.1501 16.288,119.2051 34.5414,138.718 8.7269,9.3291 16.0684,13.2722 30.1036,16.1686 13.2877,2.7423 24.3751,2.5016 53.14,-1.153 91.0657,-11.5701 146.9871,-25.7237 193.1377,-48.8826 12.2871,-6.1657 13.4891,-6.3996 16.3938,-3.1901 1.7675,1.9531 2.0687,5.6417 2.0687,25.3339 0,37.3983 2.5688,70.9222 11.2928,147.3802 10.1715,89.1448 10.498,92.9478 10.5162,122.5 0.016,25.1355 -0.2841,29.3208 -2.8194,39.375 -4.3795,17.3676 -10.346,28.3439 -21.5578,39.6585 -7.5484,7.6176 -11.7878,10.7219 -20.0638,14.6912 -15.1764,7.2793 -25.376,9.1809 -49.243,9.1811 -30.9644,10e-5 -53.5527,-2.4345 -125.625,-13.5404 -24.4062,-3.7608 -51.6875,-7.6689 -60.625,-8.6846 -72.8071,-8.2746 -160.4913,-5.0142 -283.75,10.5509 -15.8125,1.9968 -44.77925,4.5273 -64.37055,5.6232 -39.3911,2.2036 -59.02369,4.382 -75.00445,8.3225 -12.07664,2.9777 -26.90195,8.5642 -34.59759,13.0371 -6.67652,3.8805 -18.36995,4.3331 -20.2691,0.7846 z"
       inkscape:connector-curvature="0" />
  </g>
</svg>
