<?xml version="1.0" encoding="UTF-8" standalone="no"?>
<!-- Created with Inkscape (http://www.inkscape.org/) -->

<svg
   xmlns:dc="http://purl.org/dc/elements/1.1/"
   xmlns:cc="http://creativecommons.org/ns#"
   xmlns:rdf="http://www.w3.org/1999/02/22-rdf-syntax-ns#"
   xmlns:svg="http://www.w3.org/2000/svg"
   xmlns="http://www.w3.org/2000/svg"
   xmlns:sodipodi="http://sodipodi.sourceforge.net/DTD/sodipodi-0.dtd"
   xmlns:inkscape="http://www.inkscape.org/namespaces/inkscape"
   id="svg3371"
   version="1.1"
   inkscape:version="0.91 r13725"
   width="763.02087"
   height="729.08649"
   viewBox="0 0 763.02088 729.08646"
   sodipodi:docname="talk-cloud-09.svg">
  <metadata
     id="metadata3377">
    <rdf:RDF>
      <cc:Work
         rdf:about="">
        <dc:format>image/svg+xml</dc:format>
        <dc:type
           rdf:resource="http://purl.org/dc/dcmitype/StillImage" />
        <dc:title />
      </cc:Work>
    </rdf:RDF>
  </metadata>
  <defs
     id="defs3375" />
  <sodipodi:namedview
     pagecolor="#ffffff"
     bordercolor="#666666"
     borderopacity="1"
     objecttolerance="10"
     gridtolerance="10"
     guidetolerance="10"
     inkscape:pageopacity="0"
     inkscape:pageshadow="2"
     inkscape:window-width="1440"
     inkscape:window-height="856"
     id="namedview3373"
     showgrid="false"
     inkscape:zoom="0.24544081"
     inkscape:cx="-132.98943"
     inkscape:cy="-116.60519"
     inkscape:window-x="0"
     inkscape:window-y="0"
     inkscape:window-maximized="0"
     inkscape:current-layer="layer1"
     fit-margin-top="0"
     fit-margin-left="0"
     fit-margin-right="0"
     fit-margin-bottom="0" />
  <g
     inkscape:groupmode="layer"
     id="layer1"
     inkscape:label="cloud 09"
     transform="translate(3335.4282,917.80512)">
    <path
       transform="translate(-4189.4328,-2590.7275)"
       id="path3559"
       style="display:inline;fill:#B2E9B5"
       d="m 1104.375,2381.4291 c 5.0477,-0.7249 2.643,-1.0794 -12.5,-1.8422 -31.008,-1.5624 -53.0592,-6.1655 -66.0743,-13.7929 -10.9185,-6.3986 -21.5026,-22.2869 -24.6628,-37.0221 -2.33431,-10.8847 -0.8014,-32.619 3.0772,-43.6307 4.3621,-12.384 11.7229,-25.7846 22.0492,-40.1412 9.3584,-13.011 13.4645,-17.6956 18.2701,-20.8444 2.9556,-1.9366 3.1093,-2.5325 2.3469,-9.1012 -0.7555,-6.5093 -0.5653,-7.2795 2.5719,-10.4167 5.0035,-5.0036 8.8635,-4.5248 10.4811,1.2998 0.716,2.5781 1.3135,6.375 1.3279,8.4375 0.047,6.7319 1.1958,7.351 11.9538,6.4416 5.3374,-0.4511 9.8664,-0.9824 10.0646,-1.1805 0.1981,-0.1981 -1.0214,-4.838 -2.71,-10.3107 -3.6308,-11.7672 -3.866,-16.9895 -0.8831,-19.6088 2.8522,-2.5046 6.8118,-3.6461 8.6442,-2.4922 0.8012,0.5046 3.5379,7.3824 6.0815,15.284 2.5436,7.9016 4.8162,14.6942 5.0501,15.0947 0.234,0.4004 6.2161,0 13.2936,-0.8778 7.0774,-0.8833 13.2623,-1.6328 13.744,-1.6657 0.4817,-0.033 -1.1363,-4.2967 -3.5956,-9.4754 -2.4594,-5.1787 -4.75,-11.8858 -5.0903,-14.9049 -0.5284,-4.6883 -0.1489,-5.9591 2.6013,-8.7093 1.7711,-1.771 4.6228,-3.22 6.3372,-3.22 2.7423,0 3.3699,0.9009 5.2189,7.4905 2.915,10.3889 12.4912,26.5655 15.2824,25.8156 1.1661,-0.3132 7.3233,-1.5362 13.6827,-2.7178 6.3594,-1.1817 11.5625,-2.6949 11.5625,-3.3629 0,-0.668 -1.0395,-2.7075 -2.3099,-4.5324 -1.2705,-1.8249 -4.424,-7.1352 -7.0079,-11.8007 -4.3317,-7.8214 -4.5752,-8.7793 -3.1233,-12.2844 1.7899,-4.3214 6.5729,-7.9585 9.1602,-6.9658 0.956,0.367 3.5791,3.9444 5.829,7.95 8.2939,14.7658 15.0973,24.1579 17.4995,24.1579 1.9861,0 8.92,-1.4457 27.31,-5.694 l 2.9827,-0.689 -3.2112,-3.371 c -4.2911,-4.5046 -12.1291,-17.6803 -12.1291,-20.389 0,-3.328 6.1184,-9.857 9.237,-9.857 2.0149,0 3.4655,1.4423 5.3482,5.3174 1.4209,2.9246 5.4705,8.7726 8.9991,12.9955 3.5286,4.223 6.4157,8.5802 6.4157,9.6826 0,1.1025 0.3824,2.0045 0.8497,2.0045 2.484,0 28.6919,-6.6883 29.6336,-7.5625 0.6216,-0.5772 -1.7105,-4.5712 -5.3125,-9.098 -7.0802,-8.8977 -7.6713,-11.4126 -3.83,-16.2959 5.1186,-6.5073 10.264,-3.3801 21.8068,13.2542 2.7377,3.9448 5.711,7.1792 6.6077,7.1875 1.7915,0.016 23.9873,-6.0832 25.4691,-6.9989 0.5079,-0.3139 -1.3011,-3.5049 -4.0202,-7.091 -5.6367,-7.4349 -5.9608,-9.2785 -2.4216,-13.7779 4.9409,-6.2813 6.8674,-5.7372 16.4288,4.6394 4.811,5.2212 9.6847,9.5025 10.8305,9.5138 1.1457,0.013 8.9622,-2.3476 17.3701,-5.2422 13.9335,-4.797 15.1232,-5.4439 13.4375,-7.3066 -1.0173,-1.124 -1.8495,-3.2906 -1.8495,-4.8146 0,-3.3347 5.251,-8.9106 8.3806,-8.8991 2.6749,0.012 8.5113,3.6823 10.7777,6.7817 1.5235,2.0836 2.2421,1.9545 12.1678,-2.1858 20.524,-8.5608 22.7794,-9.7486 21.3067,-11.2213 -2.3848,-2.3848 -1.5217,-5.9362 2.3943,-9.8523 2.5995,-2.5995 4.4508,-3.5071 5.9375,-2.9112 1.1883,0.4761 5.2542,1.3093 9.0354,1.8515 6.8164,0.9771 6.9868,0.9213 20,-6.5449 49.9753,-28.6731 78.9911,-59.5315 87.5896,-93.1514 3.2945,-12.8812 3.245,-31.611 -0.1187,-44.762 -4.655,-18.202 -11.9947,-31.112 -26.3704,-46.3841 -10.1585,-10.7918 -11.8282,-13.7988 -13.4609,-24.2406 -2.9905,-19.1254 -2.9221,-21.8609 0.6526,-26.1092 2.4161,-2.8712 4.1613,-3.8113 6.5588,-3.533 3.1915,0.3707 3.2975,0.6814 4.6114,13.5044 0.7396,7.2188 2.0109,14.3613 2.825,15.8724 l 1.4802,2.7472 5.3035,-2.3647 c 6.6289,-2.9558 7.0239,-5.1324 2.7669,-15.2478 -1.8244,-4.3351 -3.5882,-9.021 -3.9196,-10.413 -0.831,-3.4899 4.7861,-9.3441 8.9656,-9.3441 2.7135,0 3.7487,1.0899 6.2341,6.5625 1.6393,3.6094 3.6433,9.233 4.4535,12.497 l 1.4731,5.9345 4.5399,-2.5593 c 2.497,-1.4075 5.8376,-3.5422 7.4238,-4.7437 l 2.8838,-2.1845 -3.1812,-5.5658 c -4.152,-7.2638 -4.3258,-15.0552 -0.4171,-18.6966 4.3123,-4.0177 8.3747,-2.8365 10.3766,3.0173 0.9191,2.6875 2.8178,6.0328 4.2191,7.4343 l 2.5482,2.548 3.2706,-3.0593 c 6.0244,-5.6353 6.1669,-7.0637 1.2479,-12.5085 -5.0304,-5.568 -5.1723,-6.1665 -2.628,-11.0865 3.1195,-6.0324 8.1991,-6.728 13.3181,-1.8237 l 3.4087,3.2658 2.5759,-5.0493 c 5.8266,-11.421 8.1426,-23.4997 8.0738,-42.1072 -0.077,-21.022 -2.4597,-31.458 -11.2695,-49.375 -4.9,-9.9655 -7.5723,-13.5835 -16.6188,-22.5 -20.4532,-20.1595 -48.7752,-32.2645 -89.6909,-38.3341 -21.0393,-3.121 -77.6223,-3.1215 -102.8761,-9e-4 -87.7749,10.8467 -181.6757,44.1777 -229.3632,81.4149 -10.8208,8.4495 -28.6162,26.615 -32.2052,32.8751 l -2.1934,3.8257 5.9434,-0.2028 c 5.7544,-0.1964 5.9552,-0.082 6.3147,3.5865 0.5068,5.1716 -4.0848,9.2657 -12.5043,11.1496 -7.3132,1.6362 -8.9951,3.6997 -10.4545,12.8265 l -0.8251,5.1602 5.0808,-0.6815 c 4.6879,-0.6288 5.1447,-0.4271 5.9066,2.6088 1.0571,4.2116 -1.7592,8.622 -6.853,10.7319 -3.1666,1.3116 -3.8468,2.3033 -3.8468,5.6085 0,2.2082 0.3498,4.3647 0.7772,4.7922 0.4275,0.4274 3.5558,-0.6307 6.9517,-2.3516 7.2128,-3.655 11.0211,-3.1255 11.0211,1.5324 0,4.7631 -2.1017,7.7046 -7.457,10.4366 -2.6803,1.3675 -5.248,3.0925 -5.7059,3.8334 -0.458,0.741 0.4117,4.6743 1.9324,8.7408 4.7281,12.6428 1.4947,17.5862 -15.0929,23.0744 -34.1121,11.2866 -87.8534,35.7045 -115.5516,52.502 -57.48039,34.8589 -90.86195,69.0001 -103.27111,105.6214 -3.43729,10.1439 -4.09469,14.0616 -4.50969,26.875 -0.55326,17.0822 2.38993,32.9577 5.93275,32.0009 9.98853,-2.6975 11.39506,-0.9523 8.36045,10.3736 -2.26944,8.47 -2.13681,8.8931 5.52105,17.615 l 3.90596,4.4486 2.91539,-6.2926 c 2.92811,-6.32 7.25848,-9.464 11.0377,-8.0138 3.09675,1.1883 3.32776,4.2924 0.75269,10.1138 -2.13398,4.8241 -2.29485,6.4174 -1.11939,11.0855 1.11066,4.4109 2.35305,6.0306 6.50735,8.484 l 5.13461,3.0322 1.45243,-4.2247 c 3.26677,-9.5025 9.65997,-15.0421 13.5928,-11.7783 2.40329,1.9947 2.4173,4.7662 0.0527,10.4254 -1.08285,2.5916 -1.54515,6.0206 -1.10704,8.2111 0.65246,3.2624 1.71256,4.0857 7.99155,6.206 l 7.2393,2.4448 1.32788,-5.2734 c 1.65673,-6.5795 5.04227,-9.8015 9.73457,-9.2644 3.29774,0.3777 3.55354,0.8032 3.62605,6.0313 0.12918,9.3149 1.30928,12.09 5.49744,12.9276 6.57244,1.3145 6.28636,5.3163 -1.56213,21.851 -13.79233,29.0569 -17.15387,52.6213 -11.44383,80.2214 9.61328,46.467 43.23182,76.8971 92.43042,83.6644 8.9764,1.2347 42.5822,0.6187 53.75,-0.9853 z m -61.25,20.2878 c -12.2981,-1.8484 -24.9025,-4.9069 -32.855,-7.9725 -48.54331,-18.7131 -76.87992,-68.1573 -71.5362,-124.8225 1.49511,-15.8544 5.70456,-33.2129 11.10578,-45.7969 l 3.7556,-8.75 -3.98509,-1.0831 c -45.64873,-12.4078 -69.97199,-29.2393 -84.27778,-58.3195 -19.10499,-38.8359 -14.01534,-80.3892 15.0556,-122.9178 30.98186,-45.3241 99.93153,-92.0277 185.86209,-125.8952 12.7188,-5.0128 23.5085,-9.4337 23.9771,-9.8243 0.4687,-0.3906 -0.2839,-5.2101 -1.6723,-10.7101 -3.4051,-13.4886 -3.649,-37.6385 -0.5048,-50 6.7345,-26.4766 26.5281,-53.4846 55.075,-75.1485 51.5191,-39.0974 142.8599,-72.3205 232.4575,-84.5511 27.4114,-3.7419 93.2633,-4.0562 115.6675,-0.5522 70.3235,10.9989 109.6687,39.8667 123.2878,90.4565 3.5546,13.2045 3.2356,51.0472 -0.5453,64.6808 -6.2611,22.5769 -14.8325,37.6075 -31.1161,54.5646 -11.4195,11.8918 -24.796,22.0368 -39.498,29.9559 -9.4869,5.11 -9.6944,5.3212 -7.7828,7.922 10.0493,13.6721 17.6335,28.4322 21.2841,41.422 1.3439,4.7817 2.3394,14.2955 2.7468,26.25 0.5507,16.1666 0.2782,20.2611 -1.9776,29.7179 -11.0699,46.4045 -50.8038,86.8572 -119.6788,121.844 -30.4025,15.4437 -56.2085,26.017 -95.4701,39.1162 -50.7811,16.9428 -103.5338,30.6696 -165,42.935 -45.9558,9.1704 -67.2662,12.0883 -121.0232,16.5706 l -7.8982,0.6587 -5.8518,7.4716 c -19.5004,24.8982 -28.3308,50.2041 -23.9723,68.6986 7.9301,33.6495 33.1678,43.6463 106.1259,42.0365 20.2558,-0.4469 39.0242,-1.7375 59.9174,-4.1202 33.5652,-3.828 32.6454,-3.947 32.6831,4.2297 0.035,7.7009 -4.0486,10.1101 -33.7327,19.9006 -48.9744,16.1529 -76.6899,21.5919 -113.1232,22.1999 -13.0625,0.218 -25.4375,0.1428 -27.5,-0.1672 z"
       inkscape:connector-curvature="0" />
  </g>
</svg>
