<?xml version="1.0" encoding="UTF-8" standalone="no"?>
<!-- Created with Inkscape (http://www.inkscape.org/) -->

<svg
   xmlns:dc="http://purl.org/dc/elements/1.1/"
   xmlns:cc="http://creativecommons.org/ns#"
   xmlns:rdf="http://www.w3.org/1999/02/22-rdf-syntax-ns#"
   xmlns:svg="http://www.w3.org/2000/svg"
   xmlns="http://www.w3.org/2000/svg"
   xmlns:sodipodi="http://sodipodi.sourceforge.net/DTD/sodipodi-0.dtd"
   xmlns:inkscape="http://www.inkscape.org/namespaces/inkscape"
   id="svg3371"
   version="1.1"
   inkscape:version="0.91 r13725"
   width="951.55511"
   height="989.33594"
   viewBox="0 0 951.55511 989.3359"
   sodipodi:docname="talk-cloud-10.svg">
  <metadata
     id="metadata3377">
    <rdf:RDF>
      <cc:Work
         rdf:about="">
        <dc:format>image/svg+xml</dc:format>
        <dc:type
           rdf:resource="http://purl.org/dc/dcmitype/StillImage" />
        <dc:title />
      </cc:Work>
    </rdf:RDF>
  </metadata>
  <defs
     id="defs3375" />
  <sodipodi:namedview
     pagecolor="#ffffff"
     bordercolor="#666666"
     borderopacity="1"
     objecttolerance="10"
     gridtolerance="10"
     guidetolerance="10"
     inkscape:pageopacity="0"
     inkscape:pageshadow="2"
     inkscape:window-width="1440"
     inkscape:window-height="856"
     id="namedview3373"
     showgrid="false"
     inkscape:zoom="0.24544081"
     inkscape:cx="-552.00695"
     inkscape:cy="72.723543"
     inkscape:window-x="0"
     inkscape:window-y="0"
     inkscape:window-maximized="0"
     inkscape:current-layer="layer12"
     fit-margin-top="0"
     fit-margin-left="0"
     fit-margin-right="0"
     fit-margin-bottom="0" />
  <g
     inkscape:groupmode="layer"
     id="layer12"
     inkscape:label="cloud 10"
     transform="translate(1102.4774,389.02941)">
    <path
       transform="translate(-4428.9479,-1570.2845)"
       id="path3485"
       style="display:inline;fill:#E32636"
       d="m 3473.3187,1298.9641 c -5.896,-6.515 1.9748,-20.2141 11.6138,-20.2141 5.6266,0 7.5675,1.8027 7.5675,7.0291 0,4.5928 -4.5879,10.7972 -10.0869,13.6408 -4.6522,2.4059 -6.5926,2.3086 -9.0944,-0.4558 z m -86.3915,84.3538 c -1.9601,-1.4334 -2.2033,-2.8925 -1.6438,-9.8615 1.1266,-14.0357 9.517,-28.8073 26.8183,-47.2147 11.8527,-12.6105 29.5763,-27.1125 34.441,-28.181 4.7394,-1.0409 7.2073,1.2239 7.2073,6.6144 0,4.9003 -3.0282,8.3253 -17.9706,20.3249 -9.4211,7.5658 -22.8184,22.4857 -27.7555,30.9103 -1.7426,2.9736 -3.9369,9.0792 -4.876,13.5679 -1.9419,9.2814 -3.3715,11.4688 -9.0453,13.8404 -4.8863,2.0427 -4.3807,2.0427 -7.1753,-7e-4 z M 3882.75,1431 c -3.2052,-3.2052 -1.5489,-8.1065 6.073,-17.9694 23.5156,-30.43 30.5989,-52.3874 23.4584,-72.7185 -2.6235,-7.4698 -2.6521,-8.0057 -0.6514,-12.2012 2.2371,-4.6914 9.251,-8.9996 12.5749,-7.7242 3.0487,1.1699 6.8965,9.9502 8.5267,19.4573 3.3142,19.3265 -4.2218,42.8739 -22.352,69.8424 -10.1642,15.1194 -17.7126,22.8136 -22.3809,22.8136 -2.0617,0 -4.4237,-0.675 -5.2487,-1.5 z m -31.1875,149.4221 c -3.0732,-1.2401 -1.7672,-8.852 2.317,-13.5036 3.154,-3.5921 4.7618,-4.4185 8.5969,-4.4185 5.9885,0 8.0592,2.378 6.9977,8.036 -1.4397,7.6745 -10.7108,12.7918 -17.9116,9.8861 z m -66.1509,95.0977 c -1.2686,-3.3061 0.5539,-26.8674 2.7475,-35.5198 1.1329,-4.4687 4.7661,-13.75 8.0739,-20.625 11.2549,-23.3931 32.4039,-41.4291 37.473,-31.9571 2.6475,4.9468 1.3279,7.7298 -8.5627,18.0575 -5.4213,5.6607 -11.3117,13.1635 -13.0899,16.6726 -4.7991,9.4705 -8.2663,23.2519 -9.1548,36.3884 -0.7245,10.7131 -1.0855,11.9582 -4.4397,15.3125 -4.18,4.18 -11.7142,5.1447 -13.0473,1.6708 z M 4109,1751 c -2.733,-2.733 -1.7586,-9.4381 1.9375,-13.3316 2.7049,-2.8494 7.8329,-5.0154 24.0625,-10.1635 34.4046,-10.9135 53.6969,-20.3456 70.946,-34.6863 9.5,-7.8981 14.2609,-9.6117 17.554,-6.3186 5.4573,5.4573 -3.6339,17.209 -23.5929,30.4974 -16.1588,10.7584 -31.9389,17.9141 -60.5877,27.4749 -25.1675,8.3988 -27.867,8.9801 -30.3194,6.5277 z m -551.019,106.7934 c -4.2251,-2.7835 -2.8273,-12.6534 2.501,-17.6592 3.581,-3.3641 11.2535,-4.8248 13.8824,-2.6429 1.0371,0.8606 1.8856,3.5387 1.8856,5.9512 0,3.5125 -1.088,5.4744 -5.4605,9.847 -5.2636,5.2635 -9.431,6.7289 -12.8085,4.5039 z m -116.2323,77.5 c -4.2366,-2.8271 -2.3122,-22.9319 3.3716,-35.2225 6.3675,-13.7694 15.0192,-23.2815 30.6738,-33.7245 13.4965,-9.0033 38.9857,-18.4006 45.3764,-16.7294 3.8424,1.0049 4.6799,6.2561 1.8371,11.5199 -2.713,5.0236 -4.9138,6.264 -18.0076,10.1484 -13.3423,3.958 -24.7645,10.0412 -33.0181,17.5845 -9.5981,8.7721 -13.2264,16.2288 -14.4549,29.7067 -0.8941,9.81 -1.2862,10.9453 -4.8942,14.169 -3.8173,3.4108 -8.0915,4.4114 -10.884,2.5479 z M 3819,1986 c -2.0973,-2.0972 -1.8705,-8.6648 0.4116,-11.923 1.0514,-1.501 5.9733,-4.8501 10.9375,-7.4425 10.9276,-5.7064 28.5771,-22.6179 34.4018,-32.9634 4.331,-7.6922 8.0021,-10.3362 13.4836,-9.7112 3.2259,0.3679 3.6851,0.9567 4.0325,5.1697 0.8738,10.5992 -18.1904,34.6194 -38.2674,48.2157 -13.4945,9.1386 -21.6815,11.9728 -24.9996,8.6547 z m -86.1416,138.5268 c -11.0902,-11.7161 -17.4472,-20.7061 -24.3975,-34.5032 -5.3439,-10.6081 -5.7288,-13.964 -2.2544,-19.6622 1.9412,-3.1838 3.9432,-4.4233 9.6829,-5.9954 45.6876,-12.5134 75.3556,-23.0831 103.4856,-36.8689 49.1417,-24.0829 79.823,-52.3812 90.7992,-83.7471 4.0494,-11.5716 4.067,-32.4946 0.036,-42.6822 -10.0509,-25.4016 -32.6204,-44.6815 -70.0569,-59.8459 -14.3991,-5.8328 -14.5317,-5.924 -14.906,-10.2551 -0.2829,-3.2739 0.4643,-5.3707 2.9783,-8.3584 4.8393,-5.7513 40.0785,-34.993 44.0476,-36.5513 2.176,-0.8543 10.8057,-1.0387 24.6017,-0.5258 25.6217,0.9523 100.038,-0.9685 141.3028,-3.6475 113.4186,-7.3633 164.666,-22.9693 200.0254,-60.912 14.7708,-15.85 21.7968,-33.1063 21.7968,-53.5344 0,-47.2794 -38.6336,-91.9385 -108.125,-124.989 -48.4468,-23.0416 -98.8206,-34.0695 -155.625,-34.0695 -38.2368,0 -69.9607,4.296 -105.4751,14.2834 -8.9637,2.5207 -14.3731,3.4646 -15.8677,2.7687 -3.3704,-1.5696 -22.4071,-27.8741 -22.4071,-30.9619 0,-4.4157 3.011,-7.4321 17.9721,-18.0045 56.3667,-39.8316 86.9984,-80.2418 92.2315,-121.6746 1.3021,-10.31 1.2187,-13.7949 -0.5943,-24.8399 -3.754,-22.8696 -12.746,-39.5106 -31.4068,-58.1233 -37.8815,-37.7836 -108.4929,-63.5025 -193.5832,-70.5089 -22.8395,-1.8806 -69.2126,-1.6169 -93.573,0.5321 -78.2915,6.9068 -152.6561,27.8656 -205.0484,57.7905 -38.9486,22.2464 -69.2271,51.2249 -83.3927,79.8124 -18.8101,37.9604 -13.5333,75.6116 17.07,121.7971 27.288,41.1822 53.0891,65.9701 86.2964,82.9074 46.9851,23.9647 103.3603,30.8018 171.5283,20.803 60.1085,-8.8168 108.3698,-22.0575 155.625,-42.6967 30.7674,-13.4379 26.3027,-13.4006 39.4339,-0.3301 6.1551,6.1266 11.1911,12.1633 11.1911,13.4149 0,5.2 -3.8983,9.5009 -13.9562,15.3974 -32.5493,19.0824 -58.2466,45.2588 -72.2815,73.6291 -9.6399,19.4861 -11.8676,28.9809 -11.8783,50.625 -0.012,15.521 0.4115,19.4719 2.9184,27.5 8.6798,27.7976 27.9701,49.3144 57.2984,63.9111 6.9991,3.4836 13.046,7.1684 13.4375,8.1885 2.4386,6.355 -0.6418,10.1814 -17.7628,22.0651 -7.3702,5.1157 -17.338,12.2313 -22.1505,15.8125 -9.9146,7.378 -8.2097,7.2142 -34.4393,3.3098 -17.8809,-2.6616 -59.6224,-6.6718 -85.8249,-8.2451 -78.682,-4.7248 -152.4065,3.8388 -197.775,22.9728 -46.229,19.497 -64.3596,50.4079 -52.3679,89.2822 9.8535,31.942 41.4288,68.6239 81.376,94.5363 21.9105,14.2127 60.0695,30.3794 90.2811,38.2491 19.2439,5.0126 33.251,7.2512 51.4652,8.2249 l 15.6953,0.839 7.0448,6.4069 c 19.1732,17.437 42.3445,35.3914 61.3897,47.5679 8.9045,5.6931 32.6302,19.379 33.5953,19.379 0.2513,0 -4.0043,-4.713 -9.4569,-10.4732 z m 48.3356,45.417 c -10.9272,-1.5043 -28.1041,-6.5712 -40.8758,-12.0578 -27.1736,-11.6736 -70.9027,-40.9566 -101.5408,-67.9964 l -11.2059,-9.8896 -7.4718,0 c -20.468,0 -58.7882,-7.7645 -87.4838,-17.7263 -63.1347,-21.9169 -119.0775,-66.8606 -142.0854,-114.1487 -7.5144,-15.4444 -10.5305,-27.9571 -10.5305,-43.6874 0,-15.6037 2.057,-24.0822 9.5454,-39.344 15.9639,-32.5352 55.0655,-55.7331 113.8627,-67.5513 36.0779,-7.2518 67.0559,-10.0423 111.4823,-10.0423 42.9597,0 83.6945,2.826 128.2637,8.8985 l 20.0293,2.729 9.9707,-7.1422 c 5.484,-3.9283 10.1043,-7.5289 10.2673,-8.0013 0.163,-0.4725 -3.0114,-2.6759 -7.054,-4.8966 -19.1694,-10.5297 -36.4776,-28.798 -45.9153,-48.4624 -28.8975,-60.2103 -0.7447,-134.6435 69.8575,-184.6968 l 10.9348,-7.7521 -3.0466,-3.0465 -3.0467,-3.0466 -9.8347,4.4956 c -39.2693,17.9504 -85.7768,32.7123 -126.5664,40.1731 -65.0321,11.895 -107.1725,14.4607 -146.0045,8.8889 -47.0004,-6.7437 -87.075,-24.2947 -118.3705,-51.8415 -32.8169,-28.8857 -65.3106,-78.3351 -74.4779,-113.3412 -3.727,-14.2319 -4.5331,-36.7477 -1.8282,-51.0646 9.9227,-52.5208 53.6942,-100.3048 123.3866,-134.6974 72.9608,-36.0056 154.6649,-53.4247 250.6639,-53.4408 79.6677,-0.013 138.8401,12.2037 194.5951,40.1772 21.0541,10.5633 34.6469,19.9334 47.7795,32.9361 25.0993,24.8512 36.7281,51.274 36.7473,83.4968 0.017,30.3689 -9.5204,56.7853 -30.9867,85.8165 -13.3501,18.0549 -39.0035,42.5252 -62.7105,59.8182 -5.1805,3.7789 -9.9162,7.3126 -10.5238,7.8526 -1.214,1.0791 7.4512,13.6475 9.4093,13.6475 0.6692,0 7.7932,-1.6435 15.831,-3.6521 16.3597,-4.0884 28.815,-6.4608 50.8644,-9.6882 21.2423,-3.1093 76.1506,-3.1251 98.125,-0.029 54.9194,7.7397 97.0664,22.3689 143.9635,49.9692 42.1601,24.8127 70.2374,57.8354 79.9431,94.0243 3.568,13.3039 3.8517,36.1255 0.6059,48.75 -4.5767,17.8006 -18.0037,40.2859 -32.2214,53.9584 -17.3953,16.7283 -44.9208,32.9472 -69.2733,40.818 -50.9347,16.4622 -147.2508,25.797 -266.5847,25.8367 l -35.4417,0.013 -9.8708,8.2329 c -5.4288,4.528 -9.8655,8.6061 -9.8591,9.0625 0.012,0.4562 4.8034,3.0207 10.66,5.6989 30.3508,13.8783 50.7824,32.3836 61.8369,56.0065 10.5547,22.555 9.5052,46.9205 -3.1388,72.8742 -17.661,36.2519 -57.463,69.6463 -110.9256,93.068 -20.0845,8.799 -53.2012,20.906 -70.6267,25.8201 -7.0444,1.9865 -12.81,4.2149 -12.8125,4.9518 -0.013,2.5619 12.7386,19.9586 20.4058,27.848 23.3674,24.0444 50.9568,36.301 78.4163,34.8365 6.5736,-0.3506 12.9017,-0.1063 14.0625,0.5437 2.8601,1.6005 2.7042,7.9623 -0.2984,12.179 -2.7131,3.8104 -13.9251,9.7122 -23.0075,12.1109 -8.3777,2.2126 -26.1054,3.0576 -35.8895,1.7108 z"
       inkscape:connector-curvature="0" />
  </g>
</svg>
