<?xml version="1.0" encoding="UTF-8" standalone="no"?>
<!-- Created with Inkscape (http://www.inkscape.org/) -->

<svg
   xmlns:dc="http://purl.org/dc/elements/1.1/"
   xmlns:cc="http://creativecommons.org/ns#"
   xmlns:rdf="http://www.w3.org/1999/02/22-rdf-syntax-ns#"
   xmlns:svg="http://www.w3.org/2000/svg"
   xmlns="http://www.w3.org/2000/svg"
   xmlns:sodipodi="http://sodipodi.sourceforge.net/DTD/sodipodi-0.dtd"
   xmlns:inkscape="http://www.inkscape.org/namespaces/inkscape"
   id="svg3371"
   version="1.1"
   inkscape:version="0.91 r13725"
   width="1248.488"
   height="752.92914"
   viewBox="0 0 1248.4881 752.92911"
   sodipodi:docname="talk-cloud-16.svg">
  <metadata
     id="metadata3377">
    <rdf:RDF>
      <cc:Work
         rdf:about="">
        <dc:format>image/svg+xml</dc:format>
        <dc:type
           rdf:resource="http://purl.org/dc/dcmitype/StillImage" />
        <dc:title />
      </cc:Work>
    </rdf:RDF>
  </metadata>
  <defs
     id="defs3375" />
  <sodipodi:namedview
     pagecolor="#ffffff"
     bordercolor="#666666"
     borderopacity="1"
     objecttolerance="10"
     gridtolerance="10"
     guidetolerance="10"
     inkscape:pageopacity="0"
     inkscape:pageshadow="2"
     inkscape:window-width="1440"
     inkscape:window-height="856"
     id="namedview3373"
     showgrid="false"
     inkscape:zoom="0.24544081"
     inkscape:cx="-860.31579"
     inkscape:cy="463.75067"
     inkscape:window-x="0"
     inkscape:window-y="0"
     inkscape:window-maximized="0"
     inkscape:current-layer="layer4"
     fit-margin-top="0"
     fit-margin-left="0"
     fit-margin-right="0"
     fit-margin-bottom="0" />
  <g
     inkscape:groupmode="layer"
     id="layer4"
     inkscape:label="cloud 16"
     transform="translate(-593.73044,384.72106)">
    <path
       transform="translate(-987.60055,-2614.1567)"
       id="path3571"
       style="display:inline;fill:#0046FF"
       d="m 2421.2974,2849.2735 c 14.8615,-3.3702 18.5476,-7.363 14.329,-15.521 -3.744,-7.2399 -18.9362,-15.574 -36.6472,-20.1038 -17.0138,-4.3513 -32.2537,-2.1461 -44.7943,6.482 -9.3379,6.4247 -9.9014,11.5186 -1.9045,17.2129 l 3.7246,2.6522 6.685,-4.4379 c 3.6767,-2.4409 8.0912,-6.0444 9.81,-8.0077 3.8615,-4.4108 7.5391,-5.5862 10.5624,-3.3756 3.6402,2.6618 1.4412,8.0734 -6.2522,15.3868 -5.2265,4.9682 -6.3214,6.6087 -4.8005,7.1924 1.2534,0.481 4.0893,-1.1253 7.7929,-4.4137 7.3509,-6.5268 13.4553,-9.3046 15.9317,-7.2495 3.1663,2.6279 2.0463,7.4402 -2.7552,11.8383 l -4.521,4.141 4.2085,0.5841 c 6.0975,0.8463 19.209,-0.2439 28.6308,-2.3805 z m -588.5785,-382.0546 c -3.9239,-3.9239 -0.158,-11.2373 6.9725,-13.5404 2.576,-0.832 6.236,-2.2986 8.1333,-3.2591 3.3359,-1.6886 3.3878,-1.866 1.5714,-5.3785 -1.0331,-1.9978 -2.3891,-3.948 -3.0133,-4.3339 -0.6243,-0.3857 -5.3711,1.3102 -10.5484,3.7689 -13.0414,6.1934 -17.543,5.002 -15.2731,-4.0418 0.5988,-2.3864 2.8253,-4.0205 9.4856,-6.9622 4.7867,-2.1143 8.7031,-4.3767 8.7031,-5.0275 0,-0.6509 -1.1186,-2.7544 -2.4857,-4.6744 l -2.4858,-3.4909 -7.5699,3.0577 c -4.5975,1.857 -9.3885,2.9065 -12.2017,2.6728 -3.987,-0.3311 -4.6861,-0.8546 -5.0215,-3.7602 -0.7569,-6.5596 2.0987,-8.9351 13.885,-11.5505 l 3.4952,-0.7755 -2.6247,-3.6861 c -1.4436,-2.0274 -6.2509,-7.6375 -10.6828,-12.4669 -4.495,-4.898 -8.0581,-9.9265 -8.0581,-11.3718 0,-2.9858 6.4066,-9.8986 9.174,-9.8986 1.0264,0 5.0828,3.5156 9.014,7.8125 15.2878,16.7092 33.2423,43.2971 45.6884,67.6573 5.2591,10.2932 5.4156,10.9108 3.5929,14.178 -1.0482,1.8787 -3.4729,4.2733 -5.3883,5.3215 -3.2575,1.7826 -3.6191,1.7335 -5.5942,-0.7585 -1.1616,-1.4654 -2.6743,-3.6129 -3.3618,-4.7723 -1.1414,-1.9246 -1.9564,-1.7856 -9.375,1.5993 -10.1622,4.6367 -14.158,5.5542 -16.0311,3.6811 z m 656.7899,57.0538 c -1.7133,-4.4644 -0.2725,-6.8969 10.016,-16.9107 5.926,-5.7679 18.8601,-19.8609 28.7424,-31.3179 22.3848,-25.9515 34.7929,-37.3016 52.2843,-47.8257 8.3215,-5.007 13.862,-5.7857 15.0279,-2.112 1.3463,4.2418 -1.9843,8.6547 -10.1257,13.4158 -8.5003,4.9713 -9.7831,6.7278 -4.913,6.7278 1.917,0 3.3268,0.9009 3.8144,2.4375 0.9256,2.9161 -2.1957,9.446 -5.0361,10.536 -3.4779,1.3346 -13.7471,0.8484 -15.3209,-0.7254 -1.1691,-1.1691 -2.6262,-0.4076 -6.5772,3.4375 l -5.0755,4.9394 6.0148,1.3101 c 5.0628,1.1028 6.0737,1.8061 6.3868,4.4434 0.2111,1.7786 -0.7738,4.5897 -2.2782,6.5024 -2.2055,2.8037 -3.6314,3.3678 -8.4971,3.3613 -3.2157,0 -7.3446,-0.7891 -9.1755,-1.7443 -3.1035,-1.6193 -3.561,-1.4944 -6.7609,1.8457 -2.5355,2.6465 -2.9722,3.7181 -1.6713,4.1016 0.9685,0.2857 4.1516,1.1685 7.0735,1.9622 4.7515,1.2906 5.3125,1.8397 5.3125,5.1996 0,3.6506 -4.6476,9.893 -7.3656,9.893 -0.6762,0 -5.0119,-0.8773 -9.6352,-1.9495 -8.1585,-1.892 -8.4816,-1.8736 -10.9803,0.625 l -2.5744,2.5745 4.5505,0 c 8.4077,0 10.4859,2.6951 7.0509,9.1446 -2.7743,5.2088 -4.8163,5.8951 -15.0753,5.0674 -9.5071,-0.7671 -9.7224,-0.7194 -14.106,3.1295 -4.8075,4.221 -9.8882,5.1045 -11.1059,1.9312 z M 2270,2858.9486 c 18.2131,-2.7377 34.434,-6.074 50.1524,-10.3154 9.1639,-2.4726 9.8481,-2.8812 8.9476,-5.3428 -0.5362,-1.4659 -0.9327,-5.5419 -0.881,-9.0576 0.12,-8.1818 4.2606,-15.4284 13.7923,-24.1398 19.4802,-17.8039 44.1121,-21.8157 76.9411,-12.5314 l 5.8274,1.648 9.1016,-7.3538 9.1016,-7.3538 -3.679,-1.5696 c -2.0235,-0.8633 -4.8986,-1.595 -6.3892,-1.626 -4.9482,-0.1025 -6.6648,-1.4544 -6.6648,-5.2469 0,-2.274 1.2185,-4.8917 3.199,-6.8721 2.8519,-2.852 3.8353,-3.1059 9.0625,-2.3399 3.2249,0.4725 8.2059,1.8846 11.0688,3.138 5.1903,2.2725 5.2127,2.2709 7.8897,-0.5785 l 2.6845,-2.8576 -4.4522,-2.7516 c -2.4488,-1.5134 -4.4523,-3.523 -4.4523,-4.4659 0,-3.2764 2.794,-7.8168 5.8001,-9.4256 2.6103,-1.3969 3.7749,-1.2537 8.511,1.0473 l 5.4869,2.6658 2.0759,-3.1681 c 1.1417,-1.7425 1.8902,-3.3095 1.6635,-3.4822 -0.2268,-0.1727 -3.0795,-2.1163 -6.3393,-4.3193 -7.126,-4.8157 -8.6261,-8.8842 -5.0498,-13.6962 3.578,-4.8141 8.1625,-4.9099 13.7702,-0.2875 2.5581,2.1087 5.1131,3.8339 5.6779,3.8339 1.7466,0 9.3869,-17.5435 12.7929,-29.375 1.7812,-6.1875 3.8767,-17.2969 4.6566,-24.6875 3.4421,-32.6193 -6.593,-71.8536 -27.1226,-106.0424 -9.2892,-15.4692 -9.5564,-17.4544 -3.2054,-23.8052 3.4475,-3.4477 4.052,-3.5883 15.2485,-3.5492 8.0857,0.029 13.7514,0.7633 18.4874,2.3982 l 6.8287,2.3572 1.8558,-2.7106 c 6.2095,-9.0699 18.7468,-16.4336 31.7802,-18.6661 15.9775,-2.7369 35.6623,3.1121 47.6441,14.1565 3.1562,2.9093 5.9082,5.0667 6.1155,4.7943 0.2074,-0.2723 1.9745,-3.3077 3.927,-6.7452 8.8872,-15.6463 22.3943,-28.7243 36.2699,-35.1179 12.4526,-5.738 29.0793,-6.2979 40.8589,-1.3761 l 4.366,1.8243 1.6197,-8.1489 c 4.2842,-21.5534 20.613,-40.5 39.7007,-46.0654 l 6.5451,-1.9084 -2.3301,-4.6037 c -1.2817,-2.5321 -2.735,-6.4785 -3.2298,-8.7698 -1.5495,-7.1758 -0.9141,-22.4278 1.246,-29.9072 4.597,-15.9173 17.1361,-34.2894 31.2493,-45.7858 8.2782,-6.7435 8.817,-6.5668 -13.7758,-4.5157 -61.4896,5.5826 -123.0122,26.5842 -174.9687,59.7282 -22.0278,14.0519 -51.414,38.3149 -63.3277,52.2869 -3.4515,4.0478 -12.6685,16.922 -20.4823,28.6095 -19.2122,28.7363 -26.862,37.6768 -34.1994,39.9684 -2.5675,0.802 -4.1189,-0.273 -11.25,-7.7953 -15.4953,-16.3448 -33.8099,-31.9943 -53.6981,-45.8841 l -10.4263,-7.2815 0.7429,-5.1288 c 0.4086,-2.8208 1.0824,-13.2849 1.4971,-23.2537 0.8348,-20.0622 -0.6171,-31.8206 -6.4054,-51.875 -2.7003,-9.3559 -14.5247,-36.877 -15.8428,-36.8741 -0.2142,5e-4 -0.4069,5.4848 -0.4283,12.1875 -0.021,6.7026 -0.4404,14.517 -0.9309,17.3652 -0.828,4.8075 -0.6683,5.2348 2.2265,5.9614 4.5325,1.1375 4.4274,8.2739 -0.1752,11.8943 -1.8114,1.4248 -4.0754,2.5907 -5.0309,2.5907 -2.5345,0 -4.7396,6.3711 -2.6615,7.6896 0.8861,0.5622 2.274,1.0308 3.0843,1.0413 2.3125,0.03 5.4017,3.6989 5.4017,6.4152 0,1.3572 -1.4395,3.9072 -3.199,5.6665 -2.8565,2.8565 -3.8269,3.1057 -9.0625,2.3263 -7.0451,-1.0486 -6.1355,0.2511 2.6463,3.7812 6.2366,2.507 6.4902,2.796 6.4902,7.397 0,3.7083 -0.7374,5.3387 -3.2696,7.2293 -3.2663,2.4385 -3.279,2.4376 -12.2704,-0.8056 -5.0832,-1.8337 -10.2321,-2.9378 -11.83,-2.5368 -1.7562,0.4409 -6.9574,-0.9987 -13.7146,-3.7959 -38.2773,-15.845 -78.1431,-26.2997 -119.5404,-31.3493 -23.6449,-2.8843 -109.893,-3.9532 -146.8249,-1.8197 l -27.4497,1.5857 -3.5286,-4.2249 c -5.2144,-6.2435 -14.083,-25.1563 -17.7669,-37.8888 -4.66,-16.1062 -6.5096,-37.109 -4.7565,-54.0122 0.7722,-7.446 1.2386,-13.7035 1.0364,-13.9058 -0.2022,-0.2021 -2.6675,3.1648 -5.4785,7.4822 -5.4202,8.3247 -12.4774,22.8957 -15.6075,32.2247 l -1.8873,5.625 5.1698,0.3985 c 8.6118,0.6636 10.6528,4.4538 5.753,10.6829 -2.1058,2.677 -3.6325,3.2936 -8.1559,3.2936 -4.8238,0 -5.7276,0.4272 -6.7844,3.2064 -0.6704,1.7635 -1.219,4.5479 -1.219,6.1876 0,2.7525 0.5514,3.01 7.1875,3.3561 6.8721,0.3584 7.2054,0.5314 7.5956,3.9425 0.6305,5.5123 -3.8835,9.5574 -10.6652,9.5574 -3.7558,0 -5.6761,0.5988 -6.1865,1.9289 -1.1571,3.0152 0.4489,3.6961 8.7171,3.6961 6.4539,0 7.7589,0.367 8.1304,2.2864 1.2911,6.671 -4.184,12.0886 -12.2168,12.0886 -3.592,0 -3.8121,0.279 -3.8121,4.8314 0,7.456 -3.2984,10.5006 -16.5209,15.2505 -6.3822,2.2926 -18.0551,7.461 -25.9396,11.4852 -9.2886,4.741 -15.2295,7.0717 -16.875,6.6203 -1.4401,-0.395 -6.4181,-6.5118 -11.499,-14.1295 -23.1709,-34.7401 -57.7839,-68.4677 -102.2905,-99.6734 -29.0092,-20.34 -71.9522,-44.0203 -102.8901,-56.7375 -15.676,-6.4438 -46.4075,-16.891 -47.2394,-16.0593 -0.2564,0.2565 0.9794,2.3948 2.7463,4.7518 5.4326,7.2475 13.0571,23.4742 15.7398,33.4985 1.8392,6.872 2.5703,13.5539 2.6165,23.912 0.075,16.8027 -2.0357,26.95 -8.5297,41.0056 -2.9979,6.4884 -3.9451,9.7438 -2.9333,10.0812 0.8219,0.2738 6.0298,2.7681 11.5732,5.5426 15.0228,7.5192 28.5236,21.3367 36.2695,37.1206 6.0463,12.3206 9.5222,26.0174 9.5222,37.5227 l 0,6.0528 4.0625,-1.2094 c 5.8645,-1.746 23.2614,-1.6945 31.092,0.091 9.3711,2.1377 27.675,11.2562 37.3455,18.6045 8.0825,6.1416 19.0176,17.0057 25.1675,25.004 l 3.2229,4.1915 5.8855,-4.4925 c 8.0437,-6.1399 17.6431,-8.7817 28.579,-7.8648 4.7357,0.397 9.4057,1.3819 10.3777,2.1886 2.9451,2.4442 2.0214,7.7619 -3.3736,19.4234 -12.9397,27.9697 -19.6495,55.3765 -20.7375,84.7057 -0.705,19.0071 0.9554,41.8608 3.3193,45.6857 0.7151,1.1571 3.2647,0.3925 9.9968,-2.9976 10.4658,-5.2706 14.2537,-5.3743 14.827,-0.4059 0.6444,5.5845 -2.0313,8.5543 -11.7558,13.0473 -5.0924,2.3528 -9.2588,4.8022 -9.2588,5.4431 0,0.6409 1.1559,4.2544 2.5685,8.0301 2.9806,7.9664 0.798,8.0986 22.6905,-1.3746 11.1707,-4.8338 13.7029,-5.5269 15.3125,-4.1909 2.5649,2.1286 2.4446,6.6741 -0.259,9.7821 -1.2031,1.383 -8.2344,5.1739 -15.625,8.424 -7.3906,3.25 -13.4375,6.4862 -13.4375,7.1912 0,0.7049 1.9667,4.7986 4.3705,9.097 l 4.3704,7.8151 10.924,-4.2886 c 19.7277,-7.7448 24.0851,-8.0833 24.0851,-1.8708 0,5.8764 -3.0718,8.382 -15.5484,12.6826 l -11.8689,4.0912 2.0132,3.408 c 1.1072,1.8745 4.6615,6.4117 7.8982,10.0828 l 5.8849,6.675 17.7534,-6.6193 c 18.9607,-7.0695 21.3676,-7.1362 21.3676,-0.591 0,4.7906 -4.7386,8.3212 -17.1875,12.8061 -6.3594,2.2911 -11.5625,4.5735 -11.5625,5.072 0,0.4985 3.3735,4.1242 7.4966,8.057 8.5443,8.1499 6.9748,8.1222 24.3784,0.4279 15.4178,-6.8164 17.7739,-7.1572 18.8849,-2.7305 1.4857,5.9195 -1.585,9.2928 -12.9299,14.2041 -5.658,2.4495 -10.275,4.7347 -10.2599,5.0785 0.015,0.3437 2.5439,2.4764 5.6195,4.739 l 5.592,4.1141 13.904,-5.1162 c 15.9444,-5.8672 19.003,-5.991 19.5975,-0.7943 0.5648,4.9373 -3.337,8.6951 -12.4951,12.0344 -7.3023,2.6625 -7.4466,2.8015 -4.8206,4.6409 6.3087,4.4187 19.5161,11.6321 21.298,11.6321 1.0616,0 6.0676,-1.9828 11.1243,-4.4063 10.5455,-5.0537 13.8603,-4.8631 13.8603,0.7973 0,3.6851 -3.1088,7.7122 -8.1985,10.6205 -2.1734,1.2419 -1.6128,1.7972 5.374,5.3245 40.4052,20.3977 103.4371,38.1429 157.8245,44.4317 25.7222,2.9743 25.5329,2.967 66.875,2.5802 31.1636,-0.2917 42.0537,-0.8593 55.625,-2.8993 z m -100.625,22.2923 c -115.4876,-8.373 -212.9415,-45.7707 -282.522,-108.4169 -36.5275,-32.8873 -62.6195,-76.1836 -71.1332,-118.0366 -8.216,-40.3896 -3.285,-87.4466 13.5806,-129.601 5.2782,-13.1925 5.4285,-14.4068 1.6371,-13.2373 -6.6295,2.045 -9.9405,4.787 -13.5909,11.2553 -3.6651,6.4941 -8.6015,10.5456 -12.849,10.5456 -1.0321,0 -4.4986,-4.0781 -7.7035,-9.0625 -7.1318,-11.0919 -28.6446,-32.5586 -38.3377,-38.2557 -12.5206,-7.3592 -21.9389,-10.5534 -32.9093,-11.1618 -8.8948,-0.4932 -11.0226,-0.1597 -18.125,2.8414 -11.8392,5.0025 -14.3085,5.2371 -16.7001,1.587 -1.7314,-2.6423 -1.8064,-4.3 -0.5581,-12.3288 3.0434,-19.5761 -4.9978,-41.2436 -21.3004,-57.3951 -10.6841,-10.5849 -18.9415,-15.5141 -32.6135,-19.4686 -9.2987,-2.6895 -9.3781,-2.7485 -9.7641,-7.2543 -0.3184,-3.7162 0.7327,-6.2201 5.7771,-13.7621 8.2833,-12.3845 11.5656,-22.2251 12.3909,-37.1481 2.0036,-36.2275 -20.319,-70.0465 -54.3614,-82.3583 -9.0391,-3.269 -10.6989,-6.2307 -7.3855,-13.1788 3.7594,-7.8834 6.0679,-8.5063 22.9371,-6.1885 60.4798,8.3101 126.2745,35.3665 191.0309,78.5566 47.648,31.7794 83.254,65.0166 109.8605,102.5515 4.6886,6.6144 8.709,12.0261 8.9343,12.0261 0.2251,0 5.4636,-2.4599 11.641,-5.4665 6.1773,-3.0066 12.8782,-6.0405 14.8907,-6.7421 l 3.6593,-1.2757 0.75,-16.0703 c 2.0881,-44.74 18.2517,-84.948 46.1847,-114.8874 14.24,-15.2629 22.378,-19.8845 26.9545,-15.308 2.1549,2.1549 1.8846,4.7969 -1.5381,15.0361 -5.515,16.4985 -7.308,29.7739 -6.6304,49.0889 0.7326,20.8769 3.9194,33.4877 13.1088,51.875 5.857,11.7194 5.9921,11.8727 10.3097,11.7058 65.0643,-2.5168 78.4356,-2.7193 113.75,-1.7222 53.7081,1.5165 82.3694,5.403 124.0165,16.8173 12.5871,3.4497 40.1853,12.8903 51.1719,17.5047 1.6749,0.7034 2.8172,-1.088 6.0656,-9.5113 6.1246,-15.8817 7.8016,-25.7344 7.1986,-42.2943 -0.6375,-17.5036 -4.8758,-31.1586 -13.8717,-44.6902 -7.264,-10.9268 -7.7454,-15.9765 -1.985,-20.8237 5.9942,-5.0437 9.6084,-4.285 21.2027,4.4517 26.78,20.1793 46.2375,56.9131 52.5385,99.1872 1.6398,11.0019 2.0212,38.3378 0.6462,46.328 l -0.8738,5.0779 16.1059,11.99 c 8.8582,6.5945 22.3719,17.9944 30.0304,25.333 7.6583,7.3386 14.5053,12.984 15.2155,12.5451 0.7099,-0.4389 8.3971,-11.5925 17.0826,-24.786 13.9146,-21.1369 17.6659,-25.8476 31.5614,-39.6342 26.6437,-26.4352 59.0278,-49.2502 96.3947,-67.911 65.2411,-32.5813 138.5281,-47.8398 202.5,-42.161 24.9982,2.2191 25.5474,2.3843 26.0057,7.8288 0.3035,3.6052 -0.4197,5.4337 -3.5669,9.0182 l -3.9478,4.4962 -10.8579,0 c -21.0625,0 -37.9577,7.3529 -52.7295,22.9481 -9.2606,9.777 -16.1536,25.0427 -16.1536,35.7749 0,13.601 9.2773,27.0615 24.375,35.3663 6.7789,3.7287 7.5363,4.5551 7.8776,8.5947 0.2842,3.3633 -0.4393,5.4404 -2.9236,8.3928 -3.9909,4.7428 -7.863,5.0091 -18.704,1.2862 -9.709,-3.3342 -24.1638,-3.5719 -31.5829,-0.5194 -14.9496,6.1509 -23.0509,26.7879 -18.6591,47.5314 2.1039,9.9374 0.957,14.9191 -4.2791,18.5866 -4.7454,3.3238 -8.3796,2.4717 -15.055,-3.53 -9.8795,-8.8825 -18.5989,-12.5566 -29.7989,-12.5563 -8.0486,10e-5 -10.3192,0.5231 -16.0492,3.6968 -13.484,7.4688 -23.9569,22.7742 -28.8858,42.2148 -3.0724,12.1185 -4.1979,14.2005 -9.0254,16.6968 -5.582,2.8867 -9.2616,0.8976 -11.082,-5.9906 -4.6907,-17.7493 -21.8216,-29.9608 -42.0886,-30.0025 -10.5483,-0.021 -19.1085,3.3738 -21.4474,8.5068 -0.9695,2.1279 -1.1866,6.5218 -0.6438,13.0295 0.8126,9.7446 0.7898,9.8477 -3.0083,13.646 -2.5424,2.5423 -5.067,3.8271 -7.5203,3.8271 -4.2727,0 -5.6016,-1.3495 -7.6782,-7.7972 -1.2704,-3.9443 -9.7016,-12.9888 -10.9471,-11.7434 -0.2146,0.2147 2.078,5.6835 5.0947,12.153 6.2507,13.4046 11.978,30.6474 15.3252,46.1376 3.234,14.9671 3.2632,51.2399 0.054,66.25 -6.2051,29.0173 -20.518,56.975 -43.8351,85.625 -9.9614,12.2396 -10.3318,12.6125 -22.2441,22.3985 l -9.607,7.8921 4.4008,4.2297 c 11.6814,11.227 14.4642,25.1973 7.3132,36.7147 -6.6517,10.7131 -19.9169,17.7279 -40.2195,21.2684 -20.8312,3.6326 -34.312,2.212 -54.0119,-5.6915 l -12.2595,-4.9186 -9.2546,3.1623 c -21.1228,7.2178 -53.9831,14.2378 -81.7545,17.4655 -20.0533,2.3307 -64.8789,3.3035 -85,1.8448 z m 335.0408,29.8685 c 7.6372,-1.9231 12.3216,-6.426 11.2873,-10.8504 -1.2131,-5.1899 -8.243,-10.9797 -16.1071,-13.266 -23.485,-6.8272 -50.525,-4.3127 -52.8406,4.9139 -0.7615,3.0339 2.1298,9.3431 4.2816,9.3431 0.5388,0 3.7106,-2.5434 7.0487,-5.652 7.2178,-6.7214 11.5509,-8.2455 13.9838,-4.9184 2.7065,3.7014 2.0173,5.6763 -3.9906,11.4329 -5.4538,5.2255 -5.5645,5.4734 -2.8875,6.4636 2.2882,0.8465 3.6137,0.1573 7.4476,-3.873 5.0184,-5.2755 9.078,-5.9283 11.6084,-1.8666 1.0566,1.696 0.8813,3.0798 -0.7518,5.9375 l -2.1293,3.726 8.7633,0 c 4.8199,0 11.2486,-0.6257 14.2862,-1.3906 z m -41.2908,18.8334 c -15.1055,-3.6015 -27.3221,-10.8657 -31.8794,-18.9554 -9.9485,-17.6608 6.3687,-41.1656 31.8468,-45.8755 25.7397,-4.7583 56.6186,2.6885 66.1327,15.9486 3.5058,4.8861 3.8999,6.3489 3.8999,14.473 0,7.8815 -0.4847,9.8216 -3.7895,15.167 -4.3788,7.0824 -13.7388,14.6188 -21.8355,17.5813 -6.6339,2.4272 -36.4763,3.5442 -44.375,1.6609 z m 116.1577,31.1565 3.3699,-2.6508 -2.8889,-3.093 c -8.6535,-9.2654 -27.0522,-11.1712 -43.6671,-4.5232 l -5.1436,2.058 2.961,2.3086 c 4.8356,3.7701 8.1094,4.0926 11.3069,1.1136 1.7208,-1.6032 4.1247,-2.5249 6.011,-2.3046 2.5238,0.2947 3.2191,1.1522 3.529,4.3522 0.4393,4.5367 1.5157,4.9527 13.508,5.2196 6.0663,0.1352 8.3395,-0.3767 11.0138,-2.4804 z m -31.1577,20.6185 c -13.3281,-2.6247 -16.9198,-3.5977 -21.25,-5.7568 -13.1599,-6.5619 -17.444,-16.2949 -11.9298,-27.1035 5.0809,-9.9595 17.2029,-16.7342 35.4718,-19.8247 25.0806,-4.2427 44.9091,3.6242 49.7352,19.7325 2.0545,6.8572 -1.1935,14.9762 -9.0542,22.6328 -9.3315,9.089 -14.6714,11.1292 -28.6801,10.9569 -6.4862,-0.08 -12.9179,-0.3665 -14.2929,-0.6372 z"
       inkscape:connector-curvature="0" />
  </g>
</svg>
