<?xml version="1.0" encoding="UTF-8" standalone="no"?>
<!-- Created with Inkscape (http://www.inkscape.org/) -->

<svg
   xmlns:dc="http://purl.org/dc/elements/1.1/"
   xmlns:cc="http://creativecommons.org/ns#"
   xmlns:rdf="http://www.w3.org/1999/02/22-rdf-syntax-ns#"
   xmlns:svg="http://www.w3.org/2000/svg"
   xmlns="http://www.w3.org/2000/svg"
   xmlns:sodipodi="http://sodipodi.sourceforge.net/DTD/sodipodi-0.dtd"
   xmlns:inkscape="http://www.inkscape.org/namespaces/inkscape"
   id="svg3371"
   version="1.1"
   inkscape:version="0.91 r13725"
   width="768.72064"
   height="751.63507"
   viewBox="0 0 768.72064 751.63507"
   sodipodi:docname="talk-cloud-03.svg">
  <metadata
     id="metadata3377">
    <rdf:RDF>
      <cc:Work
         rdf:about="">
        <dc:format>image/svg+xml</dc:format>
        <dc:type
           rdf:resource="http://purl.org/dc/dcmitype/StillImage" />
        <dc:title />
      </cc:Work>
    </rdf:RDF>
  </metadata>
  <defs
     id="defs3375" />
  <sodipodi:namedview
     pagecolor="#ffffff"
     bordercolor="#666666"
     borderopacity="1"
     objecttolerance="10"
     gridtolerance="10"
     guidetolerance="10"
     inkscape:pageopacity="0"
     inkscape:pageshadow="2"
     inkscape:window-width="1440"
     inkscape:window-height="856"
     id="namedview3373"
     showgrid="false"
     inkscape:zoom="0.24544081"
     inkscape:cx="-690.57675"
     inkscape:cy="71.591734"
     inkscape:window-x="0"
     inkscape:window-y="0"
     inkscape:window-maximized="0"
     inkscape:current-layer="layer5"
     fit-margin-top="0"
     fit-margin-left="0"
     fit-margin-right="0"
     fit-margin-bottom="0" />
  <g
     inkscape:groupmode="layer"
     id="layer5"
     inkscape:label="cloud 03"
     transform="translate(162.44607,-510.05179)">
    <path
       transform="translate(-1031.6481,-301.28215)"
       id="path3447"
       style="display:inline;fill:#B2E9B5"
       d="m 1542.5664,1290.9375 c -0.6215,-1.5469 -1.7811,-7.3125 -2.577,-12.8125 -0.796,-5.5 -5.0231,-27.1562 -9.3938,-48.125 -8.7236,-41.8524 -12.599,-63.4051 -13.8588,-77.0752 -0.7828,-8.4926 -0.6594,-9.1159 2.4123,-12.1875 3.489,-3.4891 7.3128,-4.1809 9.2569,-1.6748 0.6666,0.8594 1.9278,7.4688 2.8024,14.6875 0.8747,7.2188 4.643,28.0313 8.374,46.25 11.4311,55.8194 14.177,70.2893 14.9817,78.9471 0.7249,7.8003 0.5688,8.5337 -2.4632,11.5657 -4.0125,4.0126 -8.0213,4.1911 -9.5345,0.4247 z m -48.1406,5 c -4.251,-10.1784 -5.9009,-19.7077 -8.7994,-50.8234 -2.0363,-21.8584 -4.1135,-31.9332 -8.4053,-40.7669 -3.0751,-6.3297 -2.1372,-10.2065 3.3373,-13.7935 4.549,-2.9806 6.5827,-1.6051 10.7071,7.2417 4.3262,9.28 6.8566,23.4218 8.7453,48.8765 0.8332,11.2311 2.5817,23.2999 4.4326,30.5963 3.7718,14.8692 3.7861,16.6107 0.1635,20.0139 -4.3037,4.0431 -8.1428,3.5361 -10.1812,-1.3446 z m -40.5478,1.875 c -0.6701,-2.5781 -1.841,-11.1006 -2.6019,-18.9387 -0.7608,-7.8383 -1.975,-17.0098 -2.6981,-20.3812 -1.7019,-7.9358 -0.6565,-11.75 3.8609,-14.086 7.5942,-3.9271 9.3579,-0.2671 12.0309,24.9684 1.0195,9.625 2.1697,19.4813 2.5562,21.9028 0.5829,3.6532 0.1225,4.9833 -2.7072,7.8125 -5.0374,5.0375 -8.9229,4.5618 -10.4408,-1.2778 z m -392.3267,41.875 c -4.2858,-5.3366 -11.8267,-24.4109 -17.185,-43.4684 -4.3637,-15.5202 -3.975,-18.6891 2.7307,-22.2605 4.304,-2.2922 6.5141,-0.469 8.6238,7.1144 4.1226,14.8186 9.7582,31.1544 13.8133,40.0405 5.0304,11.0234 5.1666,13.0494 1.1477,17.0684 -3.3401,3.3401 -7.1524,3.9687 -9.1305,1.5056 z m -54.7551,-0.3342 c -8.6633,-14.7828 -15.93368,-51.0105 -16.05051,-79.9783 -0.078,-19.3386 1.4665,-24.8777 7.34841,-26.3539 6.0787,-1.5257 6.2413,-1.0129 6.4072,20.2032 0.2303,29.454 6.6151,61.9458 14.9762,76.2128 3.778,6.4467 3.8076,9.3895 0.1294,12.845 -4.8404,4.5474 -8.9846,3.5999 -12.8107,-2.9288 z m -42.19859,28.4592 c -1.1474,-1.956 -4.52962,-19.0757 -6.97645,-35.3125 -5.04065,-33.449 -15.11342,-141.5033 -15.11904,-162.1875 -0.002,-9.0102 2.55394,-12.8125 8.61414,-12.8125 4.41918,0 5.13367,1.6234 5.13399,11.6647 5.7e-4,17.9637 8.81476,112.8983 13.88822,149.5853 1.37859,9.9688 3.59889,23.1611 4.93403,29.3165 3.0455,14.0406 3.04971,13.9249 -0.64069,17.6154 -2.91016,2.9101 -8.64776,4.1532 -9.8342,2.1306 z m 323.32119,170.7689 c -39.1883,-20.6815 -72.7842,-57.9064 -90.4314,-100.1994 -4.7102,-11.2885 -9.9874,-29.0842 -9.9874,-33.6795 0,-3.3126 3.3818,-9.4175 5.9901,-10.8134 1.8231,-0.9757 37.4213,-7.2643 54.0099,-9.5412 2.4063,-0.3303 18.7188,-1.7276 36.25,-3.1053 55.9111,-4.3935 67.8474,-6.4651 157.5,-27.3346 33.8255,-7.8739 36.2419,-8.2587 75.625,-12.0451 40.7785,-3.9207 59.254,-6.241 80.625,-10.1263 20.2156,-3.6752 21.25,-3.9657 21.25,-5.969 0,-3.7319 -4.5781,-16.3885 -11.8074,-32.6426 -9.8626,-22.175 -8.9913,-19.5215 -12.6913,-38.6538 -4.6333,-23.9585 -7.1175,-33.1129 -18.004,-66.3462 -22.1813,-67.7128 -27.2877,-101.2655 -29.9618,-196.875 -1.5602,-55.78241 -3.1586,-85.8813 -5.7751,-108.75 -1.9671,-17.19338 -6.3969,-44.65063 -7.4886,-46.41709 -0.3318,-0.5367 -4.1004,1.30584 -8.3749,4.09454 -12.4299,8.1092 -48.9574,25.49862 -65.2719,31.07349 -37.4576,12.79973 -68.0456,18.89085 -147.5,29.37213 -18.5625,2.44869 -48.375,6.95948 -66.25,10.02398 -50.3612,8.63396 -62.1301,9.72845 -105.625,9.82292 -21.3221,0.0464 -46.1132,-0.61866 -56.25,-1.50881 -28.1221,-2.4695 -128.4399,-12.57282 -138.82837,-13.98185 -5.11315,-0.69352 -19.90781,-1.62302 -32.87702,-2.06557 l -23.5804,-0.80463 0.78754,4.88294 c 2.67761,16.60185 7.21996,61.38364 9.43408,93.00795 3.8039,54.3315 5.85261,75.7679 11.97086,125.2555 6.10911,49.4138 9.78564,87.3645 11.82625,122.0762 1.41884,24.1348 3.6854,115.1379 3.73685,150.0355 l 0.0303,20.4923 10.3125,-0.8425 c 5.67187,-0.4634 26.90625,-4.1735 47.1875,-8.2448 43.93421,-8.8192 54.21241,-9.8357 102.87491,-10.1741 30.7451,-0.2139 37.537,0.05 38.8939,1.5089 0.9042,0.9724 3.1756,6.5492 5.0477,12.393 8.5107,26.5671 24.7114,53.6615 44.2729,74.0433 18.2931,19.0601 36.7647,32.1655 59.1368,41.9571 18.479,8.0877 44.393,14.7362 58.9426,15.1224 4.687,0.1237 4.5757,0.012 -5,-5.0414 z m -3.5438,23.8234 c -42.7289,-3.3214 -85.0641,-22.2487 -117.3793,-52.4781 -21.7517,-20.3476 -41.8578,-51.7017 -52.6726,-82.1395 l -3.6552,-10.2872 -31.2714,0 c -41.2744,0 -53.1392,1.2302 -96.8965,10.0007 -20.29356,4.0675 -44.39659,8.087 -53.60205,8.9388 l -16.72705,1.5476 -2.33545,-2.8841 c -2.20131,-2.7185 -2.33617,-6.053 -2.34805,-58.0582 -0.0221,-96.9898 -2.34003,-135.7563 -13.72499,-229.5448 -5.76786,-47.5152 -8.76627,-78.6975 -13.10145,-136.25 -3.66891,-48.70727 -4.60652,-58.2684 -8.97762,-91.54741 -3.029,-23.06107 -3.10701,-24.87634 -1.19458,-27.79509 3.75768,-5.73494 7.27687,-6.99785 22.84384,-8.19784 16.9066,-1.30325 43.92383,0.0514 75.4174,3.78139 28.42048,3.36605 102.7677,10.79531 126.25,12.61575 10.6563,0.82611 33.7188,1.49634 51.25,1.48937 35.6197,-0.0141 57.5022,-1.90662 89.375,-7.72952 25.4736,-4.65381 45.3979,-7.6652 87.5,-13.22487 63.8863,-8.43631 100.7531,-15.97298 133.75,-27.34237 29.5971,-10.19799 45.8399,-18.00911 69.4169,-33.38256 13.1536,-8.57682 18.2946,-10.3024 20.9961,-7.04731 1.9644,2.36701 7.2756,29.81425 10.0875,52.13046 3.1976,25.3783 4.8655,54.11971 6.4195,110.625 1.8276,66.4542 3.9598,92.1929 10.7175,129.375 4.1049,22.5854 8.8309,40.1222 19.8751,73.75 10.1925,31.0346 14.2089,46.0285 18.0317,67.3165 1.9837,11.0466 4.329,18.3949 10.5831,33.1591 10.0194,23.6527 12.9377,32.6535 14.4107,44.4439 1.8813,15.0596 -0.7876,18.1601 -19.2881,22.4069 -25.7985,5.922 -58.3011,10.4241 -110,15.2366 -30.3616,2.8263 -38.1,4.206 -83.8766,14.955 -67.4599,15.8406 -91.4284,19.869 -141.1589,23.7248 -17.8555,1.3843 -34.9957,2.844 -38.0895,3.2436 -9.0218,1.1654 -35.5371,5.6341 -35.9642,6.0611 -0.8525,0.8525 5.3485,16.9483 10.5965,27.5046 25.9443,52.1873 68.9521,86.2348 128.6767,101.8682 2.8511,0.7462 5.5175,2.226 5.925,3.2882 1.0016,2.61 -1.9889,9.3053 -5.6354,12.6173 -6.7182,6.1017 -37.7612,9.886 -64.2236,7.829 z"
       inkscape:connector-curvature="0" />
  </g>
</svg>
