<?xml version="1.0" encoding="UTF-8" standalone="no"?>
<!-- Created with Inkscape (http://www.inkscape.org/) -->

<svg
   xmlns:dc="http://purl.org/dc/elements/1.1/"
   xmlns:cc="http://creativecommons.org/ns#"
   xmlns:rdf="http://www.w3.org/1999/02/22-rdf-syntax-ns#"
   xmlns:svg="http://www.w3.org/2000/svg"
   xmlns="http://www.w3.org/2000/svg"
   xmlns:sodipodi="http://sodipodi.sourceforge.net/DTD/sodipodi-0.dtd"
   xmlns:inkscape="http://www.inkscape.org/namespaces/inkscape"
   id="svg3371"
   version="1.1"
   inkscape:version="0.91 r13725"
   width="817.35193"
   height="709.46497"
   viewBox="0 0 817.35194 709.46494"
   sodipodi:docname="talk-cloud-11.svg">
  <metadata
     id="metadata3377">
    <rdf:RDF>
      <cc:Work
         rdf:about="">
        <dc:format>image/svg+xml</dc:format>
        <dc:type
           rdf:resource="http://purl.org/dc/dcmitype/StillImage" />
        <dc:title />
      </cc:Work>
    </rdf:RDF>
  </metadata>
  <defs
     id="defs3375" />
  <sodipodi:namedview
     pagecolor="#ffffff"
     bordercolor="#666666"
     borderopacity="1"
     objecttolerance="10"
     gridtolerance="10"
     guidetolerance="10"
     inkscape:pageopacity="0"
     inkscape:pageshadow="2"
     inkscape:window-width="1440"
     inkscape:window-height="856"
     id="namedview3373"
     showgrid="false"
     inkscape:zoom="0.24544081"
     inkscape:cx="-266.58535"
     inkscape:cy="805.00754"
     inkscape:window-x="0"
     inkscape:window-y="0"
     inkscape:window-maximized="0"
     inkscape:current-layer="layer2"
     fit-margin-top="0"
     fit-margin-left="0"
     fit-margin-right="0"
     fit-margin-bottom="0" />
  <g
     inkscape:groupmode="layer"
     id="layer2"
     inkscape:label="cloud 11"
     transform="translate(-133.59591,-941.23426)">
    <path
       transform="translate(-854.00464,-1672.9224)"
       id="path3683"
       style="display:inline;fill:#E32636"
       d="m 1323.75,3266.957 c 19.8055,-12.8047 39.7485,-32.5541 54.7706,-54.2389 25.0685,-36.1868 47.5921,-94.2961 51.037,-131.6718 0.7525,-8.1645 1.2993,-9.6268 4.9807,-13.3205 3.0777,-3.0883 5.024,-4.0472 7.611,-3.75 2.9499,0.3388 4.3264,1.9997 9.1007,10.9813 4.994,9.395 17.7814,25.4397 18.9626,23.7929 0.2465,-0.3437 3.1027,-4.6017 6.3469,-9.4621 6.8719,-10.2955 22.1329,-25.5379 25.569,-25.5379 3.0129,0 5.3715,2.3339 5.3715,5.3153 0,1.2733 -3.9164,6.4528 -8.703,11.5101 -8.572,9.0564 -18.797,23.3734 -18.797,26.3192 0,1.2963 13.3415,9.3554 15.4875,9.3554 0.4194,0 0.7625,-0.8437 0.7625,-1.875 0,-2.8545 4.6374,-6.875 7.9296,-6.875 2.1459,0 5.2155,-2.7592 11.4729,-10.3125 18.3969,-22.2071 24.0024,-26.4969 28.1283,-21.5255 1.2013,1.4476 1.2516,2.6476 0.2068,4.9408 -1.6048,3.5222 -19.1112,24.4512 -28.6773,34.284 -3.6182,3.719 -6.4337,6.9058 -6.2568,7.0818 0.57,0.5675 20.1579,5.2878 25.3589,6.1109 4.33,0.6854 5.7786,0.2604 10.3145,-3.0254 2.9024,-2.1023 8.5105,-7.866 12.4625,-12.8078 13.1782,-16.4788 19.1044,-22.2463 22.8582,-22.2463 3.3544,0 4.9524,1.883 4.9524,5.8354 0,1.0346 -3.2652,5.348 -7.2561,9.5854 -3.9909,4.2372 -10.2581,11.3605 -13.9274,15.8292 l -6.6712,8.125 7.9898,0.4089 c 4.3944,0.225 13.1804,0.033 19.5244,-0.427 l 11.5345,-0.836 5.619,-7.8743 c 11.761,-16.4816 23.2874,-22.9355 24.197,-13.5485 0.3255,3.3584 -0.6274,4.9909 -6.1586,10.5513 -3.599,3.618 -5.8821,6.7987 -5.0736,7.0682 0.8086,0.2695 4.3153,-0.12 7.793,-0.866 7.9653,-1.7082 20.1852,-9.9031 24.5082,-16.4357 3.2606,-4.927 7.4485,-7.0943 11.0433,-5.7149 2.1615,0.8294 2.4802,6.0876 0.5837,9.6311 -0.7116,1.3299 -1.0057,2.4179 -0.6535,2.4179 2.0631,0 18.6086,-6.9921 29.5098,-12.4707 55.4723,-27.8789 89.5977,-72.6677 98.1195,-128.7793 4.6165,-30.3971 0.1447,-66.8104 -12.5109,-101.875 -31.9231,-88.4487 -120.5309,-171.5514 -223.1959,-209.329 -79.6477,-29.3081 -170.5795,-35.4109 -260.6,-17.4899 -64.1505,12.7709 -132.5191,43.0953 -185,82.0554 -19.1393,14.2084 -50.0386,44.5349 -61.277,60.1409 -27.5355,38.2369 -39.4692,76.3041 -37.6963,120.2476 0.9488,23.5164 5.8877,46.212 14.0953,64.7708 l 2.987,6.754 9.8224,-9.2403 c 11.9109,-11.2049 20.2342,-16.0944 23.203,-13.6305 2.0846,1.7301 2.5292,4.738 1.2089,8.1786 -0.4299,1.1204 -3.9455,4.2087 -7.8125,6.8629 -3.8669,2.6543 -10.1245,7.9949 -13.9058,11.8683 l -6.875,7.0423 4.7674,9.0094 c 8.0322,15.1795 5.9986,15.2451 22.2206,-0.7172 7.8441,-7.7185 15.8455,-14.8492 17.7809,-15.8458 4.3993,-2.2655 7.5593,-0.6215 8.1359,4.2326 0.3223,2.713 -0.6846,4.3439 -4.9386,7.9989 -11.1893,9.6135 -21.0209,19.3551 -24.2796,24.0575 l -3.3838,4.8829 4.7757,5.9502 c 2.6267,3.2728 6.7789,8.2004 9.2272,10.9504 l 4.4514,5 5.1382,-2.5 c 6.1506,-2.9925 13.1697,-8.6626 24.5528,-19.834 4.6465,-4.5601 9.4995,-8.291 10.7845,-8.291 3.5144,0 5.554,3.19 4.5633,7.1373 -0.9696,3.8628 -16.3709,19.5441 -27.2783,27.774 l -7.2325,5.457 2.8575,3.0655 c 1.5716,1.6861 7.3078,6.427 12.7472,10.5353 l 9.8897,7.4698 17.6259,-17.5945 c 14.1711,-14.1458 18.3043,-17.5944 21.087,-17.5944 3.831,0 5.2804,2.2737 4.1851,6.5652 -0.3944,1.5454 -7.699,10.0082 -16.2325,18.8062 l -15.5155,15.9963 7.0353,3.535 c 8.5195,4.2808 24.4339,10.0973 27.6271,10.0973 1.343,0 4.9476,-3.2859 8.5703,-7.8125 10.526,-13.1524 15.7587,-17.6353 19.4915,-16.6984 5.0271,1.2618 4.3822,7.0235 -1.5224,13.6013 -2.609,2.9066 -6.3472,7.2533 -8.3072,9.6596 l -3.5635,4.375 4.8697,0.8654 c 7.6008,1.3508 20.3573,1.1511 25.534,-0.3999 3.5264,-1.0565 8.0454,-4.969 18.0469,-15.625 13.3758,-14.251 16.7664,-16.363 20.4138,-12.7155 2.8652,2.8651 1.4574,6.1089 -6.2443,14.3876 -4.2594,4.5785 -7.1256,8.5308 -6.3695,8.7828 2.1957,0.7318 23.6888,-7.9889 36.3856,-14.7634 16.1152,-8.5984 34.7243,-21.2971 54.8906,-37.4571 22.2781,-17.8524 24.8714,-17.9158 27.8195,-0.6805 1.8177,10.626 1.5626,10.4633 12.6757,8.08 5.8343,-1.2512 6.7079,-1.1583 8.1924,0.872 3.5768,4.8913 -2.2779,12.2053 -10.9415,13.6691 l -5.2359,0.8845 0.7917,7.5737 c 0.4353,4.1657 0.9563,7.7385 1.1577,7.94 0.2015,0.2014 4.6808,-0.8223 9.9539,-2.2752 7.8494,-2.1625 9.9354,-2.3528 11.5059,-1.0494 2.6425,2.1931 2.4023,6.5448 -0.5353,9.698 -2.1815,2.3416 -13.5251,6.5879 -17.599,6.5879 -1.858,0 -0.5869,16.1034 1.4308,18.125 0.6861,0.6875 3.6098,1.25 6.4971,1.25 4.4556,0 5.3087,0.4156 5.6406,2.748 0.5929,4.1666 -1.8186,7.598 -7.3077,10.3984 l -4.9583,2.5293 0,18.6607 c 0,53.7897 -13.5457,94.5722 -41.25,124.1918 l -10.625,11.3595 8.75,-4.7763 c 4.8125,-2.627 12.4063,-7.1403 16.875,-10.0294 z M 1214,3322.25 c -2.0551,-2.0551 -1.8812,-6.637 0.4209,-11.0887 1.5822,-3.0597 6.4517,-5.9073 27.616,-16.1499 30.8841,-14.9465 43.1397,-22.8684 55.6719,-35.9856 11.8417,-12.3947 18.4468,-23.4688 24.0978,-40.4028 7.52,-22.534 9.8328,-38.8867 9.8824,-69.873 0.024,-14.7812 -0.6561,-32.5 -1.5106,-39.375 -2.2418,-18.0357 -7.7889,-52.2424 -8.7573,-54.0008 -0.5486,-0.9962 -4.6031,1.4854 -12.0612,7.3822 -61.79,48.8545 -119.9645,65.685 -173.9584,50.328 -15.3508,-4.3662 -41.179,-17.481 -55.4015,-28.1315 -43.4304,-32.5228 -76.0924,-82.7254 -88.20747,-135.5779 -2.93619,-12.8093 -3.52025,-18.56 -3.99909,-39.375 -0.47516,-20.6555 -0.16831,-26.6798 2.01087,-39.4789 10.65599,-62.586 50.71899,-119.2365 117.69569,-166.4257 44.3308,-31.2339 113.7273,-63.0277 162.9171,-74.6399 84.8284,-20.0256 169.3163,-20.3978 245.2079,-1.0803 143.7716,36.5958 259.1379,145.0829 285.0594,268.0617 4.0162,19.0543 5.4994,52.8608 3.141,71.5973 -11.7246,93.1485 -95.3108,164.5873 -210.0754,179.5457 -15.0097,1.9563 -51.1452,1.9662 -64.7586,0.017 -32.4995,-4.6519 -60.3423,-17.557 -78.1424,-36.2193 -4.0019,-4.1956 -7.4279,-7.6283 -7.6136,-7.6283 -0.1856,0 -1.0611,3.2335 -1.9456,7.1855 -2.649,11.837 -12.0093,37.8926 -20.6893,57.5915 -27.9687,63.4737 -65.962,104.0367 -122.8206,131.1278 -16.9005,8.0525 -41.8151,16.4873 -61.6804,20.8819 -16.2723,3.5996 -19.9295,3.8833 -22.0995,1.7133 z"
       inkscape:connector-curvature="0" />
  </g>
</svg>
