<?xml version="1.0" encoding="UTF-8" standalone="no"?>
<!-- Created with Inkscape (http://www.inkscape.org/) -->

<svg
   xmlns:dc="http://purl.org/dc/elements/1.1/"
   xmlns:cc="http://creativecommons.org/ns#"
   xmlns:rdf="http://www.w3.org/1999/02/22-rdf-syntax-ns#"
   xmlns:svg="http://www.w3.org/2000/svg"
   xmlns="http://www.w3.org/2000/svg"
   xmlns:sodipodi="http://sodipodi.sourceforge.net/DTD/sodipodi-0.dtd"
   xmlns:inkscape="http://www.inkscape.org/namespaces/inkscape"
   id="svg3371"
   version="1.1"
   inkscape:version="0.91 r13725"
   width="973.09979"
   height="608.43317"
   viewBox="0 0 973.09984 608.43314"
   sodipodi:docname="talk-cloud-17.svg">
  <metadata
     id="metadata3377">
    <rdf:RDF>
      <cc:Work
         rdf:about="">
        <dc:format>image/svg+xml</dc:format>
        <dc:type
           rdf:resource="http://purl.org/dc/dcmitype/StillImage" />
        <dc:title />
      </cc:Work>
    </rdf:RDF>
  </metadata>
  <defs
     id="defs3375" />
  <sodipodi:namedview
     pagecolor="#ffffff"
     bordercolor="#666666"
     borderopacity="1"
     objecttolerance="10"
     gridtolerance="10"
     guidetolerance="10"
     inkscape:pageopacity="0"
     inkscape:pageshadow="2"
     inkscape:window-width="1440"
     inkscape:window-height="856"
     id="namedview3373"
     showgrid="false"
     inkscape:zoom="0.24544081"
     inkscape:cx="-1244.4532"
     inkscape:cy="-389.11299"
     inkscape:window-x="0"
     inkscape:window-y="0"
     inkscape:window-maximized="0"
     inkscape:current-layer="layer5"
     fit-margin-top="0"
     fit-margin-left="0"
     fit-margin-right="0"
     fit-margin-bottom="0" />
  <g
     inkscape:groupmode="layer"
     id="layer5"
     inkscape:label="cloud 17"
     transform="translate(-1687.9142,-758.38118)">
    <path
       transform="translate(-1581.331,-2229.4356)"
       id="path3687"
       style="display:inline;fill:#B2E9B5"
       d="m 3804.4891,3400.9375 c -3.192,-4.9366 -6.9891,-15.8923 -6.9891,-20.165 0,-5.0744 3.2356,-8.2725 8.3695,-8.2725 3.5637,0 4.01,0.5581 7.2472,9.0625 4.4177,11.6056 4.4394,15.5681 0.1063,19.2954 -4.2223,3.6318 -6.424,3.652 -8.7338,0.08 z m -236.7505,114.375 c 58.076,-69.9818 76.3264,-90.7613 81.9364,-93.291 4.0785,-1.8391 5.2814,-3.211 6.5326,-7.4504 2.2813,-7.7294 8.8899,-19.5774 12.0891,-21.6736 3.9299,-2.575 8.4833,-1.6908 8.9714,1.7422 0.2163,1.5207 -1.0146,5.1769 -2.7354,8.125 -1.7207,2.9482 -3.728,6.9495 -4.4606,8.892 l -1.3319,3.5318 11.5674,-0.7869 c 17.9976,-1.2242 16.7692,-0.4539 17.4543,-10.9464 0.9749,-14.9297 8.0792,-24.7128 14.2357,-19.6033 2.0262,1.6813 1.9527,3.137 -0.6792,13.4577 -0.7623,2.989 -1.0268,7.3484 -0.588,9.6875 l 0.7979,4.2529 9.3816,0 c 8.3726,0 9.3051,-0.2353 8.6702,-2.1875 -2.7798,-8.5472 -5.8301,-20.0074 -5.8301,-21.9047 0,-3.6503 5.8117,-8.628 9.5457,-8.176 2.9159,0.353 3.5538,1.4551 6.2382,10.7791 1.6446,5.7121 4.0837,12.5295 5.4205,15.1497 l 2.4304,4.7639 9.1201,-0.6237 c 5.0161,-0.3432 9.3,-0.7779 9.5198,-0.9662 0.2198,-0.1882 -0.7646,-2.6245 -2.1875,-5.4137 -1.423,-2.7891 -2.5872,-6.7813 -2.5872,-8.8711 0,-4.6467 3.8656,-8.7998 8.1906,-8.7998 2.7051,0 3.7719,1.2419 7.0095,8.1605 2.1004,4.4884 3.8989,9.5504 3.9969,11.2491 0.105,1.823 0.9462,3.0965 2.053,3.1079 5.272,0.054 72.29,-3.9885 74.8011,-4.5121 2.212,-0.4611 2.6959,-1.1313 1.9828,-2.7453 -0.519,-1.1742 -2.2782,-5.9531 -3.9094,-10.6195 -2.5808,-7.3822 -2.7556,-8.9233 -1.3464,-11.8636 1.7831,-3.7204 7.2298,-6.9252 9.9774,-5.8709 0.965,0.3704 2.7365,3.8623 3.9366,7.7599 1.2001,3.8976 4.1637,10.3485 6.5855,14.3353 3.9806,6.5527 4.8125,7.2487 8.6643,7.2487 5.5543,0 35.3674,-2.4502 38.9705,-3.2027 l 2.7873,-0.5823 -2.4748,-6.2787 c -2.5469,-6.4614 -3.0544,-10.7215 -1.6984,-14.2553 1.0067,-2.6236 7.2915,-5.8642 9.6314,-4.9664 0.9989,0.3834 3.3013,4.7388 5.1165,9.6787 1.8152,4.94 4.2701,10.247 5.4552,11.7933 l 2.1548,2.8116 16.5546,-2.0687 16.5545,-2.0688 17.8157,17.3935 c 18.8785,18.4312 42.726,39.323 68.4408,59.9587 18.3519,14.7271 35.8169,28.0371 36.7892,28.0371 0.3778,0 -1.3026,-3.5156 -3.7343,-7.8125 -13.9994,-24.7378 -26.8203,-54.6625 -34.9443,-81.5625 -7.9637,-26.3694 -7.3745,-30.8108 4.8078,-36.2354 3.5511,-1.5812 12.5475,-5.5576 19.992,-8.8365 l 13.5353,-5.9615 -3.8478,-3.0114 c -4.4677,-3.4965 -4.8247,-6.2512 -1.378,-10.633 3.9165,-4.9791 6.8271,-4.9878 14.017,-0.043 l 6.4436,4.4325 5.5119,-2.9813 c 3.0315,-1.6397 5.7637,-3.3763 6.0716,-3.859 0.3079,-0.4828 -1.9881,-3.2264 -5.1021,-6.0968 -6.2954,-5.8029 -6.8472,-8.0566 -3.1293,-12.783 4.3084,-5.4772 6.6351,-5.3241 14.3293,0.9429 3.842,3.1292 8.037,5.6896 9.3221,5.6896 1.8827,0 16.316,-10.4002 16.316,-11.7569 0,-0.2031 -2.8125,-2.1177 -6.25,-4.2546 -6.9383,-4.3131 -7.714,-6.7902 -3.7174,-11.871 4.1255,-5.2447 6.6844,-5.2741 15.081,-0.1735 l 7.6,4.6168 5.5576,-5.4543 5.5577,-5.4544 -5.0394,-4.7951 c -5.993,-5.7022 -6.479,-9.6424 -1.732,-14.0416 4.4157,-4.0924 6.1089,-3.8835 12.0534,1.487 l 5.039,4.5524 3.4768,-4.2399 c 9.925,-12.1033 21.492,-35.4315 26.331,-53.1044 3.9973,-14.5985 4.0195,-40.7746 0.047,-55.5105 -6.3331,-23.4931 -20.9817,-47.2202 -41.8291,-67.7522 -52.3555,-51.5638 -129.8887,-80.7175 -242.0722,-91.0229 -42.4997,-3.904 -115.0489,-3.619 -165.9919,0.6521 -91.264,7.6519 -191.0919,28.5828 -272.8616,57.2108 -52.4439,18.361 -97.187,41.7799 -127.6313,66.8032 -18.7487,15.4105 -38.6846,37.6769 -51.36,57.3644 -11.6296,18.063 -23.9767,49.4614 -28.5889,72.7006 -2.9058,14.6419 -4.5581,44.2408 -3.1145,55.7948 l 0.888,7.1074 3.4883,-4.8154 c 7.0846,-9.78 17.2361,-16.647 21.9406,-14.8418 4.2576,1.6338 2.0365,7.0977 -6.1475,15.1222 -6.901,6.7662 -8.1472,8.6818 -8.8955,13.6714 -0.5969,3.9804 -1.8274,6.5557 -3.9177,8.2 l -3.0475,2.3972 2.2931,7.787 2.2932,7.7869 8.5187,-9.4804 c 9.2592,-10.3048 14.503,-13.552 17.6571,-10.9343 3.8871,3.2259 2.137,7.3809 -7.2724,17.2656 -5.0305,5.2847 -10.1647,11.1662 -11.4096,13.0702 -2.236,3.4197 -2.2166,3.5562 1.5947,11.25 2.122,4.2835 5.8954,11.0256 8.3852,14.9822 l 4.5268,7.1941 5.9283,-9.0691 c 5.9589,-9.1157 13.847,-17.194 16.7894,-17.194 2.4271,0 4.5815,2.6986 4.5815,5.7389 0,1.5064 -2.1094,5.2931 -4.6875,8.4149 -4.5944,5.5632 -12.0209,17.137 -13.3764,20.8462 -0.6838,1.871 8.4615,13.75 10.5856,13.75 0.5925,0 4.0644,-3.6411 7.7153,-8.0912 7.3168,-8.9188 12.3045,-11.9679 15.3891,-9.4078 3.3041,2.7421 2.0997,7.1612 -3.7455,13.7427 -7.2678,8.1832 -9.7855,12.0901 -8.8091,13.6698 1.1752,1.9016 25.0568,17.5865 26.777,17.5865 0.8172,0 2.656,-1.9832 4.0861,-4.4072 2.8307,-4.7978 5.7325,-6.8428 9.7094,-6.8428 4.198,0 4.6146,5.275 0.9366,11.8559 l -3.1728,5.6765 4.3483,1.8169 c 6.3612,2.6579 26.6691,9.0504 31.7439,9.9922 3.857,0.7159 4.8668,0.3038 8.5285,-3.4806 2.2845,-2.361 5.9487,-7.0362 8.1427,-10.3894 3.5115,-5.3663 4.511,-6.0965 8.3465,-6.0965 3.5266,0 4.4313,0.52 4.7456,2.7279 0.4538,3.1876 -2.3963,9.1644 -7.4185,15.5566 l -3.5625,4.5345 3.89,0.778 c 2.1397,0.4279 7.4954,0.778 11.9017,0.778 l 8.0115,0 7.6605,-8.189 c 6.6356,-7.0935 8.1767,-8.1387 11.5197,-7.8125 3.2123,0.3134 3.928,0.9784 4.2695,3.9662 0.3076,2.6928 -0.6292,4.68 -3.75,7.9536 l -4.1602,4.364 10,-0.8756 c 5.5,-0.4817 14.5,-1.6725 20,-2.6465 5.5,-0.974 13.802,-2.4464 18.449,-3.272 13.2408,-2.3523 12.9947,-3.0713 9.7727,28.5582 -1.4612,14.3433 -3.6604,32.688 -4.8872,40.7661 -1.2268,8.0782 -2.0535,14.6875 -1.8372,14.6875 0.2163,0 15.681,-18.4218 34.3663,-40.9375 z m -57.0243,78.9732 c -2.4386,-2.4385 -2.4527,-5.5046 -0.066,-14.2857 2.968,-10.92 7.763,-40.2266 9.9192,-60.625 1.0902,-10.3125 2.2231,-20.6164 2.5176,-22.8976 0.5074,-3.9314 0.3596,-4.1119 -2.8373,-3.464 -27.0839,5.4891 -71.2094,6.5042 -95.2477,2.1912 -22.2823,-3.998 -35.3818,-8.2582 -54.375,-17.6836 -20.711,-10.2778 -34.4858,-20.3226 -50.2863,-36.6694 -43.0535,-44.5421 -60.2548,-110.4331 -46.3966,-177.7266 13.0025,-63.1385 53.6919,-120.2405 114.1829,-160.2401 78.4392,-51.8678 222.453,-94.9077 365,-109.0838 167.1115,-16.619 304.7542,1.6221 389.7648,51.6535 26.5319,15.6149 55.6307,40.8109 71.6559,62.0454 9.8153,13.0057 20.7881,34.7012 24.3403,48.125 3.6696,13.868 4.5952,40.9061 1.9255,56.25 -5.5467,31.8786 -21.7095,62.7955 -49.1364,93.9895 -6.7651,7.6941 -13.3108,15.4285 -14.546,17.1875 -1.2353,1.7589 -3.065,3.198 -4.0663,3.198 -1.0012,0 -6.7406,4.0365 -12.7541,8.97 -16.917,13.8785 -42.6799,30.231 -64.8834,41.1835 l -20.1995,9.964 2.5088,9.0037 c 12.9785,46.5803 42.0277,100.2725 72.695,134.3635 5.0734,5.6399 7.0704,8.858 7.0704,11.3939 0,4.3763 -3.733,9.2933 -8.5793,11.3006 -4.6106,1.9098 -6.0115,1.2243 -30.1707,-14.7662 -44.5372,-29.478 -106.2363,-78.9396 -140.1864,-112.3818 l -13.3115,-13.1122 -24.8135,2.6719 c -35.165,3.7866 -79.4816,7.1012 -137.3136,10.2702 -34.4193,1.8861 -51.131,3.2695 -53.6295,4.4394 -4.3238,2.0245 -7.2813,2.1637 -9.0203,0.4247 -0.8664,-0.8663 -12.8466,-0.4292 -37.393,1.3644 -34.8291,2.545 -36.2507,2.7506 -39.8277,5.7605 -2.7352,2.3015 -4.6237,2.9385 -7.1893,2.4254 -3.2236,-0.6446 -4.7991,0.8425 -21.4006,20.2017 -17.8185,20.7784 -104.4311,124.0794 -108.8569,129.8312 -2.5024,3.2521 -8.3009,6.6916 -11.2814,6.6916 -1.0162,0 -2.7317,-0.8839 -3.8121,-1.9643 z"
       inkscape:connector-curvature="0" />
  </g>
</svg>
