<?xml version="1.0" encoding="UTF-8" standalone="no"?>
<!-- Created with Inkscape (http://www.inkscape.org/) -->

<svg
   xmlns:dc="http://purl.org/dc/elements/1.1/"
   xmlns:cc="http://creativecommons.org/ns#"
   xmlns:rdf="http://www.w3.org/1999/02/22-rdf-syntax-ns#"
   xmlns:svg="http://www.w3.org/2000/svg"
   xmlns="http://www.w3.org/2000/svg"
   xmlns:sodipodi="http://sodipodi.sourceforge.net/DTD/sodipodi-0.dtd"
   xmlns:inkscape="http://www.inkscape.org/namespaces/inkscape"
   id="svg3371"
   version="1.1"
   inkscape:version="0.91 r13725"
   width="650"
   height="650"
   viewBox="0 0 650 650"
   sodipodi:docname="talk-cloud-05.svg">
  <metadata
     id="metadata3377">
    <rdf:RDF>
      <cc:Work
         rdf:about="">
        <dc:format>image/svg+xml</dc:format>
        <dc:type
           rdf:resource="http://purl.org/dc/dcmitype/StillImage" />
        <dc:title></dc:title>
      </cc:Work>
    </rdf:RDF>
  </metadata>
  <defs
     id="defs3375" />
  <sodipodi:namedview
     pagecolor="#ffffff"
     bordercolor="#666666"
     borderopacity="1"
     objecttolerance="10"
     gridtolerance="10"
     guidetolerance="10"
     inkscape:pageopacity="0"
     inkscape:pageshadow="2"
     inkscape:window-width="1440"
     inkscape:window-height="856"
     id="namedview3373"
     showgrid="false"
     inkscape:zoom="0.24544081"
     inkscape:cx="-258.75605"
     inkscape:cy="-597.34426"
     inkscape:window-x="0"
     inkscape:window-y="0"
     inkscape:window-maximized="0"
     inkscape:current-layer="layer7"
     fit-margin-top="5"
     fit-margin-left="5"
     fit-margin-right="5"
     fit-margin-bottom="5" />
  <g
     inkscape:groupmode="layer"
     id="layer7"
     inkscape:label="cloud 05"
     transform="translate(-763.19925,580.82069)">
    <path
       id="path3411"
       style="display:inline;fill:#e32636"
       d="m 1015.2455,21.54612 c 27.0104,-13.05368 49.8849,-31.85227 65.5127,-53.8393 9.0693,-12.75959 20.7789,-35.24569 26.6695,-51.21344 4.5458,-12.32197 6.7513,-16.05254 10.7585,-18.19713 1.1208,-0.5998 9.4772,-2.23077 18.5697,-3.62438 42.1211,-6.45585 77.6569,-17.17537 112.7138,-34.0006 l 15.7933,-7.5798 -7.3558,-10.88654 c -4.0456,-5.98759 -7.3557,-12.08141 -7.3557,-13.54184 0,-3.05678 4.7309,-8.81502 7.5,-9.12858 3.9099,-0.44277 4.9948,0.19982 7.0005,4.14637 1.1355,2.23437 4.8447,7.83954 8.2426,12.45591 l 6.1781,8.3934 6.7168,-4.45962 6.7166,-4.45963 -5.1085,-6.43377 c -5.8846,-7.41117 -13.4961,-22.50763 -13.4961,-26.76784 0,-3.74309 5.3069,-9.05076 9.0056,-9.00703 2.3425,0.0277 3.719,1.82952 7.4957,9.81144 2.5445,5.37762 7.103,12.51318 10.1302,15.8568 l 5.5039,6.07931 8.3594,-7.33911 c 4.5977,-4.03651 10.091,-9.52546 12.2075,-12.19766 l 3.848,-4.85855 -8.0678,-8.38057 c -14.8552,-15.43133 -16.9571,-20.67112 -10.6491,-26.54787 4.4349,-4.1317 7.6977,-3.13187 12.7559,3.90868 6.0522,8.42417 14.3765,17.38361 16.1512,17.38361 1.9374,0 19.5095,-28.52814 19.5095,-31.67355 0,-0.28774 -1.6734,-1.21628 -3.7186,-2.06344 -4.7583,-1.97092 -13.7814,-11.71525 -13.7814,-14.88285 0,-4.10569 1.4039,-6.39552 5.0894,-8.3014 1.9451,-1.00581 3.7886,-1.82876 4.0968,-1.82876 0.3083,0 3.5175,2.89543 7.1317,6.43429 7.9292,7.76412 8.1329,7.61659 12.7741,-9.25589 5.2084,-18.934 5.1628,-18.4284 1.659,-18.4284 -7.1231,0 -8.7175,-3.05486 -5.1722,-9.9106 1.8865,-3.64815 4.1977,-5.0894 8.1612,-5.0894 5.3821,0 4.3305,-34.79928 -1.8344,-60.70046 -7.9861,-33.55302 -24.9041,-62.67147 -50.8051,-87.44348 -19.9846,-19.11359 -42.4594,-33.17456 -75.9433,-47.51267 -46.6643,-19.98217 -97.3821,-33.85792 -149.4058,-40.87563 -24.1739,-3.26092 -79.7693,-3.95992 -98.8764,-1.24318 -46.5877,6.62409 -82.2254,19.93746 -110.6491,41.33597 -34.7993,26.19814 -56.143,59.34879 -71.0328,110.3266 -9.9243,33.978 -14.9116,63.29241 -15.9261,93.61285 l -0.6901,20.625 7.4365,-14.00595 c 8.2412,-15.52174 15.821,-26.66803 24.3297,-35.77766 4.5947,-4.91914 6.2957,-5.95814 9.2088,-5.625 2.9945,0.34245 3.6354,1.05137 3.9579,4.37808 0.3188,3.28967 -0.7183,5.18744 -6.0558,11.08129 -8.0175,8.85325 -16.457,21.8007 -21.8355,33.49911 -6.1765,13.43425 -12.0181,30.86147 -12.0941,36.08027 -0.069,4.69527 6.2502,27.28072 7.6101,27.20198 0.4073,-0.0236 2.7093,-4.36718 5.1155,-9.65246 5.8875,-12.93165 41.5578,-65.82495 46.7671,-69.34802 2.8027,-1.89543 8.0482,-1.00793 8.8429,1.49615 1.0021,3.15744 -0.2456,5.38758 -12.0908,21.61017 -21.9741,30.09491 -32.8354,48.27529 -36.6218,61.29999 -1.1364,3.90899 -2.9986,7.62912 -4.1384,8.26697 -1.9185,1.07363 -1.9047,1.51549 0.1859,5.9524 1.242,2.63598 3.9756,7.49102 6.0747,10.78899 l 3.8165,5.99633 5.0313,-8.49633 c 2.7672,-4.67297 7.8571,-12.15256 11.3107,-16.62131 11.3824,-14.72803 37.2369,-43.63389 39.7377,-44.42761 3.1426,-0.99742 6.0842,1.43795 6.0842,5.0371 0,3.37498 -1.8397,5.83703 -18.2254,24.39051 -15.2453,17.26229 -24.6646,29.68465 -28.9081,38.125 -1.7282,3.4375 -4.3259,7.5397 -5.7725,9.116 l -2.6302,2.866 11.7337,11.42526 11.7338,11.42525 1.9718,-2.99371 c 1.0845,-1.64654 5.7623,-7.79635 10.395,-13.66625 4.6327,-5.8699 12.1902,-15.6099 16.7944,-21.64444 8.1019,-10.61874 11.8061,-13.32291 16.0298,-11.70215 1.0697,0.4105 1.8777,2.27185 1.8777,4.3255 0,2.71879 -3.3634,7.78176 -13.683,20.59719 -7.5256,9.34575 -15.9141,20.23826 -18.641,24.20556 l -4.958,7.21329 4.0475,2.75035 c 2.2261,1.51269 8.5053,5.04926 13.9535,7.85906 l 9.906,5.10871 0.4135,-3.31636 c 0.2595,-2.08159 5.5603,-9.1811 14.2368,-19.06781 7.6027,-8.6633 15.9551,-18.18328 18.5607,-21.1555 3.8194,-4.35673 5.4208,-5.32574 8.2633,-5 2.8942,0.33169 3.5903,1.07566 3.8865,4.15405 0.2928,3.04515 -1.171,5.5894 -7.7885,13.53615 -14.1724,17.01942 -24.9538,28.66021 -28.6208,30.9021 l -3.5484,2.16946 9.7984,3.76304 c 9.3085,3.57486 30.1855,10.25425 32.0505,10.25425 0.4801,0 0.873,-0.86999 0.873,-1.93331 0,-2.78123 35.0559,-40.53308 38.4233,-41.37824 4.4265,-1.11099 6.5767,0.35452 6.5767,4.48239 0,3.1004 -3.0091,6.94727 -17.3862,22.22673 -9.5624,10.16259 -17.0155,18.87007 -16.5625,19.34995 1.023,1.08353 31.7243,7.25248 36.0938,7.25248 2.2203,0 6.3139,-2.83303 13.434,-9.2972 10.937,-9.92939 15.4209,-12.14134 18.0908,-8.92439 2.554,3.07743 0.6086,7.47273 -6.1923,13.99048 -7.7902,7.46583 -7.715,7.50771 15.6564,8.71992 12.1161,0.62844 17.5764,1.40009 18.8386,2.66234 2.1601,2.16017 2.1812,6.85771 0.084,18.80912 -0.8769,4.99692 -1.3889,9.2907 -1.1378,9.54175 0.251,0.25107 2.5377,-0.0231 5.0814,-0.60918 6.4986,-1.49742 8.9999,-0.44053 8.9999,3.80291 0,5.69709 -3.6824,8.99336 -11.8739,10.62905 -6.8054,1.35889 -7.4116,1.76852 -8.8755,5.99675 l -1.5712,4.53824 4.5978,0.3826 c 4.0965,0.3409 4.638,0.79318 4.9673,4.14817 0.5119,5.21531 -3.2255,8.8478 -10.1756,9.89004 -5.5987,0.83955 -5.6589,0.90271 -12.637,13.2269 -7.4884,13.22557 -17.8384,27.80005 -27.3382,38.49619 -8.8366,9.94961 -8.6168,9.96971 10.1003,0.92405 z m -59.7926,34.13792 c -2.8893,-5.39862 0.3542,-11.07868 11.2087,-19.6284 18.5459,-14.6081 37.1764,-36.02749 49.4474,-56.84956 7.7333,-13.1221 15.6925,-32.02753 15.6925,-37.27391 0,-2.34164 0.7719,-5.36706 1.7154,-6.72315 2.0937,-3.00979 4.7111,-14.68334 3.5199,-15.69956 -0.4732,-0.40365 -9.5609,-1.41788 -20.1952,-2.25382 -49.0025,-3.85202 -97.6684,-15.99221 -133.1651,-33.21936 -47.6807,-23.14029 -79.1896,-60.92714 -92.4977,-110.92784 -9.3504,-35.13051 -9.3037,-82.35133 0.1271,-128.31296 14.0591,-68.51854 41.1378,-121.88931 77.8738,-153.48567 33.3053,-28.64548 75.3596,-46.91206 126.3718,-54.89055 17.3605,-2.71523 69.4624,-3.82112 90.8659,-1.92867 67.4399,5.96288 139.7357,25.84937 194.3625,53.46343 47.506,24.01445 79.7451,54.94216 98.5236,94.51585 12.8046,26.98421 17.9084,49.87465 18.0373,80.89851 0.048,11.34375 -0.085,24.5625 -0.2943,29.375 -0.209,4.8125 -0.2921,10.04846 -0.1847,11.63548 0.1075,1.58701 -0.6407,3.83701 -1.662,5 -1.0214,1.16298 -3.3499,7.35588 -5.1744,13.76198 -15.04,52.80812 -46.8756,96.64908 -93.8489,129.23942 -41.095,28.51201 -97.0121,50.23282 -153.75,59.72362 -8.9375,1.49503 -16.5841,3.09426 -16.9926,3.55386 -0.4084,0.4596 -2.05,4.21064 -3.648,8.33564 -4.2249,10.90611 -13.0606,28.33263 -20.2104,39.86023 -27.8881,44.96506 -69.4517,74.99787 -125.6192,90.76942 -15.9307,4.47326 -18.6033,4.61156 -20.5034,1.06101 z"
       inkscape:connector-curvature="0" />
  </g>
</svg>
